<svg width="110" height="26" viewBox="0 0 110 26" fill="none" xmlns="http://www.w3.org/2000/svg">
<g opacity="0.3" clip-path="url(#clip0)">
<path d="M31.6609 9.55969C30.4955 8.16808 28.918 7.47098 26.926 7.47098C24.9213 7.47098 23.3034 8.28168 22.0646 9.90566C20.8259 11.5296 20.2091 13.6726 20.2091 16.3422V16.5668C20.2091 19.2235 20.831 21.3768 22.0722 23.0266C23.316 24.6764 24.9213 25.5 26.8931 25.5C28.9711 25.5 30.5915 24.7719 31.7544 23.3158L31.896 25.1798H34.5706V0.5H31.6609V9.55969ZM31.6609 20.437C30.8115 22.1307 29.4641 22.975 27.6186 22.975C26.2131 22.975 25.1109 22.4173 24.3146 21.3045C23.5182 20.1917 23.1188 18.6478 23.1188 16.6778C23.1188 14.4704 23.5182 12.8051 24.3146 11.682C25.1109 10.5563 26.2232 9.99344 27.649 9.99344C29.4514 9.99344 30.7912 10.8119 31.6609 12.4514V20.437Z" fill="white"/>
<path d="M43.4211 7.47098C42.0686 7.47098 40.8122 7.85309 39.6519 8.6199C38.4915 9.38671 37.5916 10.4453 36.9444 11.8007C36.2998 13.1562 35.9762 14.695 35.9762 16.4196V16.967C35.9762 19.5592 36.6992 21.6298 38.1477 23.1763C39.5963 24.7254 41.472 25.4974 43.7801 25.4974C46.6342 25.4974 48.7728 24.3795 50.1986 22.1384L48.4215 20.7236C47.8855 21.431 47.2636 21.999 46.5507 22.4276C45.8379 22.8562 44.9657 23.0705 43.9393 23.0705C42.4908 23.0705 41.2976 22.5438 40.3597 21.4878C39.4218 20.4318 38.9314 19.048 38.8884 17.3336H50.4211V16.0969C50.4211 13.3214 49.8068 11.1914 48.5807 9.70169C47.3546 8.21455 45.6331 7.47098 43.4211 7.47098ZM47.5114 14.8938H38.9845C39.1741 13.3189 39.667 12.0951 40.4634 11.2224C41.2597 10.3497 42.2456 9.9134 43.4211 9.9134C44.6371 9.9134 45.6027 10.3291 46.3156 11.1579C47.0285 11.9892 47.428 13.1588 47.5114 14.6692V14.8938Z" fill="white"/>
<path d="M57.6005 21.1444L53.2751 7.79111H50.2997L56.468 25.1772H58.6875L64.7901 7.79111H61.8172L57.6005 21.1444Z" fill="white"/>
<path d="M69.1407 7.79111H66.231V25.1772H69.1407V7.79111Z" fill="white"/>
<path d="M67.7101 1.46045C67.1438 1.46045 66.7166 1.62569 66.4284 1.95874C66.1402 2.2918 65.9961 2.69715 65.9961 3.17996C65.9961 3.66276 66.1402 4.06295 66.4284 4.38568C66.7166 4.70583 67.1438 4.86848 67.7101 4.86848C68.2763 4.86848 68.7061 4.70841 68.9993 4.38568C69.2926 4.06553 69.4392 3.66276 69.4392 3.17996C69.4392 2.69715 69.2926 2.2918 68.9993 1.95874C68.7061 1.62827 68.2789 1.46045 67.7101 1.46045Z" fill="white"/>
<path d="M79.4879 7.47098C77.3897 7.47098 75.6909 8.3075 74.3916 9.97795L74.298 7.79371H71.545V25.1798H74.4547V12.7922C74.8542 11.9556 75.4103 11.2818 76.1232 10.768C76.8361 10.2542 77.6653 9.99602 78.6082 9.99602C79.7736 9.99602 80.6306 10.2955 81.1792 10.8971C81.7303 11.4961 82.0109 12.423 82.021 13.6777V25.1824H84.9307V13.6932C84.9004 9.5442 83.0878 7.47098 79.4879 7.47098Z" fill="white"/>
<path d="M91.4403 22.4534C91.1572 22.1049 91.0156 21.5808 91.0156 20.8863V10.0916H94.1933V7.79372H91.0156V3.58273H88.1059V7.79372H85.0066V10.0916H88.1059V20.8733C88.1059 22.3527 88.4371 23.4913 89.0969 24.2969C89.7567 25.0998 90.7375 25.5026 92.0394 25.5026C92.7624 25.5026 93.5082 25.3967 94.2742 25.1824V22.7865C93.6877 22.9156 93.2251 22.9801 92.8888 22.9801C92.2063 22.9775 91.7234 22.802 91.4403 22.4534Z" fill="white"/>
<path d="M108.944 21.1134V13.1123C108.901 11.3567 108.324 9.97537 107.215 8.97361C106.102 7.97186 104.565 7.47098 102.604 7.47098C101.365 7.47098 100.23 7.70593 99.1985 8.1784C98.1645 8.65088 97.348 9.2886 96.7438 10.0993C96.1396 10.9074 95.8388 11.7465 95.8388 12.614H98.7662C98.7662 11.8524 99.1176 11.2043 99.8203 10.6699C100.523 10.1354 101.393 9.86693 102.432 9.86693C103.617 9.86693 104.515 10.1742 105.122 10.7912C105.731 11.4083 106.034 12.2345 106.034 13.275V14.6408H103.203C100.758 14.6408 98.8622 15.1416 97.5148 16.1434C96.1674 17.1451 95.4924 18.5523 95.4924 20.3621C95.4924 21.8519 96.0309 23.0808 97.1053 24.049C98.1797 25.0198 99.5574 25.5026 101.236 25.5026C103.114 25.5026 104.73 24.7848 106.082 23.3493C106.186 24.2271 106.322 24.839 106.492 25.1798H109.543V24.9217C109.144 23.9793 108.944 22.709 108.944 21.1134ZM106.034 20.3079C105.668 21.0799 105.073 21.7047 104.257 22.1875C103.438 22.6703 102.573 22.9104 101.661 22.9104C100.708 22.9104 99.924 22.6471 99.3173 22.1229C98.708 21.5988 98.4047 20.8708 98.4047 19.9387C98.4047 17.8061 100.187 16.7398 103.754 16.7398H106.034V20.3079Z" fill="white"/>
<path d="M12.1727 1.78317H9.52847L3.12256 19.0454H18.6899L12.1727 1.78317ZM10.8506 5.59139L14.7892 16.5332H7.00301L10.8506 5.59139Z" fill="white"/>
<path d="M16.3718 20.9276L17.9013 25.1799H21.0006L19.3978 20.9276H16.3718Z" fill="white"/>
<path d="M0.847412 25.1799H3.96189L5.45845 20.9276H2.42487L0.847412 25.1799Z" fill="white"/>
</g>
<defs>
<clipPath id="clip0">
<rect width="108.696" height="25" fill="white" transform="translate(0.847412 0.5)"/>
</clipPath>
</defs>
</svg>
