<svg width="109" height="26" viewBox="0 0 109 26" fill="none" xmlns="http://www.w3.org/2000/svg">
<g clip-path="url(#clip0)">
<path d="M30.8332 9.55969C29.6678 8.16808 28.0904 7.47098 26.0983 7.47098C24.0936 7.47098 22.4757 8.28168 21.237 9.90566C19.9983 11.5296 19.3815 13.6726 19.3815 16.3422V16.5668C19.3815 19.2235 20.0034 21.3768 21.2446 23.0266C22.4884 24.6764 24.0936 25.5 26.0655 25.5C28.1435 25.5 29.7639 24.7719 30.9268 23.3158L31.0683 25.1798H33.7429V0.5H30.8332V9.55969ZM30.8332 20.437C29.9838 22.1307 28.6364 22.975 26.791 22.975C25.3854 22.975 24.2832 22.4173 23.4869 21.3045C22.6906 20.1917 22.2912 18.6478 22.2912 16.6778C22.2912 14.4704 22.6906 12.8051 23.4869 11.682C24.2832 10.5563 25.3955 9.99344 26.8213 9.99344C28.6238 9.99344 29.9636 10.8119 30.8332 12.4514V20.437Z" fill="#2900D2"/>
<path d="M42.5936 7.47098C41.2411 7.47098 39.9847 7.85309 38.8244 8.6199C37.664 9.38671 36.7641 10.4453 36.1169 11.8007C35.4723 13.1562 35.1487 14.695 35.1487 16.4196V16.967C35.1487 19.5592 35.8717 21.6298 37.3202 23.1763C38.7688 24.7254 40.6445 25.4974 42.9526 25.4974C45.8067 25.4974 47.9453 24.3795 49.3711 22.1384L47.5939 20.7236C47.058 21.431 46.4361 21.999 45.7232 22.4276C45.0103 22.8562 44.1382 23.0705 43.1118 23.0705C41.6633 23.0705 40.4701 22.5438 39.5322 21.4878C38.5943 20.4318 38.1039 19.048 38.0609 17.3336H49.5936V16.0969C49.5936 13.3214 48.9793 11.1914 47.7532 9.70169C46.5271 8.21455 44.8056 7.47098 42.5936 7.47098ZM46.6839 14.8938H38.157C38.3466 13.3189 38.8395 12.0951 39.6358 11.2224C40.4322 10.3497 41.4181 9.9134 42.5936 9.9134C43.8095 9.9134 44.7752 10.3291 45.4881 11.1579C46.201 11.9892 46.6004 13.1588 46.6839 14.6692V14.8938Z" fill="#2900D2"/>
<path d="M56.7729 21.1444L52.4475 7.79111H49.472L55.6403 25.1772H57.8599L63.9624 7.79111H60.9895L56.7729 21.1444Z" fill="#2900D2"/>
<path d="M68.313 7.79111H65.4033V25.1772H68.313V7.79111Z" fill="#2900D2"/>
<path d="M66.8824 1.46045C66.3162 1.46045 65.8889 1.62569 65.6007 1.95875C65.3126 2.2918 65.1685 2.69715 65.1685 3.17996C65.1685 3.66276 65.3126 4.06295 65.6007 4.38568C65.8889 4.70583 66.3162 4.86848 66.8824 4.86848C67.4487 4.86848 67.8785 4.70841 68.1717 4.38568C68.4649 4.06553 68.6116 3.66276 68.6116 3.17996C68.6116 2.69715 68.4649 2.2918 68.1717 1.95875C67.8785 1.62827 67.4512 1.46045 66.8824 1.46045Z" fill="#2900D2"/>
<path d="M78.6603 7.47098C76.5621 7.47098 74.8633 8.3075 73.5639 9.97795L73.4704 7.79371H70.7174V25.1798H73.6271V12.7922C74.0265 11.9556 74.5827 11.2818 75.2956 10.768C76.0085 10.2542 76.8376 9.99602 77.7806 9.99602C78.946 9.99602 79.803 10.2955 80.3515 10.8971C80.9026 11.4961 81.1832 12.423 81.1934 13.6777V25.1824H84.1031V13.6932C84.0727 9.5442 82.2602 7.47098 78.6603 7.47098Z" fill="#2900D2"/>
<path d="M90.6127 22.4534C90.3295 22.1049 90.188 21.5808 90.188 20.8863V10.0916H93.3656V7.79372H90.188V3.58273H87.2783V7.79372H84.179V10.0916H87.2783V20.8733C87.2783 22.3527 87.6094 23.4913 88.2692 24.2969C88.929 25.0998 89.9099 25.5026 91.2118 25.5026C91.9348 25.5026 92.6806 25.3967 93.4465 25.1824V22.7865C92.86 22.9156 92.3974 22.9801 92.0612 22.9801C91.3786 22.9776 90.8958 22.802 90.6127 22.4534Z" fill="#2900D2"/>
<path d="M108.116 21.1134V13.1123C108.073 11.3567 107.497 9.97537 106.387 8.97361C105.275 7.97186 103.738 7.47098 101.776 7.47098C100.537 7.47098 99.4022 7.70593 98.3708 8.1784C97.3369 8.65088 96.5203 9.2886 95.9161 10.0993C95.312 10.9074 95.0111 11.7465 95.0111 12.614H97.9385C97.9385 11.8524 98.2899 11.2043 98.9927 10.6699C99.6955 10.1354 100.565 9.86693 101.604 9.86693C102.79 9.86693 103.687 10.1742 104.294 10.7912C104.903 11.4083 105.206 12.2345 105.206 13.275V14.6408H102.375C99.9306 14.6408 98.0346 15.1416 96.6872 16.1434C95.3398 17.1451 94.6648 18.5523 94.6648 20.3621C94.6648 21.8519 95.2032 23.0808 96.2776 24.049C97.352 25.0198 98.7298 25.5026 100.408 25.5026C102.287 25.5026 103.902 24.7848 105.255 23.3493C105.358 24.2271 105.495 24.839 105.664 25.1798H108.715V24.9217C108.316 23.9793 108.116 22.709 108.116 21.1134ZM105.206 20.3079C104.84 21.0799 104.246 21.7047 103.429 22.1875C102.61 22.6703 101.746 22.9104 100.833 22.9104C99.88 22.9104 99.0963 22.6471 98.4896 22.1229C97.8804 21.5988 97.577 20.8708 97.577 19.9387C97.577 17.8061 99.3593 16.7398 102.926 16.7398H105.206V20.3079Z" fill="#2900D2"/>
<path d="M11.3452 1.78317H8.70095L2.29504 19.0454H17.8624L11.3452 1.78317ZM10.0231 5.59139L13.9617 16.5332H6.1755L10.0231 5.59139Z" fill="#2900D2"/>
<path d="M15.5442 20.9276L17.0736 25.1799H20.1729L18.5702 20.9276H15.5442Z" fill="#2900D2"/>
<path d="M0.0197754 25.1799H3.13425L4.63082 20.9276H1.59724L0.0197754 25.1799Z" fill="#2900D2"/>
</g>
<defs>
<clipPath id="clip0">
<rect width="108.696" height="25" fill="white" transform="translate(0.0197754 0.5)"/>
</clipPath>
</defs>
</svg>
