<svg width="90" height="26" viewBox="0 0 90 26" fill="none" xmlns="http://www.w3.org/2000/svg">
<g clip-path="url(#clip0)">
<path d="M32.6073 22.1667C32.6073 22.0625 34.1698 18.1042 36.0969 13.3646L39.5865 4.79689L41.2792 4.71876C42.425 4.66668 43.024 4.7448 43.2323 4.97918C43.4927 5.31772 49.9771 20.9167 50.2635 21.9323C50.3677 22.349 50.2115 22.4011 48.7271 22.3229L47.0604 22.2448L46.3313 20.2917C45.9146 19.224 45.4458 18.2604 45.2635 18.1563C44.8729 17.8958 38.024 17.8958 37.6333 18.1563C37.451 18.2604 36.9823 19.224 36.5917 20.2917L35.8365 22.2448L34.2219 22.3229C33.3365 22.375 32.6073 22.2969 32.6073 22.1667ZM43.2323 12.4271C42.6594 10.9427 42.0604 9.35418 41.9042 8.91147C41.7479 8.44272 41.5656 8.05209 41.4875 8.05209C41.4094 8.05209 40.9406 9.09376 40.4719 10.3438C40.0031 11.5938 39.3781 13.1563 39.0917 13.8594L38.5969 15.0833H41.4354H44.274L43.2323 12.4271Z" fill="white"/>
<path d="M52.5031 22.1667C52.2167 21.9844 47.451 10.3438 47.451 9.84896C47.451 9.69271 48.1021 9.61459 48.9354 9.66667L50.4198 9.7448L52.1125 14.224C53.076 16.6719 53.9094 18.7552 53.9875 18.8594C54.0656 18.9375 54.8729 17.0365 55.7844 14.6406C56.6698 12.2188 57.5292 10.1094 57.6854 9.92709C57.8677 9.69271 58.8573 9.61459 61.4875 9.66667L65.0292 9.7448V15.9948V22.2448H63.8573H62.6854L62.6073 17.2448L62.5552 12.2188H61.149H59.7427L57.8417 16.9844C56.826 19.5885 55.8625 21.8802 55.7063 22.0625C55.4458 22.401 52.9979 22.5052 52.5031 22.1667Z" fill="white"/>
<path d="M71.5917 22.0104C69.4563 21.2292 69.0136 20.2136 68.8573 15.6823L68.7271 12.2448L67.6594 12.1667C66.5917 12.0886 66.5917 12.0886 66.5135 10.9688L66.4354 9.87501H67.6073H68.7792L68.8573 8.00001L68.9354 6.09897H70.2375H71.5396L71.6177 7.8698L71.6958 9.61459H73.4927C75.2115 9.61459 75.3156 9.64064 75.4719 10.2656C75.55 10.6302 75.55 11.2031 75.4719 11.5677C75.3156 12.1667 75.2115 12.2188 73.649 12.2188H72.0083L71.8261 13.7031C71.7219 14.5104 71.7219 16.0469 71.8261 17.0886C71.9823 18.7292 72.0865 19.0938 72.6333 19.4323C73.3886 19.9271 74.7167 19.7448 75.9927 18.9636L76.9042 18.4167L76.7479 16.8021C76.4354 13.8073 77.6854 11.4636 80.1854 10.2136C83.024 8.83334 86.3833 9.40626 88.3365 11.6198C89.8469 13.3386 90.2896 15.6042 89.6125 18.0261C89.274 19.25 87.7896 20.9427 86.4354 21.6198C84.3 22.7396 81.2271 22.4792 79.2479 21.0729C78.3886 20.4479 78.1802 20.3698 77.9198 20.6823C77.7636 20.8906 77.0083 21.3333 76.2792 21.724C74.7948 22.4531 73.1542 22.5573 71.5917 22.0104ZM84.951 19.3021C88.1281 17.7136 87.5031 12.7136 84.0135 12.0625C82.7115 11.8281 80.9406 12.5573 80.2636 13.625C79.5604 14.7969 79.5604 16.9844 80.2636 18.1563C81.2011 19.6667 83.2323 20.1615 84.951 19.3021Z" fill="white"/>
<path d="M63.1542 6.72395C62.0084 6.30728 62.1646 4.3802 63.3365 4.01562C64.1698 3.7552 65.1594 4.53645 65.1594 5.42187C65.1594 6.51562 64.2219 7.11457 63.1542 6.72395Z" fill="white"/>
<path d="M8.8052 5.60417C6.53958 4.82292 4.58645 4.09375 4.45625 3.96354C4.35208 3.85938 4.32604 3.625 4.4302 3.46875C4.71666 3 12.2427 0.5 13.2844 0.5C14.6646 0.526042 22.5552 3.15625 22.6594 3.65104C22.7115 3.9375 21.6437 4.38021 18.4927 5.39583C16.149 6.15104 13.9615 6.80208 13.5969 6.88021C13.1802 6.98438 11.4094 6.48958 8.8052 5.60417Z" fill="#2EC966"/>
<path d="M5.78434 23.2604C3.41455 22.1667 1.33122 21.099 1.17497 20.8646C0.914551 20.5521 0.836426 18.6771 0.836426 13.5208C0.836426 5.89063 0.914551 5.42188 2.34684 5.47397C2.73747 5.47397 4.97705 6.15105 7.34684 6.95834C10.8885 8.1823 11.6958 8.54688 11.9562 9.09376C12.2166 9.58855 12.2948 11.5417 12.2427 16.9844L12.1646 24.25L11.5396 24.7448C11.201 25.0052 10.7323 25.2396 10.4979 25.2396C10.2635 25.2396 8.15413 24.3542 5.78434 23.2604Z" fill="#FF4C59"/>
<path d="M15.3937 24.6406C14.925 24.3281 14.4562 23.7813 14.352 23.4167C14.2479 23.0521 14.1698 20.0313 14.1437 16.6979C14.1177 9.71876 14.2218 9.19793 15.8364 8.4948C16.3833 8.26043 18.4406 7.58334 20.3937 7.01043C24.3 5.86459 24.7947 5.86459 25.8104 7.16668C26.3312 7.84376 26.3572 8.13022 26.3572 14.3021C26.3572 20.3698 26.3312 20.7865 25.8364 21.4115C25.4718 21.8802 24.0916 22.5573 21.2531 23.6511C19.0395 24.5365 17.0083 25.2396 16.7479 25.2396C16.4875 25.2396 15.8885 24.9792 15.3937 24.6406Z" fill="#3AA4FF"/>
</g>
<defs>
<clipPath id="clip0">
<rect width="89.0625" height="25" fill="white" transform="translate(0.836426 0.5)"/>
</clipPath>
</defs>
</svg>
