<svg width="90" height="26" viewBox="0 0 90 26" fill="none" xmlns="http://www.w3.org/2000/svg">
<g opacity="0.3" clip-path="url(#clip0)">
<path d="M32.4349 22.1667C32.4349 22.0625 33.9974 18.1042 35.9245 13.3646L39.4141 4.79689L41.1068 4.71876C42.2526 4.66668 42.8516 4.7448 43.0599 4.97918C43.3203 5.31772 49.8047 20.9167 50.0912 21.9323C50.1953 22.349 50.0391 22.4011 48.5547 22.3229L46.8881 22.2448L46.1589 20.2917C45.7422 19.224 45.2735 18.2604 45.0912 18.1563C44.7006 17.8958 37.8516 17.8958 37.461 18.1563C37.2787 18.2604 36.8099 19.224 36.4193 20.2917L35.6641 22.2448L34.0495 22.3229C33.1641 22.375 32.4349 22.2969 32.4349 22.1667ZM43.0599 12.4271C42.487 10.9427 41.8881 9.35418 41.7318 8.91147C41.5756 8.44272 41.3933 8.05209 41.3151 8.05209C41.237 8.05209 40.7683 9.09376 40.2995 10.3438C39.8308 11.5938 39.2058 13.1563 38.9193 13.8594L38.4245 15.0833H41.2631H44.1016L43.0599 12.4271Z" fill="white"/>
<path d="M52.3308 22.1667C52.0443 21.9844 47.2787 10.3438 47.2787 9.84896C47.2787 9.69271 47.9297 9.61459 48.7631 9.66667L50.2474 9.7448L51.9401 14.224C52.9037 16.6719 53.737 18.7552 53.8151 18.8594C53.8933 18.9375 54.7006 17.0365 55.612 14.6406C56.4974 12.2188 57.3568 10.1094 57.5131 9.92709C57.6953 9.69271 58.6849 9.61459 61.3151 9.66667L64.8568 9.7448V15.9948V22.2448H63.6849H62.5131L62.4349 17.2448L62.3828 12.2188H60.9766H59.5703L57.6693 16.9844C56.6537 19.5885 55.6901 21.8802 55.5339 22.0625C55.2735 22.401 52.8256 22.5052 52.3308 22.1667Z" fill="white"/>
<path d="M71.4193 22.0104C69.2839 21.2292 68.8412 20.2136 68.6849 15.6823L68.5547 12.2448L67.487 12.1667C66.4193 12.0886 66.4193 12.0886 66.3412 10.9688L66.2631 9.87501H67.4349H68.6068L68.6849 8.00001L68.7631 6.09897H70.0651H71.3672L71.4454 7.8698L71.5235 9.61459H73.3204C75.0391 9.61459 75.1433 9.64064 75.2995 10.2656C75.3776 10.6302 75.3776 11.2031 75.2995 11.5677C75.1433 12.1667 75.0391 12.2188 73.4766 12.2188H71.836L71.6537 13.7031C71.5495 14.5104 71.5495 16.0469 71.6537 17.0886C71.8099 18.7292 71.9141 19.0938 72.461 19.4323C73.2162 19.9271 74.5443 19.7448 75.8204 18.9636L76.7318 18.4167L76.5756 16.8021C76.2631 13.8073 77.5131 11.4636 80.0131 10.2136C82.8516 8.83334 86.211 9.40626 88.1641 11.6198C89.6745 13.3386 90.1172 15.6042 89.4401 18.0261C89.1016 19.25 87.6172 20.9427 86.2631 21.6198C84.1276 22.7396 81.0547 22.4792 79.0756 21.0729C78.2162 20.4479 78.0079 20.3698 77.7474 20.6823C77.5912 20.8906 76.836 21.3333 76.1068 21.724C74.6224 22.4531 72.9818 22.5573 71.4193 22.0104ZM84.7787 19.3021C87.9558 17.7136 87.3308 12.7136 83.8412 12.0625C82.5391 11.8281 80.7683 12.5573 80.0912 13.625C79.3881 14.7969 79.3881 16.9844 80.0912 18.1563C81.0287 19.6667 83.0599 20.1615 84.7787 19.3021Z" fill="white"/>
<path d="M62.9818 6.72395C61.836 6.30728 61.9923 4.3802 63.1641 4.01562C63.9975 3.7552 64.987 4.53645 64.987 5.42187C64.987 6.51562 64.0495 7.11457 62.9818 6.72395Z" fill="white"/>
<path d="M8.63284 5.60417C6.36722 4.82292 4.41409 4.09375 4.28388 3.96354C4.17972 3.85938 4.15367 3.625 4.25784 3.46875C4.5443 3 12.0703 0.5 13.112 0.5C14.4922 0.526042 22.3828 3.15625 22.487 3.65104C22.5391 3.9375 21.4714 4.38021 18.3203 5.39583C15.9766 6.15104 13.7891 6.80208 13.4245 6.88021C13.0078 6.98438 11.237 6.48958 8.63284 5.60417Z" fill="white"/>
<path d="M5.61198 23.2604C3.24219 22.1667 1.15885 21.099 1.0026 20.8646C0.742188 20.5521 0.664062 18.6771 0.664062 13.5208C0.664062 5.89063 0.742188 5.42188 2.17448 5.47397C2.5651 5.47397 4.80469 6.15105 7.17448 6.95834C10.7161 8.1823 11.5234 8.54688 11.7839 9.09376C12.0443 9.58855 12.1224 11.5417 12.0703 16.9844L11.9922 24.25L11.3672 24.7448C11.0286 25.0052 10.5599 25.2396 10.3255 25.2396C10.0911 25.2396 7.98177 24.3542 5.61198 23.2604Z" fill="white"/>
<path d="M15.2213 24.6406C14.7526 24.3281 14.2838 23.7813 14.1797 23.4167C14.0755 23.0521 13.9974 20.0313 13.9713 16.6979C13.9453 9.71876 14.0495 9.19793 15.6641 8.4948C16.2109 8.26043 18.2682 7.58334 20.2213 7.01043C24.1276 5.86459 24.6224 5.86459 25.638 7.16668C26.1588 7.84376 26.1849 8.13022 26.1849 14.3021C26.1849 20.3698 26.1588 20.7865 25.664 21.4115C25.2995 21.8802 23.9193 22.5573 21.0807 23.6511C18.8672 24.5365 16.8359 25.2396 16.5755 25.2396C16.3151 25.2396 15.7161 24.9792 15.2213 24.6406Z" fill="white"/>
</g>
<defs>
<clipPath id="clip0">
<rect width="89.0625" height="25" fill="white" transform="translate(0.664062 0.5)"/>
</clipPath>
</defs>
</svg>
