<svg width="67" height="19" viewBox="0 0 67 19" fill="none" xmlns="http://www.w3.org/2000/svg">
<path d="M10.9587 9.2113C11.9796 9.49582 12.7662 10.0063 13.3185 10.7427C13.8876 11.4791 14.1721 12.3996 14.1721 13.5042C14.1721 15.0272 13.6449 16.2155 12.5905 17.069C11.5528 17.9059 10.0968 18.3243 8.22229 18.3243H1.82062C1.41894 18.3243 1.10095 18.2155 0.866643 17.9979C0.64907 17.7636 0.540283 17.454 0.540283 17.069V1.88075C0.540283 1.49582 0.64907 1.19456 0.866643 0.976987C1.10095 0.742678 1.41894 0.625523 1.82062 0.625523H7.94614C9.77041 0.625523 11.193 1.03556 12.2139 1.85565C13.2516 2.659 13.7704 3.7887 13.7704 5.24477C13.7704 6.18201 13.5194 6.99372 13.0173 7.67992C12.5319 8.36611 11.8457 8.87657 10.9587 9.2113ZM3.07585 8.28243H7.54447C10.0215 8.28243 11.2599 7.34519 11.2599 5.47071C11.2599 4.53347 10.9503 3.83891 10.3311 3.38703C9.72857 2.93515 8.7997 2.7092 7.54447 2.7092H3.07585V8.28243ZM7.94614 16.2406C9.23484 16.2406 10.1805 16.0063 10.783 15.5377C11.3855 15.069 11.6867 14.341 11.6867 13.3536C11.6867 12.3494 11.3771 11.6046 10.7579 11.1192C10.1553 10.6172 9.21811 10.3661 7.94614 10.3661H3.07585V16.2406H7.94614Z" fill="white"/>
<path d="M22.5755 18.5C21.3704 18.5 20.3077 18.2406 19.3872 17.7218C18.4834 17.2029 17.7805 16.4665 17.2784 15.5126C16.793 14.5418 16.5504 13.4205 16.5504 12.1485C16.5504 10.8598 16.793 9.73849 17.2784 8.78452C17.7805 7.81381 18.4834 7.06904 19.3872 6.55021C20.3077 6.03138 21.3704 5.77197 22.5755 5.77197C23.7805 5.77197 24.8349 6.03138 25.7386 6.55021C26.6591 7.06904 27.3621 7.81381 27.8474 8.78452C28.3495 9.73849 28.6006 10.8598 28.6006 12.1485C28.6006 13.4205 28.3495 14.5418 27.8474 15.5126C27.3621 16.4665 26.6591 17.2029 25.7386 17.7218C24.8349 18.2406 23.7805 18.5 22.5755 18.5ZM22.5755 16.4916C23.6968 16.4916 24.5504 16.1234 25.1361 15.387C25.7386 14.6506 26.0399 13.5711 26.0399 12.1485C26.0399 10.7427 25.7386 9.67155 25.1361 8.93515C24.5336 8.18201 23.6801 7.80544 22.5755 7.80544C21.4708 7.80544 20.6173 8.18201 20.0148 8.93515C19.4123 9.67155 19.111 10.7427 19.111 12.1485C19.111 13.5711 19.4039 14.6506 19.9897 15.387C20.5922 16.1234 21.4541 16.4916 22.5755 16.4916Z" fill="white"/>
<path d="M36.7458 18.5C35.5408 18.5 34.478 18.2406 33.5575 17.7218C32.6538 17.2029 31.9508 16.4665 31.4488 15.5126C30.9634 14.5418 30.7207 13.4205 30.7207 12.1485C30.7207 10.8598 30.9634 9.73849 31.4488 8.78452C31.9508 7.81381 32.6538 7.06904 33.5575 6.55021C34.478 6.03138 35.5408 5.77197 36.7458 5.77197C37.9508 5.77197 39.0052 6.03138 39.909 6.55021C40.8295 7.06904 41.5324 7.81381 42.0178 8.78452C42.5199 9.73849 42.7709 10.8598 42.7709 12.1485C42.7709 13.4205 42.5199 14.5418 42.0178 15.5126C41.5324 16.4665 40.8295 17.2029 39.909 17.7218C39.0052 18.2406 37.9508 18.5 36.7458 18.5ZM36.7458 16.4916C37.8672 16.4916 38.7207 16.1234 39.3065 15.387C39.909 14.6506 40.2103 13.5711 40.2103 12.1485C40.2103 10.7427 39.909 9.67155 39.3065 8.93515C38.704 8.18201 37.8504 7.80544 36.7458 7.80544C35.6412 7.80544 34.7877 8.18201 34.1852 8.93515C33.5826 9.67155 33.2814 10.7427 33.2814 12.1485C33.2814 13.5711 33.5743 14.6506 34.16 15.387C34.7626 16.1234 35.6245 16.4916 36.7458 16.4916Z" fill="white"/>
<path d="M55.8869 16.341C56.1882 16.592 56.3388 16.9017 56.3388 17.2699C56.3388 17.5879 56.23 17.864 56.0124 18.0983C55.7949 18.3326 55.5354 18.4498 55.2342 18.4498C54.9162 18.4498 54.6317 18.3326 54.3806 18.0983L48.1296 12.5753V17.2197C48.1296 17.6213 48.0124 17.931 47.7781 18.1485C47.5438 18.3494 47.2426 18.4498 46.8744 18.4498C46.5062 18.4498 46.1965 18.3494 45.9455 18.1485C45.7112 17.931 45.594 17.6213 45.594 17.2197V1.73013C45.594 1.32845 45.7112 1.0272 45.9455 0.82636C46.1965 0.608787 46.5062 0.5 46.8744 0.5C47.2426 0.5 47.5438 0.608787 47.7781 0.82636C48.0124 1.0272 48.1296 1.32845 48.1296 1.73013V11.5711L53.8534 6.22385C54.138 5.9728 54.4141 5.84728 54.6819 5.84728C54.9999 5.84728 55.276 5.96444 55.5103 6.19874C55.7446 6.43305 55.8618 6.70921 55.8618 7.0272C55.8618 7.34519 55.7195 7.63808 55.435 7.90586L50.9664 11.9979L55.8869 16.341Z" fill="white"/>
<path d="M64.9899 5.82218C65.7932 5.77197 66.1949 6.11506 66.1949 6.85146C66.1949 7.21967 66.1028 7.49582 65.9187 7.67992C65.7346 7.86402 65.4166 7.9728 64.9648 8.00628L64.2116 8.08159C63.1572 8.18201 62.3706 8.55021 61.8518 9.18619C61.3497 9.82218 61.0987 10.5921 61.0987 11.4958V17.2448C61.0987 17.6464 60.9815 17.9477 60.7472 18.1485C60.5129 18.3494 60.2116 18.4498 59.8434 18.4498C59.4752 18.4498 59.1656 18.3494 58.9146 18.1485C58.6802 17.9477 58.5631 17.6464 58.5631 17.2448V7.0272C58.5631 6.64226 58.6802 6.34937 58.9146 6.14854C59.1656 5.93096 59.4752 5.82218 59.8434 5.82218C60.1782 5.82218 60.4543 5.93096 60.6719 6.14854C60.9062 6.34937 61.0233 6.63389 61.0233 7.00209V8.20711C61.3581 7.47071 61.8434 6.91004 62.4794 6.5251C63.1154 6.14017 63.8351 5.91423 64.6384 5.84728L64.9899 5.82218Z" fill="white"/>
</svg>
