<svg width="67" height="19" viewBox="0 0 67 19" fill="none" xmlns="http://www.w3.org/2000/svg">
<g opacity="0.3">
<path d="M10.7863 9.2113C11.8073 9.49582 12.5939 10.0063 13.1462 10.7427C13.7152 11.4791 13.9997 12.3996 13.9997 13.5042C13.9997 15.0272 13.4725 16.2155 12.4181 17.069C11.3805 17.9059 9.9244 18.3243 8.04993 18.3243H1.64825C1.24658 18.3243 0.928589 18.2155 0.69428 17.9979C0.476707 17.7636 0.36792 17.454 0.36792 17.069V1.88075C0.36792 1.49582 0.476707 1.19456 0.69428 0.976987C0.928589 0.742678 1.24658 0.625523 1.64825 0.625523H7.77378C9.59805 0.625523 11.0206 1.03556 12.0416 1.85565C13.0792 2.659 13.598 3.7887 13.598 5.24477C13.598 6.18201 13.347 6.99372 12.8449 7.67992C12.3596 8.36611 11.6734 8.87657 10.7863 9.2113ZM2.90348 8.28243H7.3721C9.84909 8.28243 11.0876 7.34519 11.0876 5.47071C11.0876 4.53347 10.778 3.83891 10.1587 3.38703C9.5562 2.93515 8.62733 2.7092 7.3721 2.7092H2.90348V8.28243ZM7.77378 16.2406C9.06248 16.2406 10.0081 16.0063 10.6106 15.5377C11.2131 15.069 11.5144 14.341 11.5144 13.3536C11.5144 12.3494 11.2047 11.6046 10.5855 11.1192C9.98298 10.6172 9.04574 10.3661 7.77378 10.3661H2.90348V16.2406H7.77378Z" fill="white"/>
<path d="M22.4031 18.5C21.1981 18.5 20.1353 18.2406 19.2148 17.7218C18.311 17.2029 17.6081 16.4665 17.106 15.5126C16.6207 14.5418 16.378 13.4205 16.378 12.1485C16.378 10.8598 16.6207 9.73849 17.106 8.78452C17.6081 7.81381 18.311 7.06904 19.2148 6.55021C20.1353 6.03138 21.1981 5.77197 22.4031 5.77197C23.6081 5.77197 24.6625 6.03138 25.5663 6.55021C26.4868 7.06904 27.1897 7.81381 27.6751 8.78452C28.1771 9.73849 28.4282 10.8598 28.4282 12.1485C28.4282 13.4205 28.1771 14.5418 27.6751 15.5126C27.1897 16.4665 26.4868 17.2029 25.5663 17.7218C24.6625 18.2406 23.6081 18.5 22.4031 18.5ZM22.4031 16.4916C23.5244 16.4916 24.378 16.1234 24.9638 15.387C25.5663 14.6506 25.8675 13.5711 25.8675 12.1485C25.8675 10.7427 25.5663 9.67155 24.9638 8.93515C24.3612 8.18201 23.5077 7.80544 22.4031 7.80544C21.2985 7.80544 20.4449 8.18201 19.8424 8.93515C19.2399 9.67155 18.9387 10.7427 18.9387 12.1485C18.9387 13.5711 19.2315 14.6506 19.8173 15.387C20.4198 16.1234 21.2818 16.4916 22.4031 16.4916Z" fill="white"/>
<path d="M36.5735 18.5C35.3684 18.5 34.3057 18.2406 33.3852 17.7218C32.4814 17.2029 31.7785 16.4665 31.2764 15.5126C30.791 14.5418 30.5484 13.4205 30.5484 12.1485C30.5484 10.8598 30.791 9.73849 31.2764 8.78452C31.7785 7.81381 32.4814 7.06904 33.3852 6.55021C34.3057 6.03138 35.3684 5.77197 36.5735 5.77197C37.7785 5.77197 38.8329 6.03138 39.7366 6.55021C40.6571 7.06904 41.3601 7.81381 41.8454 8.78452C42.3475 9.73849 42.5986 10.8598 42.5986 12.1485C42.5986 13.4205 42.3475 14.5418 41.8454 15.5126C41.3601 16.4665 40.6571 17.2029 39.7366 17.7218C38.8329 18.2406 37.7785 18.5 36.5735 18.5ZM36.5735 16.4916C37.6948 16.4916 38.5484 16.1234 39.1341 15.387C39.7366 14.6506 40.0379 13.5711 40.0379 12.1485C40.0379 10.7427 39.7366 9.67155 39.1341 8.93515C38.5316 8.18201 37.6781 7.80544 36.5735 7.80544C35.4689 7.80544 34.6153 8.18201 34.0128 8.93515C33.4103 9.67155 33.109 10.7427 33.109 12.1485C33.109 13.5711 33.4019 14.6506 33.9877 15.387C34.5902 16.1234 35.4521 16.4916 36.5735 16.4916Z" fill="white"/>
<path d="M55.7145 16.341C56.0158 16.592 56.1664 16.9017 56.1664 17.2699C56.1664 17.5879 56.0576 17.864 55.8401 18.0983C55.6225 18.3326 55.3631 18.4498 55.0618 18.4498C54.7438 18.4498 54.4593 18.3326 54.2083 18.0983L47.9572 12.5753V17.2197C47.9572 17.6213 47.8401 17.931 47.6058 18.1485C47.3714 18.3494 47.0702 18.4498 46.702 18.4498C46.3338 18.4498 46.0242 18.3494 45.7731 18.1485C45.5388 17.931 45.4217 17.6213 45.4217 17.2197V1.73013C45.4217 1.32845 45.5388 1.0272 45.7731 0.82636C46.0242 0.608787 46.3338 0.5 46.702 0.5C47.0702 0.5 47.3714 0.608787 47.6058 0.82636C47.8401 1.0272 47.9572 1.32845 47.9572 1.73013V11.5711L53.6811 6.22385C53.9656 5.9728 54.2417 5.84728 54.5095 5.84728C54.8275 5.84728 55.1037 5.96444 55.338 6.19874C55.5723 6.43305 55.6894 6.70921 55.6894 7.0272C55.6894 7.34519 55.5472 7.63808 55.2627 7.90586L50.794 11.9979L55.7145 16.341Z" fill="white"/>
<path d="M64.8175 5.82218C65.6209 5.77197 66.0225 6.11506 66.0225 6.85146C66.0225 7.21967 65.9305 7.49582 65.7464 7.67992C65.5623 7.86402 65.2443 7.9728 64.7924 8.00628L64.0393 8.08159C62.9849 8.18201 62.1983 8.55021 61.6794 9.18619C61.1773 9.82218 60.9263 10.5921 60.9263 11.4958V17.2448C60.9263 17.6464 60.8091 17.9477 60.5748 18.1485C60.3405 18.3494 60.0393 18.4498 59.6711 18.4498C59.3029 18.4498 58.9932 18.3494 58.7422 18.1485C58.5079 17.9477 58.3907 17.6464 58.3907 17.2448V7.0272C58.3907 6.64226 58.5079 6.34937 58.7422 6.14854C58.9932 5.93096 59.3029 5.82218 59.6711 5.82218C60.0058 5.82218 60.2819 5.93096 60.4995 6.14854C60.7338 6.34937 60.851 6.63389 60.851 7.00209V8.20711C61.1857 7.47071 61.6711 6.91004 62.3071 6.5251C62.943 6.14017 63.6627 5.91423 64.466 5.84728L64.8175 5.82218Z" fill="white"/>
</g>
</svg>
