<svg width="23" height="16" viewBox="0 0 23 16" fill="none" xmlns="http://www.w3.org/2000/svg">
<path d="M19.9457 7.08889C20.624 3.38898 17.7736 0 14.0444 0C11.8896 0 9.9612 1.14316 8.89858 2.91262C7.44916 2.44427 5.95884 2.64387 4.73102 3.48911C3.50387 4.33387 2.77098 5.67138 2.71164 7.13427C1.07191 7.90676 0 9.53947 0 11.3333C0 11.6406 0.0301333 11.9479 0.0895111 12.2469C0.521467 14.4216 2.4464 16 4.66667 16H18.0444C20.6421 16 22.7556 13.9065 22.7556 11.3333C22.7556 9.49716 21.6416 7.83969 19.9457 7.08889ZM18.0444 14.6667H4.66667C2.84444 14.6667 1.33333 13.1896 1.33333 11.3333C1.33333 9.94445 2.24609 8.688 3.60462 8.20689L4.07796 8.03924L4.04751 7.538C3.97591 6.36022 4.51409 5.25716 5.48711 4.58733C6.51604 3.87898 7.77831 3.83004 8.93373 4.35396L9.53427 4.62627L9.81316 4.02876C10.5774 2.39138 12.2383 1.33333 14.0444 1.33333C16.6176 1.33333 18.7111 3.4268 18.7111 6C18.7111 6.76116 18.5505 7.222 18.373 7.83218C18.8701 8.09022 18.9505 8.13804 19.1179 8.19538C20.4962 8.66747 21.4222 9.92853 21.4222 11.3333C21.4222 13.1713 19.9069 14.6667 18.0444 14.6667Z" fill="white"/>
</svg>
