<svg width="18" height="16" viewBox="0 0 18 16" fill="none" xmlns="http://www.w3.org/2000/svg">
<path d="M4.90909 12.3636C4.76945 12.3636 4.62982 12.3105 4.52364 12.2036C4.31055 11.9905 4.31055 11.6451 4.52364 11.432L6.50109 9.45455L4.52291 7.47636C4.30982 7.26327 4.30982 6.91782 4.52291 6.70473C4.736 6.49164 5.08145 6.49164 5.29455 6.70473L7.65818 9.06836C7.87127 9.28146 7.87127 9.62691 7.65818 9.84L5.29455 12.2036C5.18836 12.3105 5.04873 12.3636 4.90909 12.3636Z" fill="white"/>
<path d="M12.5455 12.3636H9.27273C8.97164 12.3636 8.72727 12.1193 8.72727 11.8182C8.72727 11.5171 8.97164 11.2727 9.27273 11.2727H12.5455C12.8465 11.2727 13.0909 11.5171 13.0909 11.8182C13.0909 12.1193 12.8465 12.3636 12.5455 12.3636Z" fill="white"/>
<path d="M15.4545 16H2C0.896727 16 0 15.1033 0 14V2C0 0.896727 0.896727 0 2 0H15.4545C16.5578 0 17.4545 0.896727 17.4545 2V14C17.4545 15.1033 16.5578 16 15.4545 16ZM2 1.09091C1.49891 1.09091 1.09091 1.49891 1.09091 2V14C1.09091 14.5011 1.49891 14.9091 2 14.9091H15.4545C15.9556 14.9091 16.3636 14.5011 16.3636 14V2C16.3636 1.49891 15.9556 1.09091 15.4545 1.09091H2Z" fill="white"/>
<path d="M16.9091 3.63636H0.545455C0.244364 3.63636 0 3.392 0 3.09091C0 2.78982 0.244364 2.54545 0.545455 2.54545H16.9091C17.2102 2.54545 17.4545 2.78982 17.4545 3.09091C17.4545 3.392 17.2102 3.63636 16.9091 3.63636Z" fill="white"/>
</svg>
