<svg width="16" height="16" viewBox="0 0 16 16" fill="none" xmlns="http://www.w3.org/2000/svg">
<path d="M8 4C7.18133 4 2.38419e-07 3.944 2.38419e-07 2C2.38419e-07 0.056 7.18133 0 8 0C8.81867 0 16 0.056 16 2C16 3.944 8.81867 4 8 4ZM1.05867 2C1.54667 2.37867 3.88867 3 8 3C12.1113 3 14.4533 2.37867 14.9413 2C14.4533 1.62133 12.1113 1 8 1C3.88867 1 1.54667 1.62133 1.05867 2Z" fill="white"/>
<path d="M8 8C7.18133 8 0 7.944 0 6C0 5.724 0.224 5.5 0.5 5.5C0.756667 5.5 0.968 5.69333 0.996667 5.94267C1.30467 6.31133 3.67133 7 8 7C12.3287 7 14.6953 6.31133 15.0033 5.94267C15.032 5.69333 15.2433 5.5 15.5 5.5C15.776 5.5 16 5.724 16 6C16 7.944 8.81867 8 8 8ZM15 5.99933C15 6 15 6 15 5.99933V5.99933ZM1 5.99933C1 6 1 6 1 5.99933V5.99933Z" fill="white"/>
<path d="M8 12C7.18133 12 0 11.944 0 10C0 9.724 0.224 9.5 0.5 9.5C0.756667 9.5 0.968 9.69333 0.996667 9.94267C1.30467 10.3113 3.67133 11 8 11C12.3287 11 14.6953 10.3113 15.0033 9.94267C15.032 9.69333 15.2433 9.5 15.5 9.5C15.776 9.5 16 9.724 16 10C16 11.944 8.81867 12 8 12ZM15 9.99933C15 10 15 10 15 9.99933V9.99933ZM1 9.99933C1 10 1 10 1 9.99933V9.99933Z" fill="white"/>
<path d="M8 16C7.18133 16 0 15.944 0 14L2.38419e-07 2C2.38419e-07 1.724 0.224 1.5 0.5 1.5C0.776 1.5 1 1.724 1 2V13.946C1.32067 14.3167 3.68667 15 8 15C12.3133 15 14.6793 14.3167 15 13.946V2C15 1.724 15.224 1.5 15.5 1.5C15.776 1.5 16 1.724 16 2V14C16 15.944 8.81867 16 8 16Z" fill="white"/>
<path d="M3.33333 10C3.70152 10 4 9.70152 4 9.33333C4 8.96514 3.70152 8.66667 3.33333 8.66667C2.96514 8.66667 2.66667 8.96514 2.66667 9.33333C2.66667 9.70152 2.96514 10 3.33333 10Z" fill="white"/>
<path d="M3.33333 6C3.70152 6 4 5.70152 4 5.33333C4 4.96514 3.70152 4.66667 3.33333 4.66667C2.96514 4.66667 2.66667 4.96514 2.66667 5.33333C2.66667 5.70152 2.96514 6 3.33333 6Z" fill="white"/>
<path d="M3.33333 14C3.70152 14 4 13.7015 4 13.3333C4 12.9651 3.70152 12.6667 3.33333 12.6667C2.96514 12.6667 2.66667 12.9651 2.66667 13.3333C2.66667 13.7015 2.96514 14 3.33333 14Z" fill="white"/>
</svg>
