<svg width="23" height="16" viewBox="0 0 23 16" fill="none" xmlns="http://www.w3.org/2000/svg">
<path d="M22.4394 1.60976C22.4394 1.5841 22.4571 1.55912 22.4559 1.53376L15.6032 8.13668L22.4477 14.5287C22.4517 14.483 22.4394 14.437 22.4394 14.3903V1.60976Z" fill="white"/>
<path d="M14.5571 9.15278L11.7596 11.8443C11.6181 11.9805 11.4352 12.0488 11.2523 12.0488C11.0732 12.0488 10.8941 11.9834 10.7535 11.8524L7.96362 9.25268L1.07445 15.8931C1.24196 15.9533 1.42177 16 1.61006 16H20.8946C21.1743 16 21.4365 15.9148 21.6645 15.7878L14.5571 9.15278Z" fill="white"/>
<path d="M11.2442 10.3095L21.7023 0.235219C21.4655 0.0944389 21.1899 0 20.8945 0H1.60991C1.22523 0 0.872738 0.149366 0.598202 0.377171L11.2442 10.3095Z" fill="white"/>
<path d="M0 1.85512V14.3902C0 14.5341 0.0330732 14.6728 0.0689756 14.8054L6.87268 8.25357L0 1.85512Z" fill="white"/>
</svg>
