<svg width="152" height="26" viewBox="0 0 152 26" fill="none" xmlns="http://www.w3.org/2000/svg">
<g opacity="0.3" clip-path="url(#clip0)">
<path fill-rule="evenodd" clip-rule="evenodd" d="M0.827637 12.9675H13.3157V0.5C6.41875 0.5 0.827637 6.0819 0.827637 12.9675Z" fill="white"/>
<path fill-rule="evenodd" clip-rule="evenodd" d="M13.3154 5.17529V12.9675H21.1205C21.1205 8.66401 17.626 5.17529 13.3154 5.17529Z" fill="#C2C2C2"/>
<path fill-rule="evenodd" clip-rule="evenodd" d="M25.8035 12.9674H13.3154V25.4349C20.2124 25.4349 25.8035 19.853 25.8035 12.9674Z" fill="white"/>
<path fill-rule="evenodd" clip-rule="evenodd" d="M13.3157 25.4349V12.9674H0.827637C0.827637 19.853 6.41875 25.4349 13.3157 25.4349Z" fill="#D1D1D1"/>
<path fill-rule="evenodd" clip-rule="evenodd" d="M35.8246 15.0349C36.3344 15.5235 36.9461 15.7678 37.6802 15.7678C38.4347 15.7678 39.0668 15.5235 39.5765 15.0349C40.1066 14.5463 40.3718 13.956 40.3718 13.2435C40.3718 12.531 40.1066 11.9203 39.5765 11.4317C39.0668 10.9228 38.4347 10.6785 37.6802 10.6785C36.9461 10.6785 36.3344 10.9228 35.8246 11.4317C35.3149 11.9203 35.0702 12.531 35.0702 13.2435C35.0702 13.956 35.3149 14.5463 35.8246 15.0349ZM33.4797 9.47741C34.4585 8.4392 35.6819 7.93027 37.1297 7.93027C38.6793 7.93027 39.8824 8.56134 40.1882 9.45705V8.11348H43.2264V16.6634C43.2264 19.0453 42.839 20.5924 41.432 21.6713C40.4329 22.4652 39.1891 22.8521 37.7006 22.8521C35.7023 22.8521 34.0303 22.3634 32.6641 21.4067L34.1118 19.2081C35.1518 19.8595 36.1916 20.1853 37.2724 20.1853C38.1491 20.1853 38.8628 20.002 39.3726 19.656C39.964 19.2488 40.2698 18.4956 40.2698 17.4167V17.1928C39.8416 17.9256 38.6182 18.4346 37.1297 18.4346C35.6819 18.4346 34.4585 17.9459 33.4797 16.9485C32.5214 15.951 32.032 14.7092 32.032 13.2435C32.032 11.7574 32.5214 10.4953 33.4797 9.47741Z" fill="white"/>
<path fill-rule="evenodd" clip-rule="evenodd" d="M52.1196 12.0627C52.1196 11.1059 51.1204 10.3527 49.8969 10.3527C48.5716 10.3527 47.4909 11.1059 47.4093 12.0627H52.1196ZM44.3303 13.2231C44.3303 11.6149 44.8605 10.312 45.9004 9.33484C46.9403 8.33739 48.2861 7.84882 49.8969 7.84882C51.4671 7.84882 52.7313 8.35774 53.7101 9.3552C54.6888 10.3527 55.1782 11.5742 55.1782 13.0602C55.1782 13.4063 55.1577 13.732 55.1374 14.0373H47.3685C47.4297 15.2588 48.49 16.0527 50.1009 16.0527C51.0593 16.0527 51.8952 15.727 52.609 15.0552L54.3829 16.7449C53.1798 17.9866 51.6914 18.6177 49.9582 18.6177C48.2657 18.6177 46.9199 18.1291 45.88 17.1723C44.8401 16.1952 44.3303 14.9127 44.3303 13.3045V13.2231Z" fill="white"/>
<path fill-rule="evenodd" clip-rule="evenodd" d="M56.2567 18.3734V8.11336H59.2949V9.39587C59.6824 8.5002 60.7222 7.88943 61.9661 7.88943C63.3526 7.88943 64.2906 8.43913 64.7597 9.51801C65.3305 8.43913 66.4724 7.88943 68.1853 7.88943C70.5302 7.88943 71.8352 9.4773 71.8352 12.1441V18.3734H68.797V12.5105C68.797 11.3094 68.2464 10.5766 67.2677 10.5766C66.2685 10.5766 65.5548 11.4112 65.5548 12.6123V18.3734H62.5166V12.5105C62.5166 11.3094 61.9661 10.5766 60.9874 10.5766C60.0086 10.5766 59.2949 11.4112 59.2949 12.6123V18.3734H56.2567Z" fill="white"/>
<path fill-rule="evenodd" clip-rule="evenodd" d="M76.711 15.1569C77.2207 15.6658 77.8529 15.9305 78.6074 15.9305C79.3618 15.9305 79.9939 15.6658 80.5037 15.1569C81.0134 14.6276 81.2786 13.9965 81.2786 13.2433C81.2786 12.4901 81.0134 11.859 80.5037 11.3501C79.9939 10.8208 79.3618 10.5562 78.6074 10.5562C77.8529 10.5562 77.2207 10.8208 76.711 11.3501C76.2013 11.859 75.9362 12.4901 75.9362 13.2433C75.9362 13.9965 76.2013 14.648 76.711 15.1569ZM82.6447 9.39582C83.7662 10.434 84.3167 11.7165 84.3167 13.2433C84.3167 14.7701 83.7662 16.0526 82.6447 17.1112C81.5232 18.1494 80.1775 18.6786 78.6074 18.6786C77.0169 18.6786 75.6711 18.1494 74.5496 17.1112C73.4485 16.0526 72.8979 14.7701 72.8979 13.2433C72.8979 11.7165 73.4485 10.434 74.5496 9.39582C75.6711 8.3373 77.0169 7.80801 78.6074 7.80801C80.1775 7.80801 81.5232 8.3373 82.6447 9.39582Z" fill="white"/>
<path fill-rule="evenodd" clip-rule="evenodd" d="M88.8214 15.0349C89.3311 15.5235 89.9428 15.7678 90.6769 15.7678C91.4314 15.7678 92.0635 15.5235 92.5732 15.0349C93.1034 14.5463 93.3685 13.956 93.3685 13.2435C93.3685 12.531 93.1034 11.9203 92.5732 11.4317C92.0635 10.9228 91.4314 10.6785 90.6769 10.6785C89.9428 10.6785 89.3311 10.9228 88.8214 11.4317C88.3116 11.9203 88.0669 12.531 88.0669 13.2435C88.0669 13.956 88.3116 14.5463 88.8214 15.0349ZM86.4764 9.47741C87.4552 8.4392 88.6786 7.93027 90.1264 7.93027C91.6761 7.93027 92.8791 8.56134 93.1849 9.45705V8.11348H96.2232V16.6634C96.2232 19.0453 95.8357 20.5924 94.4288 21.6713C93.4297 22.4652 92.1858 22.8521 90.6973 22.8521C88.699 22.8521 87.027 22.3634 85.6608 21.4067L87.1085 19.2081C88.1485 19.8595 89.1884 20.1853 90.2691 20.1853C91.1459 20.1853 91.8595 20.002 92.3693 19.656C92.9607 19.2488 93.2665 18.4956 93.2665 17.4167V17.1928C92.8383 17.9256 91.6149 18.4346 90.1264 18.4346C88.6786 18.4346 87.4552 17.9459 86.4764 16.9485C85.5181 15.951 85.0287 14.7092 85.0287 13.2435C85.0287 11.7574 85.5181 10.4953 86.4764 9.47741Z" fill="white"/>
<path fill-rule="evenodd" clip-rule="evenodd" d="M97.7728 18.3734V8.11336H100.811V9.51801C101.28 8.47984 102.381 7.88943 103.788 7.88943C103.992 7.88943 104.257 7.90979 104.583 7.95051V10.8005C104.277 10.7394 103.931 10.6987 103.564 10.6987C101.831 10.6987 100.811 11.6759 100.811 13.3655V18.3734H97.7728Z" fill="white"/>
<path fill-rule="evenodd" clip-rule="evenodd" d="M112.272 15.0756C112.802 14.5667 113.067 13.956 113.067 13.2435C113.067 12.531 112.802 11.9203 112.272 11.4317C111.762 10.9228 111.13 10.6785 110.376 10.6785C109.642 10.6785 109.03 10.9228 108.52 11.4317C108.011 11.9203 107.766 12.531 107.766 13.2435C107.766 13.956 108.011 14.5667 108.52 15.0756C109.03 15.5642 109.642 15.8085 110.376 15.8085C111.13 15.8085 111.762 15.5642 112.272 15.0756ZM112.884 9.45705V8.11348H115.922V18.3735H112.884V17.0299C112.578 17.9256 111.375 18.5567 109.825 18.5567C108.378 18.5567 107.154 18.0478 106.175 17.0299C105.217 15.9917 104.728 14.7296 104.728 13.2435C104.728 11.7574 105.217 10.4953 106.175 9.47741C107.154 8.4392 108.378 7.93027 109.825 7.93027C111.375 7.93027 112.578 8.56134 112.884 9.45705Z" fill="white"/>
<path fill-rule="evenodd" clip-rule="evenodd" d="M124.913 15.0756C125.423 14.5667 125.668 13.956 125.668 13.2435C125.668 12.531 125.423 11.9203 124.913 11.4317C124.404 10.9228 123.792 10.6785 123.058 10.6785C122.303 10.6785 121.671 10.9228 121.141 11.4317C120.631 11.9203 120.366 12.531 120.366 13.2435C120.366 13.956 120.631 14.5667 121.141 15.0756C121.671 15.5642 122.303 15.8085 123.058 15.8085C123.792 15.8085 124.404 15.5642 124.913 15.0756ZM117.512 22.3024V8.11348H120.55V9.45705C120.856 8.56134 122.059 7.93027 123.608 7.93027C125.056 7.93027 126.28 8.4392 127.238 9.47741C128.217 10.4953 128.706 11.7574 128.706 13.2435C128.706 14.7296 128.217 15.9917 127.238 17.0299C126.28 18.0478 125.056 18.5567 123.608 18.5567C122.059 18.5567 120.856 17.9256 120.55 17.0299V22.3024H117.512Z" fill="white"/>
<path fill-rule="evenodd" clip-rule="evenodd" d="M129.847 18.3733V4.18442H132.885V9.35513C133.293 8.45947 134.394 7.88942 135.76 7.88942C138.187 7.88942 139.573 9.47727 139.573 12.1441V18.3733H136.535V12.5105C136.535 11.3094 135.903 10.5766 134.781 10.5766C133.66 10.5766 132.885 11.4112 132.885 12.6123V18.3733H129.847Z" fill="white"/>
<path fill-rule="evenodd" clip-rule="evenodd" d="M144.04 18.5566L139.738 8.11337H142.898L145.63 14.9534L148.404 8.11337H151.564L145.508 22.3227H142.388L144.04 18.5566Z" fill="white"/>
</g>
<defs>
<clipPath id="clip0">
<rect width="150.735" height="25" fill="white" transform="translate(0.827637 0.5)"/>
</clipPath>
</defs>
</svg>
