<svg width="151" height="26" viewBox="0 0 151 26" fill="none" xmlns="http://www.w3.org/2000/svg">
<g clip-path="url(#clip0)">
<path fill-rule="evenodd" clip-rule="evenodd" d="M0 12.9675H12.4881V0.5C5.59111 0.5 0 6.0819 0 12.9675Z" fill="#614FE7"/>
<path fill-rule="evenodd" clip-rule="evenodd" d="M12.488 5.17532V12.9675H20.2931C20.2931 8.66404 16.7986 5.17532 12.488 5.17532Z" fill="#8E82EE"/>
<path fill-rule="evenodd" clip-rule="evenodd" d="M24.9761 12.9675H12.488V25.4351C19.385 25.4351 24.9761 19.8532 24.9761 12.9675Z" fill="#614FE7"/>
<path fill-rule="evenodd" clip-rule="evenodd" d="M12.4881 25.4351V12.9675H0C0 19.8532 5.59111 25.4351 12.4881 25.4351Z" fill="#4D3BD8"/>
<path fill-rule="evenodd" clip-rule="evenodd" d="M34.9985 15.0348C35.5082 15.5234 36.1199 15.7677 36.854 15.7677C37.6085 15.7677 38.2406 15.5234 38.7503 15.0348C39.2805 14.5462 39.5456 13.9559 39.5456 13.2434C39.5456 12.5309 39.2805 11.9202 38.7503 11.4316C38.2406 10.9227 37.6085 10.6784 36.854 10.6784C36.1199 10.6784 35.5082 10.9227 34.9985 11.4316C34.4887 11.9202 34.244 12.5309 34.244 13.2434C34.244 13.9559 34.4887 14.5462 34.9985 15.0348ZM32.6536 9.47732C33.6323 8.4391 34.8557 7.93018 36.3035 7.93018C37.8532 7.93018 39.0562 8.56125 39.3621 9.45696V8.11339H42.4003V16.6633C42.4003 19.0452 42.0129 20.5923 40.6059 21.6712C39.6068 22.4651 38.363 22.852 36.8744 22.852C34.8761 22.852 33.2041 22.3633 31.8379 21.4066L33.2857 19.208C34.3256 19.8594 35.3655 20.1852 36.4462 20.1852C37.323 20.1852 38.0367 20.0019 38.5464 19.6559C39.1378 19.2487 39.4437 18.4955 39.4437 17.4166V17.1927C39.0155 17.9255 37.792 18.4345 36.3035 18.4345C34.8557 18.4345 33.6323 17.9458 32.6536 16.9484C31.6952 15.9509 31.2058 14.7091 31.2058 13.2434C31.2058 11.7573 31.6952 10.4952 32.6536 9.47732Z" fill="#614FE7"/>
<path fill-rule="evenodd" clip-rule="evenodd" d="M51.2906 12.0627C51.2906 11.1059 50.2915 10.3527 49.068 10.3527C47.7426 10.3527 46.6619 11.1059 46.5803 12.0627H51.2906ZM43.5013 13.223C43.5013 11.6149 44.0315 10.312 45.0714 9.33481C46.1114 8.33736 47.4571 7.84879 49.068 7.84879C50.6381 7.84879 51.9023 8.35771 52.8811 9.35517C53.8598 10.3527 54.3492 11.5741 54.3492 13.0602C54.3492 13.4062 54.3288 13.7319 54.3084 14.0373H46.5396C46.6007 15.2587 47.6611 16.0527 49.2719 16.0527C50.2303 16.0527 51.0663 15.727 51.78 15.0552L53.5539 16.7449C52.3509 17.9866 50.8624 18.6177 49.1292 18.6177C47.4368 18.6177 46.091 18.1291 45.051 17.1723C44.0111 16.1952 43.5013 14.9127 43.5013 13.3045V13.223Z" fill="#614FE7"/>
<path fill-rule="evenodd" clip-rule="evenodd" d="M55.4299 18.3734V8.11336H58.4681V9.39586C58.8556 8.5002 59.8955 7.88943 61.1393 7.88943C62.5259 7.88943 63.4638 8.43913 63.9329 9.51801C64.5038 8.43913 65.6456 7.88943 67.3585 7.88943C69.7034 7.88943 71.0084 9.47729 71.0084 12.1441V18.3734H67.9702V12.5105C67.9702 11.3094 67.4196 10.5766 66.4409 10.5766C65.4417 10.5766 64.7281 11.4112 64.7281 12.6123V18.3734H61.6898V12.5105C61.6898 11.3094 61.1393 10.5766 60.1606 10.5766C59.1818 10.5766 58.4681 11.4112 58.4681 12.6123V18.3734H55.4299Z" fill="#614FE7"/>
<path fill-rule="evenodd" clip-rule="evenodd" d="M75.8817 15.157C76.3914 15.6659 77.0235 15.9305 77.778 15.9305C78.5325 15.9305 79.1646 15.6659 79.6744 15.157C80.1841 14.6277 80.4492 13.9966 80.4492 13.2434C80.4492 12.4902 80.1841 11.8591 79.6744 11.3502C79.1646 10.8209 78.5325 10.5562 77.778 10.5562C77.0235 10.5562 76.3914 10.8209 75.8817 11.3502C75.3719 11.8591 75.1068 12.4902 75.1068 13.2434C75.1068 13.9966 75.3719 14.648 75.8817 15.157ZM81.8154 9.39588C82.9369 10.4341 83.4874 11.7166 83.4874 13.2434C83.4874 14.7702 82.9369 16.0527 81.8154 17.1112C80.6939 18.1495 79.3481 18.6787 77.778 18.6787C76.1875 18.6787 74.8417 18.1495 73.7202 17.1112C72.6192 16.0527 72.0686 14.7702 72.0686 13.2434C72.0686 11.7166 72.6192 10.4341 73.7202 9.39588C74.8417 8.33736 76.1875 7.80807 77.778 7.80807C79.3481 7.80807 80.6939 8.33736 81.8154 9.39588Z" fill="#614FE7"/>
<path fill-rule="evenodd" clip-rule="evenodd" d="M87.9937 15.0348C88.5034 15.5234 89.1152 15.7677 89.8493 15.7677C90.6037 15.7677 91.2359 15.5234 91.7456 15.0348C92.2757 14.5462 92.5409 13.9559 92.5409 13.2434C92.5409 12.5309 92.2757 11.9202 91.7456 11.4316C91.2359 10.9227 90.6037 10.6784 89.8493 10.6784C89.1152 10.6784 88.5034 10.9227 87.9937 11.4316C87.484 11.9202 87.2393 12.5309 87.2393 13.2434C87.2393 13.9559 87.484 14.5462 87.9937 15.0348ZM85.6488 9.47732C86.6276 8.4391 87.8509 7.93018 89.2987 7.93018C90.8484 7.93018 92.0515 8.56125 92.3573 9.45696V8.11339H95.3955V16.6633C95.3955 19.0452 95.0081 20.5923 93.6011 21.6712C92.602 22.4651 91.3582 22.852 89.8697 22.852C87.8714 22.852 86.1993 22.3633 84.8332 21.4066L86.2809 19.208C87.3208 19.8594 88.3607 20.1852 89.4415 20.1852C90.3182 20.1852 91.0319 20.0019 91.5417 19.6559C92.1331 19.2487 92.4389 18.4955 92.4389 17.4166V17.1927C92.0107 17.9255 90.7873 18.4345 89.2987 18.4345C87.8509 18.4345 86.6276 17.9458 85.6488 16.9484C84.6904 15.9509 84.201 14.7091 84.201 13.2434C84.201 11.7573 84.6904 10.4952 85.6488 9.47732Z" fill="#614FE7"/>
<path fill-rule="evenodd" clip-rule="evenodd" d="M96.9451 18.3734V8.11336H99.9832V9.51801C100.452 8.47984 101.553 7.88943 102.96 7.88943C103.164 7.88943 103.429 7.90979 103.756 7.95051V10.8005C103.45 10.7394 103.103 10.6987 102.736 10.6987C101.003 10.6987 99.9832 11.6759 99.9832 13.3655V18.3734H96.9451Z" fill="#614FE7"/>
<path fill-rule="evenodd" clip-rule="evenodd" d="M111.443 15.0755C111.973 14.5666 112.238 13.9559 112.238 13.2434C112.238 12.5309 111.973 11.9202 111.443 11.4316C110.933 10.9227 110.301 10.6784 109.547 10.6784C108.813 10.6784 108.201 10.9227 107.691 11.4316C107.181 11.9202 106.937 12.5309 106.937 13.2434C106.937 13.9559 107.181 14.5666 107.691 15.0755C108.201 15.5641 108.813 15.8084 109.547 15.8084C110.301 15.8084 110.933 15.5641 111.443 15.0755ZM112.055 9.45696V8.11339H115.093V18.3734H112.055V17.0298C111.749 17.9255 110.546 18.5566 108.996 18.5566C107.548 18.5566 106.325 18.0477 105.346 17.0298C104.388 15.9916 103.899 14.7295 103.899 13.2434C103.899 11.7573 104.388 10.4952 105.346 9.47732C106.325 8.4391 107.548 7.93018 108.996 7.93018C110.546 7.93018 111.749 8.56125 112.055 9.45696Z" fill="#614FE7"/>
<path fill-rule="evenodd" clip-rule="evenodd" d="M124.085 15.0755C124.595 14.5666 124.839 13.9559 124.839 13.2434C124.839 12.5309 124.595 11.9202 124.085 11.4316C123.575 10.9227 122.964 10.6784 122.229 10.6784C121.475 10.6784 120.843 10.9227 120.313 11.4316C119.803 11.9202 119.538 12.5309 119.538 13.2434C119.538 13.9559 119.803 14.5666 120.313 15.0755C120.843 15.5641 121.475 15.8084 122.229 15.8084C122.964 15.8084 123.575 15.5641 124.085 15.0755ZM116.683 22.3023V8.11339H119.721V9.45696C120.027 8.56125 121.23 7.93018 122.78 7.93018C124.228 7.93018 125.451 8.4391 126.41 9.47732C127.388 10.4952 127.878 11.7573 127.878 13.2434C127.878 14.7295 127.388 15.9916 126.41 17.0298C125.451 18.0477 124.228 18.5566 122.78 18.5566C121.23 18.5566 120.027 17.9255 119.721 17.0298V22.3023H116.683Z" fill="#614FE7"/>
<path fill-rule="evenodd" clip-rule="evenodd" d="M129.02 18.3734V4.18445H132.058V9.35516C132.466 8.4595 133.567 7.88945 134.933 7.88945C137.359 7.88945 138.746 9.47731 138.746 12.1441V18.3734H135.708V12.5105C135.708 11.3094 135.076 10.5766 133.954 10.5766C132.833 10.5766 132.058 11.4112 132.058 12.6123V18.3734H129.02Z" fill="#614FE7"/>
<path fill-rule="evenodd" clip-rule="evenodd" d="M143.211 18.5566L138.909 8.11337H142.069L144.802 14.9534L147.575 8.11337H150.736L144.68 22.3227H141.56L143.211 18.5566Z" fill="#614FE7"/>
</g>
<defs>
<clipPath id="clip0">
<rect width="150.735" height="25" fill="white" transform="translate(0 0.5)"/>
</clipPath>
</defs>
</svg>
