<svg width="31" height="30" viewBox="0 0 31 30" fill="none" xmlns="http://www.w3.org/2000/svg">
<path d="M16.4058 0C18.1157 2.47645 19.4481 5.19326 20.3595 8.06132C22.445 7.73417 24.4536 7.03054 26.2874 5.98488L26.8256 5.65116C24.2726 2.42025 20.5063 0.37761 16.4058 0Z" fill="#45B1FF"/>
<path d="M18.7835 10.479C17.5328 10.6222 16.2749 10.6941 15.0161 10.6942C13.7572 10.694 12.4993 10.6222 11.2486 10.479C10.9829 11.6108 10.8137 12.7631 10.7427 13.9235H19.2895C19.2185 12.7631 19.0492 11.6108 18.7835 10.479Z" fill="#45B1FF"/>
<path d="M15.0161 21.4585C13.9555 21.4595 12.8956 21.5144 11.8406 21.6232C12.6167 23.9406 13.6838 26.1502 15.0161 28.1991C16.3484 26.1502 17.4154 23.9406 18.1916 21.6232C17.1366 21.5144 16.0767 21.4595 15.0161 21.4585Z" fill="#45B1FF"/>
<path d="M21.4337 16.0764C21.3681 17.3465 21.1964 18.6089 20.9202 19.8504C23.2121 20.2311 25.4162 21.0232 27.4262 22.1884L28.0344 22.5673C29.1888 20.5853 29.8723 18.3645 30.0322 16.0764H21.4337Z" fill="#45B1FF"/>
<path d="M28.0344 7.43375L27.4262 7.81268C25.4166 8.97976 23.2125 9.77365 20.9202 10.1561C21.196 11.3954 21.3677 12.6556 21.4337 13.9235H30.0322C29.8721 11.6358 29.1886 9.41546 28.0344 7.43375Z" fill="#45B1FF"/>
<path d="M10.7427 16.0764C10.8143 17.2369 10.9842 18.3893 11.2507 19.521C13.7542 19.235 16.2821 19.235 18.7857 19.521C19.0507 18.3891 19.2193 17.2367 19.2895 16.0764H10.7427Z" fill="#45B1FF"/>
<path d="M2.606 7.81268L1.9978 7.43375C0.843584 9.41546 0.160076 11.6358 0 13.9235H8.59851C8.66448 12.6556 8.83622 11.3953 9.11197 10.1561C6.81976 9.77365 4.61559 8.97976 2.606 7.81268Z" fill="#45B1FF"/>
<path d="M9.67272 21.9397C7.58744 22.267 5.57892 22.9701 3.74486 24.0151L3.20667 24.3498C5.75943 27.5809 9.52595 29.6233 13.6264 30C11.9163 27.524 10.5839 24.8076 9.67272 21.9397Z" fill="#45B1FF"/>
<path d="M15.0161 1.80196C13.684 3.85053 12.617 6.05974 11.8406 8.37674C12.8956 8.48611 13.9555 8.54104 15.0161 8.54142C16.0767 8.54104 17.1366 8.48605 18.1916 8.37674C17.4152 6.05974 16.3482 3.85053 15.0161 1.80196Z" fill="#45B1FF"/>
<path d="M26.2874 24.015C24.4533 22.9702 22.4448 22.267 20.3595 21.9396C19.4474 24.8077 18.1139 27.5241 16.4026 29.9999C20.5031 29.6231 24.2696 27.5808 26.8224 24.3497L26.2874 24.015Z" fill="#45B1FF"/>
<path d="M3.20995 5.65122L3.74492 5.98493C5.57873 7.03059 7.58732 7.73416 9.67278 8.06138C10.5851 5.19306 11.9187 2.47631 13.6297 5.243e-05C9.52923 0.3776 5.76297 2.42024 3.20995 5.65122Z" fill="#45B1FF"/>
<path d="M8.59851 16.0764H0C0.159887 18.3645 0.843395 20.5853 1.99786 22.5673L2.60606 22.1884C4.61603 21.0232 6.82013 20.2311 9.11197 19.8504C8.83578 18.6089 8.66404 17.3465 8.59851 16.0764Z" fill="#45B1FF"/>
</svg>
