<svg width="34" height="30" viewBox="0 0 34 30" fill="none" xmlns="http://www.w3.org/2000/svg">
<path d="M24.9558 0C23.1117 0 21.4211 0.584336 19.931 1.73681C18.5023 2.8417 17.5511 4.24898 16.9911 5.2723C16.4312 4.24892 15.48 2.8417 14.0513 1.73681C12.5612 0.584336 10.8706 0 9.02655 0C3.88062 0 0 4.20909 0 9.79075C0 15.8209 4.84135 19.9466 12.1705 26.1924C13.4151 27.2531 14.8258 28.4553 16.2921 29.7376C16.4854 29.9068 16.7336 30 16.9911 30C17.2487 30 17.4969 29.9068 17.6902 29.7376C19.1566 28.4552 20.5673 27.253 21.8126 26.1917C29.141 19.9466 33.9823 15.8209 33.9823 9.79075C33.9823 4.20909 30.1017 0 24.9558 0Z" fill="#FF6ABB"/>
</svg>
