<svg width="450" height="283" viewBox="0 0 450 283" fill="none" xmlns="http://www.w3.org/2000/svg">
<rect width="450" height="282.065" rx="4" fill="white"/>
<path d="M0 4C0 1.79086 1.79086 0 4 0H446C448.209 0 450 1.79086 450 4V28.9689H0V4Z" fill="#E4E4E4"/>
<rect x="60.3262" y="9.1481" width="381.522" height="12.1974" rx="6" fill="white"/>
<ellipse cx="15.4892" cy="14.4844" rx="4.07609" ry="3.81169" fill="#EA4E4E"/>
<ellipse cx="30.163" cy="14.4844" rx="4.07609" ry="3.81169" fill="#FFC700"/>
<ellipse cx="44.8368" cy="14.4844" rx="4.07609" ry="3.81169" fill="#00D823"/>
<line y1="50.0436" x2="450" y2="50.0436" stroke="black" stroke-opacity="0.14"/>
<line x1="73.5" y1="50" x2="73.5" y2="282" stroke="black" stroke-opacity="0.14"/>
<rect x="98" y="91" width="103" height="45" rx="4" fill="#EBEBEB"/>
<rect x="106" y="98" width="23" height="3" rx="1.5" fill="#D6D6D6"/>
<rect x="134" y="98" width="40" height="3" rx="1.5" fill="#D6D6D6"/>
<rect x="106" y="105" width="41" height="3" rx="1.5" fill="#D6D6D6"/>
<rect x="152" y="105" width="41" height="3" rx="1.5" fill="#D6D6D6"/>
<rect x="106" y="112" width="45.6522" height="3.26087" rx="1.63043" fill="#D6D6D6"/>
<rect x="157" y="112" width="12" height="3" rx="1.5" fill="#D6D6D6"/>
<rect x="174" y="112" width="12" height="3" rx="1.5" fill="#D6D6D6"/>
<rect x="106" y="119" width="28" height="3" rx="1.5" fill="#D6D6D6"/>
<rect x="138" y="119" width="28" height="3" rx="1.5" fill="#D6D6D6"/>
<rect x="106" y="126" width="45.6522" height="3.26087" rx="1.63043" fill="#D6D6D6"/>
<rect x="98" y="179" width="103" height="45" rx="4" fill="#EBEBEB"/>
<rect x="106" y="186" width="23" height="3" rx="1.5" fill="#D6D6D6"/>
<rect x="134" y="186" width="40" height="3" rx="1.5" fill="#D6D6D6"/>
<rect x="106" y="193" width="41" height="3" rx="1.5" fill="#D6D6D6"/>
<rect x="152" y="193" width="41" height="3" rx="1.5" fill="#D6D6D6"/>
<rect x="106" y="200" width="45.6522" height="3.26087" rx="1.63043" fill="#D6D6D6"/>
<rect x="157" y="200" width="12" height="3" rx="1.5" fill="#D6D6D6"/>
<rect x="174" y="200" width="12" height="3" rx="1.5" fill="#D6D6D6"/>
<rect x="106" y="207" width="28" height="3" rx="1.5" fill="#D6D6D6"/>
<rect x="138" y="207" width="28" height="3" rx="1.5" fill="#D6D6D6"/>
<rect x="106" y="214" width="45.6522" height="3.26087" rx="1.63043" fill="#D6D6D6"/>
<rect x="238" y="91" width="103" height="45" rx="4" fill="#EBEBEB"/>
<rect x="246" y="98" width="23" height="3" rx="1.5" fill="#D6D6D6"/>
<rect x="274" y="98" width="40" height="3" rx="1.5" fill="#D6D6D6"/>
<rect x="246" y="105" width="41" height="3" rx="1.5" fill="#D6D6D6"/>
<rect x="292" y="105" width="41" height="3" rx="1.5" fill="#D6D6D6"/>
<rect x="246" y="112" width="45.6522" height="3.26087" rx="1.63043" fill="#D6D6D6"/>
<rect x="297" y="112" width="12" height="3" rx="1.5" fill="#D6D6D6"/>
<rect x="314" y="112" width="12" height="3" rx="1.5" fill="#D6D6D6"/>
<rect x="246" y="119" width="28" height="3" rx="1.5" fill="#D6D6D6"/>
<rect x="278" y="119" width="28" height="3" rx="1.5" fill="#D6D6D6"/>
<rect x="246" y="126" width="45.6522" height="3.26087" rx="1.63043" fill="#D6D6D6"/>
<rect x="11.4131" y="71.7393" width="45.6522" height="3.26087" rx="1.63043" fill="#D6D6D6"/>
<rect x="410.87" y="37.5001" width="26.087" height="3.26087" rx="1.63043" fill="#D6D6D6"/>
<rect x="379.891" y="37.5001" width="22.8261" height="3.26087" rx="1.63043" fill="#D6D6D6"/>
<rect x="348.913" y="37.5001" width="22.8261" height="3.26087" rx="1.63043" fill="#D6D6D6"/>
<rect x="11.4131" y="91.3045" width="45.6522" height="3.26087" rx="1.63043" fill="#D6D6D6"/>
<rect x="11.4131" y="110.87" width="45.6522" height="3.26087" rx="1.63043" fill="#D6D6D6"/>
<rect x="11.4131" y="128.804" width="45.6522" height="3.26087" rx="1.63043" fill="#39D0FF"/>
<rect x="11.4131" y="146.739" width="45.6522" height="3.26087" rx="1.63043" fill="#D6D6D6"/>
<rect x="11.4131" y="164.674" width="45.6522" height="3.26087" rx="1.63043" fill="#D6D6D6"/>
<rect x="97.8262" y="81.5219" width="30.9783" height="2" rx="1" fill="#A9A9A9"/>
<rect x="6.52197" y="34.2393" width="16.3043" height="9.78261" rx="4" fill="#39D0FF"/>
<rect x="238" y="82" width="19" height="2" rx="1" fill="#A9A9A9"/>
<rect x="262" y="82" width="40" height="2" rx="1" fill="#A9A9A9"/>
<rect x="97.8262" y="169.565" width="30.9783" height="2" rx="1" fill="#A9A9A9"/>
<rect x="239" y="170" width="15" height="2" rx="1" fill="#A9A9A9"/>
<rect x="257" y="170" width="28" height="2" rx="1" fill="#A9A9A9"/>
<rect x="238.543" y="179.848" width="101.717" height="77.2609" rx="3.5" stroke="#DADADA"/>
<line x1="254.848" y1="185.87" x2="254.848" y2="252.718" stroke="#E4E4E4"/>
<line x1="242.935" y1="239.174" x2="326.087" y2="239.174" stroke="#E4E4E4"/>
<path fill-rule="evenodd" clip-rule="evenodd" d="M322.826 191.576C323.547 191.985 323.8 192.9 323.391 193.621L311.712 214.232C310.499 216.372 307.515 216.627 305.958 214.723L302.035 209.928C301.833 209.682 301.456 209.684 301.257 209.933L290.85 222.942C289.756 224.31 287.818 224.658 286.316 223.757L277.115 218.236C276.897 218.105 276.616 218.158 276.461 218.36L262.158 236.954C261.653 237.611 260.711 237.733 260.054 237.228C259.398 236.723 259.275 235.781 259.78 235.125L274.083 216.53C275.167 215.122 277.134 214.749 278.658 215.663L287.86 221.184C288.074 221.313 288.351 221.263 288.507 221.068L298.915 208.059C300.306 206.319 302.946 206.305 304.357 208.029L308.279 212.823C308.502 213.095 308.928 213.059 309.101 212.753L320.781 192.142C321.19 191.421 322.105 191.168 322.826 191.576Z" fill="#39D0FF"/>
</svg>
