<svg width="450" height="283" viewBox="0 0 450 283" fill="none" xmlns="http://www.w3.org/2000/svg">
<path d="M0 6.52175C0 2.91989 2.91988 0 6.52174 0H443.478C447.08 0 450 2.91988 450 6.52174V275.543C450 279.145 447.08 282.065 443.478 282.065H6.52174C2.91988 282.065 0 279.145 0 275.543V6.52175Z" fill="white"/>
<path d="M275.543 70.1087C275.543 66.5068 278.463 63.5869 282.065 63.5869H370.109C373.711 63.5869 376.63 66.5068 376.63 70.1087V171.196C376.63 174.797 373.711 177.717 370.109 177.717H282.065C278.463 177.717 275.543 174.797 275.543 171.196V70.1087Z" fill="#D3D3D3"/>
<path d="M309.783 163.044C309.783 161.243 311.243 159.783 313.044 159.783H342.391C344.192 159.783 345.652 161.243 345.652 163.044V166.304C345.652 168.105 344.192 169.565 342.391 169.565H313.044C311.243 169.565 309.783 168.105 309.783 166.304V163.044Z" fill="#FFE37E"/>
<path d="M285.326 83.1522C285.326 81.3513 286.786 79.8914 288.587 79.8914H366.848C368.649 79.8914 370.109 81.3513 370.109 83.1522V89.674C370.109 91.4749 368.649 92.9349 366.848 92.9349H288.587C286.786 92.9349 285.326 91.4749 285.326 89.674V83.1522Z" fill="white"/>
<path d="M285.326 83.1522C285.326 81.3513 286.786 79.8914 288.587 79.8914H366.848C368.649 79.8914 370.109 81.3513 370.109 83.1522V89.674C370.109 91.4749 368.649 92.9349 366.848 92.9349H288.587C286.786 92.9349 285.326 91.4749 285.326 89.674V83.1522Z" fill="white"/>
<path d="M285.326 83.1522C285.326 81.3513 286.786 79.8914 288.587 79.8914H366.848C368.649 79.8914 370.109 81.3513 370.109 83.1522V89.674C370.109 91.4749 368.649 92.9349 366.848 92.9349H288.587C286.786 92.9349 285.326 91.4749 285.326 89.674V83.1522Z" fill="white"/>
<path d="M285.326 73.3695C285.326 72.469 286.056 71.7391 286.957 71.7391H319.565C320.466 71.7391 321.196 72.469 321.196 73.3695C321.196 74.27 320.466 74.9999 319.565 74.9999H286.957C286.056 74.9999 285.326 74.27 285.326 73.3695Z" fill="#9A9A9A"/>
<path d="M285.326 102.717C285.326 101.817 286.056 101.087 286.957 101.087H319.565C320.466 101.087 321.196 101.817 321.196 102.717C321.196 103.618 320.466 104.348 319.565 104.348H286.957C286.056 104.348 285.326 103.618 285.326 102.717Z" fill="#9A9A9A"/>
<path d="M285.326 112.5C285.326 110.699 286.786 109.239 288.587 109.239H366.848C368.649 109.239 370.109 110.699 370.109 112.5V119.022C370.109 120.823 368.649 122.283 366.848 122.283H288.587C286.786 122.283 285.326 120.823 285.326 119.022V112.5Z" fill="white"/>
<path d="M285.326 112.5C285.326 110.699 286.786 109.239 288.587 109.239H366.848C368.649 109.239 370.109 110.699 370.109 112.5V119.022C370.109 120.823 368.649 122.283 366.848 122.283H288.587C286.786 122.283 285.326 120.823 285.326 119.022V112.5Z" fill="white"/>
<path d="M285.326 112.5C285.326 110.699 286.786 109.239 288.587 109.239H366.848C368.649 109.239 370.109 110.699 370.109 112.5V119.022C370.109 120.823 368.649 122.283 366.848 122.283H288.587C286.786 122.283 285.326 120.823 285.326 119.022V112.5Z" fill="white"/>
<path d="M285.326 132.065C285.326 131.165 286.056 130.435 286.957 130.435H319.565C320.466 130.435 321.196 131.165 321.196 132.065C321.196 132.966 320.466 133.696 319.565 133.696H286.957C286.056 133.696 285.326 132.966 285.326 132.065Z" fill="#9A9A9A"/>
<path d="M285.326 141.848C285.326 140.047 286.786 138.587 288.587 138.587H366.848C368.649 138.587 370.109 140.047 370.109 141.848V148.37C370.109 150.171 368.649 151.63 366.848 151.63H288.587C286.786 151.63 285.326 150.171 285.326 148.37V141.848Z" fill="white"/>
<path d="M285.326 141.848C285.326 140.047 286.786 138.587 288.587 138.587H366.848C368.649 138.587 370.109 140.047 370.109 141.848V148.37C370.109 150.171 368.649 151.63 366.848 151.63H288.587C286.786 151.63 285.326 150.171 285.326 148.37V141.848Z" fill="white"/>
<path d="M285.326 141.848C285.326 140.047 286.786 138.587 288.587 138.587H366.848C368.649 138.587 370.109 140.047 370.109 141.848V148.37C370.109 150.171 368.649 151.63 366.848 151.63H288.587C286.786 151.63 285.326 150.171 285.326 148.37V141.848Z" fill="white"/>
<path d="M73.3696 91.3043C73.3696 89.5033 74.8296 88.0434 76.6305 88.0434H110.87C112.671 88.0434 114.13 89.5033 114.13 91.3043C114.13 93.1052 112.671 94.5651 110.87 94.5651H76.6305C74.8296 94.5651 73.3696 93.1052 73.3696 91.3043Z" fill="#595959"/>
<path d="M120.652 91.3043C120.652 89.5033 122.112 88.0434 123.913 88.0434H158.152C159.953 88.0434 161.413 89.5033 161.413 91.3043C161.413 93.1052 159.953 94.5651 158.152 94.5651H123.913C122.112 94.5651 120.652 93.1052 120.652 91.3043Z" fill="#595959"/>
<path d="M73.3696 104.348C73.3696 102.547 74.8296 101.087 76.6305 101.087H97.8262C99.6271 101.087 101.087 102.547 101.087 104.348C101.087 106.149 99.6271 107.609 97.8262 107.609H76.6305C74.8296 107.609 73.3696 106.149 73.3696 104.348Z" fill="#595959"/>
<path d="M73.3696 79.8913C73.3696 78.0904 74.8296 76.6305 76.6305 76.6305H135.326C137.127 76.6305 138.587 78.0904 138.587 79.8913C138.587 81.6923 137.127 83.1522 135.326 83.1522H76.6305C74.8296 83.1522 73.3696 81.6923 73.3696 79.8913Z" fill="#595959"/>
<path d="M73.3696 115.761C73.3696 114.86 74.0996 114.13 75.0001 114.13H180.978C181.879 114.13 182.609 114.86 182.609 115.761C182.609 116.661 181.879 117.391 180.978 117.391H75.0001C74.0996 117.391 73.3696 116.661 73.3696 115.761Z" fill="#A2A2A2"/>
<path d="M73.3696 128.804C73.3696 127.904 74.0996 127.174 75.0001 127.174H167.935C168.835 127.174 169.565 127.904 169.565 128.804C169.565 129.705 168.835 130.435 167.935 130.435H75.0001C74.0996 130.435 73.3696 129.705 73.3696 128.804Z" fill="#A2A2A2"/>
<path d="M73.3696 141.848C73.3696 140.947 74.0996 140.217 75.0001 140.217H189.13C190.031 140.217 190.761 140.947 190.761 141.848C190.761 142.748 190.031 143.478 189.13 143.478H75.0001C74.0996 143.478 73.3696 142.748 73.3696 141.848Z" fill="#A2A2A2"/>
<path d="M73.3696 154.891C73.3696 153.991 74.0996 153.261 75.0001 153.261H141.848C142.748 153.261 143.478 153.991 143.478 154.891C143.478 155.792 142.748 156.522 141.848 156.522H75.0001C74.0996 156.522 73.3696 155.792 73.3696 154.891Z" fill="#A2A2A2"/>
<path d="M0 6.52174C0 2.91988 2.91988 0 6.52174 0H443.478C447.08 0 450 2.91988 450 6.52174V30.9783H0V6.52174Z" fill="#E4E4E4"/>
<path d="M60.3262 16.3044C60.3262 12.7026 63.2461 9.78268 66.8479 9.78268H435.326C438.928 9.78268 441.848 12.7026 441.848 16.3044C441.848 19.9063 438.928 22.8262 435.326 22.8262H66.8479C63.2461 22.8262 60.3262 19.9063 60.3262 16.3044Z" fill="white"/>
<path d="M19.5653 15.4892C19.5653 17.7403 17.7403 19.5653 15.4892 19.5653C13.238 19.5653 11.4131 17.7403 11.4131 15.4892C11.4131 13.238 13.238 11.4131 15.4892 11.4131C17.7403 11.4131 19.5653 13.238 19.5653 15.4892Z" fill="#EA4E4E"/>
<path d="M34.2391 15.4892C34.2391 17.7403 32.4142 19.5653 30.163 19.5653C27.9118 19.5653 26.0869 17.7403 26.0869 15.4892C26.0869 13.238 27.9118 11.4131 30.163 11.4131C32.4142 11.4131 34.2391 13.238 34.2391 15.4892Z" fill="#FFC700"/>
<path d="M48.9129 15.4892C48.9129 17.7403 47.088 19.5653 44.8368 19.5653C42.5857 19.5653 40.7607 17.7403 40.7607 15.4892C40.7607 13.238 42.5857 11.4131 44.8368 11.4131C47.088 11.4131 48.9129 13.238 48.9129 15.4892Z" fill="#00D823"/>
<path d="M0 197.283H450V275.543C450 279.145 447.08 282.065 443.478 282.065H6.52174C2.91988 282.065 0 279.145 0 275.543V197.283Z" fill="#E8E8E8"/>
<path d="M125.543 225.815C125.543 232.569 120.069 238.043 113.315 238.043C106.562 238.043 101.087 232.569 101.087 225.815C101.087 219.062 106.562 213.587 113.315 213.587C120.069 213.587 125.543 219.062 125.543 225.815Z" fill="url(#paint0_linear)"/>
<path d="M91.3042 249.457C91.3042 248.556 92.0342 247.826 92.9346 247.826H102.717C103.618 247.826 104.348 248.556 104.348 249.457C104.348 250.357 103.618 251.087 102.717 251.087H92.9346C92.0342 251.087 91.3042 250.357 91.3042 249.457Z" fill="#595959"/>
<path d="M109.239 249.457C109.239 248.556 109.969 247.826 110.87 247.826H133.696C134.596 247.826 135.326 248.556 135.326 249.457C135.326 250.357 134.596 251.087 133.696 251.087H110.87C109.969 251.087 109.239 250.357 109.239 249.457Z" fill="#595959"/>
<path d="M91.3042 258.424C91.3042 257.974 91.6692 257.609 92.1194 257.609H134.511C134.961 257.609 135.326 257.974 135.326 258.424C135.326 258.874 134.961 259.239 134.511 259.239H92.1194C91.6692 259.239 91.3042 258.874 91.3042 258.424Z" fill="#C4C4C4"/>
<path d="M91.3042 266.576C91.3042 266.126 91.6692 265.761 92.1194 265.761H134.511C134.961 265.761 135.326 266.126 135.326 266.576C135.326 267.026 134.961 267.391 134.511 267.391H92.1194C91.6692 267.391 91.3042 267.026 91.3042 266.576Z" fill="#C4C4C4"/>
<path d="M275.543 225.815C275.543 232.569 270.069 238.043 263.315 238.043C256.562 238.043 251.087 232.569 251.087 225.815C251.087 219.062 256.562 213.587 263.315 213.587C270.069 213.587 275.543 219.062 275.543 225.815Z" fill="url(#paint1_linear)"/>
<path d="M241.304 249.457C241.304 248.556 242.034 247.826 242.935 247.826H252.717C253.618 247.826 254.348 248.556 254.348 249.457C254.348 250.357 253.618 251.087 252.717 251.087H242.935C242.034 251.087 241.304 250.357 241.304 249.457Z" fill="#595959"/>
<path d="M259.239 249.457C259.239 248.556 259.969 247.826 260.869 247.826H283.695C284.596 247.826 285.326 248.556 285.326 249.457C285.326 250.357 284.596 251.087 283.695 251.087H260.869C259.969 251.087 259.239 250.357 259.239 249.457Z" fill="#595959"/>
<path d="M241.304 258.424C241.304 257.974 241.669 257.609 242.119 257.609H284.511C284.961 257.609 285.326 257.974 285.326 258.424C285.326 258.874 284.961 259.239 284.511 259.239H242.119C241.669 259.239 241.304 258.874 241.304 258.424Z" fill="#C4C4C4"/>
<path d="M241.304 266.576C241.304 266.126 241.669 265.761 242.119 265.761H284.511C284.961 265.761 285.326 266.126 285.326 266.576C285.326 267.026 284.961 267.391 284.511 267.391H242.119C241.669 267.391 241.304 267.026 241.304 266.576Z" fill="#C4C4C4"/>
<path d="M350.543 225.815C350.543 232.569 345.069 238.043 338.315 238.043C331.562 238.043 326.087 232.569 326.087 225.815C326.087 219.062 331.562 213.587 338.315 213.587C345.069 213.587 350.543 219.062 350.543 225.815Z" fill="url(#paint2_linear)"/>
<path d="M316.304 249.457C316.304 248.556 317.034 247.826 317.935 247.826H327.717C328.618 247.826 329.348 248.556 329.348 249.457C329.348 250.357 328.618 251.087 327.717 251.087H317.935C317.034 251.087 316.304 250.357 316.304 249.457Z" fill="#595959"/>
<path d="M334.239 249.457C334.239 248.556 334.969 247.826 335.87 247.826H358.696C359.596 247.826 360.326 248.556 360.326 249.457C360.326 250.357 359.596 251.087 358.696 251.087H335.87C334.969 251.087 334.239 250.357 334.239 249.457Z" fill="#595959"/>
<path d="M316.304 258.424C316.304 257.974 316.669 257.609 317.119 257.609H359.511C359.961 257.609 360.326 257.974 360.326 258.424C360.326 258.874 359.961 259.239 359.511 259.239H317.119C316.669 259.239 316.304 258.874 316.304 258.424Z" fill="#C4C4C4"/>
<path d="M316.304 266.576C316.304 266.126 316.669 265.761 317.119 265.761H359.511C359.961 265.761 360.326 266.126 360.326 266.576C360.326 267.026 359.961 267.391 359.511 267.391H317.119C316.669 267.391 316.304 267.026 316.304 266.576Z" fill="#C4C4C4"/>
<path d="M200.544 225.815C200.544 232.569 195.069 238.043 188.316 238.043C181.562 238.043 176.087 232.569 176.087 225.815C176.087 219.062 181.562 213.587 188.316 213.587C195.069 213.587 200.544 219.062 200.544 225.815Z" fill="url(#paint3_linear)"/>
<path d="M166.305 249.457C166.305 248.556 167.035 247.826 167.935 247.826H177.718C178.618 247.826 179.348 248.556 179.348 249.457C179.348 250.357 178.618 251.087 177.718 251.087H167.935C167.035 251.087 166.305 250.357 166.305 249.457Z" fill="#595959"/>
<path d="M184.239 249.457C184.239 248.556 184.969 247.826 185.87 247.826H208.696C209.596 247.826 210.326 248.556 210.326 249.457C210.326 250.357 209.596 251.087 208.696 251.087H185.87C184.969 251.087 184.239 250.357 184.239 249.457Z" fill="#595959"/>
<path d="M166.305 258.424C166.305 257.974 166.67 257.609 167.12 257.609H209.511C209.961 257.609 210.326 257.974 210.326 258.424C210.326 258.874 209.961 259.239 209.511 259.239H167.12C166.67 259.239 166.305 258.874 166.305 258.424Z" fill="#C4C4C4"/>
<path d="M166.305 266.576C166.305 266.126 166.67 265.761 167.12 265.761H209.511C209.961 265.761 210.326 266.126 210.326 266.576C210.326 267.026 209.961 267.391 209.511 267.391H167.12C166.67 267.391 166.305 267.026 166.305 266.576Z" fill="#C4C4C4"/>
<path d="M0 48.913H450V50.5434H0V48.913Z" fill="black" fill-opacity="0.08"/>
<path d="M73.3696 40.7609C73.3696 39.8604 74.0996 39.1304 75.0001 39.1304H88.0435C88.944 39.1304 89.674 39.8604 89.674 40.7609C89.674 41.6613 88.944 42.3913 88.0435 42.3913H75.0001C74.0996 42.3913 73.3696 41.6613 73.3696 40.7609Z" fill="#9A9A9A"/>
<path d="M311.413 40.7609C311.413 39.8604 312.143 39.1304 313.044 39.1304H326.087C326.987 39.1304 327.717 39.8604 327.717 40.7609C327.717 41.6613 326.987 42.3913 326.087 42.3913H313.044C312.143 42.3913 311.413 41.6613 311.413 40.7609Z" fill="#9A9A9A"/>
<path d="M334.239 40.7609C334.239 39.8604 334.969 39.1304 335.87 39.1304H348.913C349.814 39.1304 350.544 39.8604 350.544 40.7609C350.544 41.6613 349.814 42.3913 348.913 42.3913H335.87C334.969 42.3913 334.239 41.6613 334.239 40.7609Z" fill="#9A9A9A"/>
<path d="M357.065 40.7609C357.065 39.8604 357.795 39.1304 358.696 39.1304H371.739C372.64 39.1304 373.37 39.8604 373.37 40.7609C373.37 41.6613 372.64 42.3913 371.739 42.3913H358.696C357.795 42.3913 357.065 41.6613 357.065 40.7609Z" fill="#9A9A9A"/>
<defs>
<linearGradient id="paint0_linear" x1="113.315" y1="213.587" x2="113.315" y2="238.043" gradientUnits="userSpaceOnUse">
<stop stop-color="#FFDC61"/>
<stop offset="1" stop-color="#E1B929"/>
</linearGradient>
<linearGradient id="paint1_linear" x1="263.315" y1="213.587" x2="263.315" y2="238.043" gradientUnits="userSpaceOnUse">
<stop stop-color="#FFDC61"/>
<stop offset="1" stop-color="#E1B929"/>
</linearGradient>
<linearGradient id="paint2_linear" x1="338.315" y1="213.587" x2="338.315" y2="238.043" gradientUnits="userSpaceOnUse">
<stop stop-color="#FFDC61"/>
<stop offset="1" stop-color="#E1B929"/>
</linearGradient>
<linearGradient id="paint3_linear" x1="188.316" y1="213.587" x2="188.316" y2="238.043" gradientUnits="userSpaceOnUse">
<stop stop-color="#FFDC61"/>
<stop offset="1" stop-color="#E1B929"/>
</linearGradient>
</defs>
</svg>
