<svg width="122" height="26" viewBox="0 0 122 26" fill="none" xmlns="http://www.w3.org/2000/svg">
<g clip-path="url(#clip0)">
<path d="M21.1608 16.6386H18.1074V8.31039H21.1608V9.29329C21.3873 8.93414 21.6963 8.63431 22.0622 8.41878C22.4782 8.18142 22.9517 8.06331 23.4305 8.07741C23.9234 8.06408 24.4108 8.18495 24.8404 8.42711C25.2357 8.66083 25.5569 9.00158 25.7668 9.41001C26.0241 8.94969 26.4256 8.58675 26.9095 8.3771C27.3709 8.17953 27.8676 8.07758 28.3695 8.07741C28.7716 8.05065 29.1745 8.11459 29.5485 8.26452C29.9225 8.41445 30.2581 8.64652 30.5303 8.94358C31.0529 9.60473 31.3164 10.4338 31.2714 11.2753V16.6386H28.218V12.1081C28.2393 11.7789 28.148 11.4522 27.9591 11.1817C27.8723 11.0742 27.7613 10.9888 27.6351 10.9325C27.509 10.8761 27.3713 10.8504 27.2333 10.8575C27.0924 10.8521 26.9522 10.8793 26.8237 10.9371C26.6951 10.9949 26.5817 11.0816 26.4922 11.1905C26.2924 11.4652 26.1951 11.8012 26.217 12.1401V16.6372H23.1632V12.1067C23.1846 11.7775 23.0935 11.4509 22.9047 11.1803C22.8178 11.0728 22.7067 10.9874 22.5805 10.9311C22.4543 10.8747 22.3165 10.849 22.1784 10.8561C22.0376 10.8507 21.8974 10.8779 21.7688 10.9357C21.6402 10.9935 21.5268 11.0802 21.4373 11.1891C21.2372 11.4637 21.1397 11.7997 21.1617 12.1387L21.1608 16.6386Z" fill="white"/>
<path d="M37.2133 8.0774C37.8406 8.07201 38.4634 8.185 39.0489 8.41043C39.5946 8.61948 40.0936 8.9343 40.5172 9.33682C40.9392 9.74366 41.2748 10.2314 41.5041 10.7708C41.7333 11.3103 41.8515 11.8904 41.8515 12.4766C41.8515 13.0627 41.7333 13.6429 41.5041 14.1823C41.2748 14.7218 40.9392 15.2095 40.5172 15.6163C40.0937 16.019 39.5947 16.3338 39.0489 16.5427C37.8654 16.9867 36.5611 16.9867 35.3776 16.5427C34.8318 16.3339 34.3328 16.0191 33.9093 15.6163C33.4875 15.2094 33.152 14.7217 32.9229 14.1822C32.6938 13.6428 32.5757 13.0627 32.5757 12.4766C32.5757 11.8905 32.6938 11.3104 32.9229 10.771C33.152 10.2315 33.4875 9.74376 33.9093 9.33682C34.3329 8.93423 34.8319 8.61939 35.3776 8.41043C35.9631 8.18496 36.5859 8.07198 37.2133 8.0774ZM37.2133 10.8422C36.9984 10.8407 36.7854 10.8831 36.5875 10.9668C36.3942 11.0493 36.2186 11.1682 36.0701 11.317C35.9197 11.466 35.7975 11.641 35.7093 11.8334C35.6213 12.0358 35.5759 12.2541 35.5759 12.4747C35.5759 12.6954 35.6213 12.9137 35.7093 13.116C35.797 13.3083 35.9185 13.4833 36.0682 13.6325C36.2167 13.7812 36.3923 13.9001 36.5856 13.9827C36.7836 14.0663 36.9965 14.1087 37.2114 14.1072C37.64 14.1051 38.0505 13.9346 38.3546 13.6325C38.5042 13.4832 38.6258 13.3083 38.7135 13.116C38.8015 12.9137 38.8469 12.6954 38.8469 12.4747C38.8469 12.2541 38.8015 12.0358 38.7135 11.8334C38.6258 11.6412 38.5042 11.4663 38.3546 11.317C38.0505 11.0149 37.64 10.8444 37.2114 10.8422" fill="white"/>
<path d="M46.2733 16.6386H43.22V8.31038H46.2733V9.32663C46.4926 8.92965 46.8232 8.6054 47.2243 8.39375C47.6475 8.17753 48.1174 8.06889 48.5926 8.07739C48.9897 8.05738 49.3864 8.1254 49.7541 8.27658C50.1219 8.42776 50.4518 8.65837 50.72 8.95191C51.2678 9.62388 51.5445 10.4764 51.4959 11.342V16.6386H48.442V12.1748C48.4643 11.8273 48.3638 11.483 48.1581 11.2021C48.0624 11.0887 47.9419 10.9989 47.8059 10.9397C47.6699 10.8805 47.5221 10.8535 47.3739 10.8607C47.2227 10.8548 47.0722 10.8832 46.9336 10.9437C46.7949 11.0043 46.6718 11.0955 46.5735 11.2104C46.356 11.4965 46.2493 11.8515 46.2729 12.21L46.2733 16.6386Z" fill="white"/>
<path d="M13.9669 10.6773C13.7376 10.1489 13.4054 9.67154 12.9896 9.27291C12.5617 8.86737 12.058 8.5502 11.5074 8.33956C10.9164 8.11208 10.2878 7.998 9.6546 8.00329C9.56196 8.00329 9.47396 8.0056 9.38457 8.01023L13.7224 0.502319H10.2484C10.1813 0.605448 10.1037 0.701365 10.0168 0.788565C9.86487 0.940163 9.68448 1.06027 9.486 1.14198C9.2888 1.22504 9.07699 1.26788 8.86301 1.26797C8.64586 1.26963 8.43067 1.22675 8.23074 1.14198C8.03557 1.0587 7.8582 0.938725 7.70826 0.788565C7.62142 0.701369 7.54381 0.605452 7.47667 0.502319H4.32139C4.37849 0.80605 4.4697 1.10235 4.59328 1.38562C4.82218 1.91436 5.15447 2.39202 5.57062 2.7905C5.99832 3.19629 6.50206 3.51348 7.05284 3.72383C7.44666 3.87653 7.85865 3.97743 8.27846 4.02399C5.53773 8.79489 0.973877 16.7276 0.973877 16.7276H4.34732L5.5544 14.6385C5.75935 14.9998 6.01571 15.3293 6.31543 15.6168C6.74306 16.0227 7.24682 16.3399 7.79766 16.5502C8.99216 16.9985 10.3087 16.9985 11.5032 16.5502C12.0541 16.34 12.5578 16.0228 12.9854 15.6168C13.6232 14.9858 14.0572 14.1782 14.2314 13.2981C14.4056 12.4181 14.3121 11.506 13.9628 10.6796L13.9669 10.6773ZM11.1655 13.0938C11.0771 13.2879 10.9544 13.4644 10.8033 13.6149C10.6514 13.7666 10.471 13.8867 10.2725 13.9683C10.0751 14.0513 9.86318 14.0942 9.64905 14.0943C9.4319 14.0959 9.21672 14.053 9.01679 13.9683C8.82154 13.8851 8.64415 13.7652 8.4943 13.6149C8.34309 13.4645 8.22037 13.2879 8.13208 13.0938C8.04311 12.8892 7.9972 12.6684 7.9972 12.4453C7.9972 12.2222 8.04311 12.0015 8.13208 11.7969C8.22055 11.6027 8.34325 11.426 8.4943 11.2753C8.64424 11.1251 8.82161 11.0052 9.01679 10.9219C9.21673 10.8372 9.4319 10.7943 9.64905 10.7959C9.86318 10.796 10.0751 10.8389 10.2725 10.9219C10.471 11.0036 10.6513 11.1237 10.8033 11.2753C10.9542 11.4261 11.0769 11.6028 11.1655 11.7969C11.2548 12.0014 11.3009 12.2222 11.3009 12.4453C11.3009 12.6685 11.2548 12.8893 11.1655 13.0938Z" fill="white"/>
<path d="M53.2922 16.552V4.67664H56.3836V9.03668C56.6804 8.66062 57.0611 8.35923 57.4953 8.15662C57.9512 7.94903 58.4474 7.8448 58.9483 7.85137C59.4828 7.84687 60.0115 7.9629 60.4949 8.19088C60.969 8.41597 61.3914 8.73657 61.7358 9.13256C62.096 9.54955 62.3756 10.0298 62.5603 10.549C62.9566 11.6918 62.9566 12.9348 62.5603 14.0776C62.377 14.5949 62.0972 15.0727 61.7358 15.4857C61.3887 15.8787 60.9669 16.1986 60.4949 16.4269C60.0129 16.6602 59.4837 16.7792 58.9483 16.7748C58.4474 16.7815 57.9504 16.687 57.4869 16.4969C57.0494 16.3121 56.6687 16.0147 56.3836 15.6349V16.5511L53.2922 16.552ZM59.7506 12.3105C59.7524 12.0829 59.706 11.8575 59.6144 11.6491C59.5257 11.4483 59.3987 11.2668 59.2406 11.1146C59.0819 10.9623 58.8979 10.8389 58.6968 10.75C58.4879 10.6587 58.262 10.6126 58.034 10.6148C57.8032 10.6131 57.5745 10.6592 57.3623 10.75C57.1579 10.8374 56.9708 10.9609 56.8102 11.1146C56.6518 11.2666 56.5248 11.4482 56.4364 11.6491C56.3466 11.8581 56.3002 12.0833 56.3002 12.3108C56.3002 12.5383 56.3466 12.7634 56.4364 12.9725C56.5248 13.1732 56.6518 13.3547 56.8102 13.5065C56.9705 13.6606 57.1576 13.7841 57.3623 13.871C57.5744 13.9623 57.8031 14.0085 58.034 14.0068C58.262 14.009 58.4879 13.9627 58.6968 13.871C58.8981 13.7826 59.0823 13.6592 59.2406 13.5065C59.3987 13.3545 59.5257 13.1731 59.6144 12.9725C59.706 12.7641 59.7524 12.5386 59.7506 12.311" fill="white"/>
<path d="M78.2695 16.552H75.1597V8.0672H78.2695V9.10245C78.4932 8.69824 78.83 8.36808 79.2386 8.15244C79.6693 7.93151 80.1478 7.82014 80.6318 7.8282C81.0364 7.80779 81.4405 7.87706 81.8152 8.03104C82.1898 8.18503 82.5258 8.41992 82.7991 8.71892C83.357 9.40346 83.6388 10.2718 83.5893 11.1535V16.5483H80.4795V12.0044C80.5024 11.65 80.4001 11.2988 80.1904 11.0122C80.0929 10.8967 79.9701 10.8052 79.8316 10.7449C79.693 10.6845 79.5424 10.657 79.3914 10.6643C79.2374 10.6584 79.0839 10.6874 78.9427 10.7492C78.8014 10.8109 78.676 10.9039 78.5757 11.021C78.3541 11.3126 78.2454 11.6746 78.2695 12.04V16.552Z" fill="white"/>
<path d="M104.715 16.5502H101.605V15.5173C101.383 15.9198 101.049 16.2497 100.644 16.4673C100.217 16.6887 99.7406 16.8002 99.2591 16.7915C98.8558 16.8125 98.4529 16.7434 98.0795 16.5893C97.7062 16.4353 97.3718 16.2001 97.1006 15.9008C96.5476 15.214 96.2691 14.3465 96.3188 13.4662V8.06909H99.4291V12.6158C99.4054 12.9686 99.5035 13.3188 99.7071 13.608C99.8023 13.7238 99.9234 13.8156 100.061 13.8761C100.198 13.9365 100.347 13.9638 100.497 13.9558C100.649 13.9606 100.799 13.9311 100.938 13.8694C101.076 13.8077 101.199 13.7155 101.296 13.5996C101.518 13.308 101.627 12.9461 101.602 12.5806V8.06909H104.712L104.715 16.5502Z" fill="white"/>
<path d="M114.232 16.0939C113.793 16.3251 113.324 16.4964 112.839 16.6034C112.225 16.736 111.597 16.7981 110.969 16.7887C110.276 16.7993 109.586 16.6872 108.931 16.4575C108.365 16.258 107.847 15.9424 107.41 15.5311C106.993 15.1306 106.668 14.6443 106.458 14.1059C106.232 13.522 106.119 12.9001 106.127 12.2739C106.121 11.6649 106.231 11.0602 106.451 10.4925C106.654 9.9659 106.963 9.48684 107.359 9.08535C107.755 8.68386 108.23 8.3686 108.754 8.15936C109.319 7.93393 109.922 7.82157 110.53 7.82864C111.106 7.79158 111.684 7.87758 112.225 8.0809C112.765 8.28423 113.256 8.60023 113.665 9.00793C114.439 9.91393 114.832 11.0842 114.762 12.2735C114.762 12.397 114.756 12.5412 114.745 12.7061C114.733 12.871 114.722 12.9982 114.711 13.0878H109.185C109.423 13.8338 110.159 14.207 111.394 14.2073C111.866 14.2091 112.337 14.1549 112.796 14.0456C113.295 13.9189 113.777 13.7339 114.232 13.4944L114.232 16.0939ZM111.836 11.3267C111.827 11.1691 111.786 11.015 111.716 10.8736C111.646 10.7322 111.548 10.6065 111.428 10.5041C111.173 10.3004 110.853 10.1951 110.527 10.2071C110.192 10.198 109.865 10.3059 109.601 10.5124C109.346 10.7163 109.175 11.0057 109.117 11.3267H111.836Z" fill="white"/>
<path d="M115.201 10.1391L119.688 5.47382H119.773V8.06769H121.761V10.5615H119.773V12.852C119.756 13.0138 119.771 13.1773 119.818 13.3331C119.865 13.4889 119.942 13.634 120.045 13.7599C120.266 13.9493 120.553 14.0437 120.844 14.0225C121.005 14.0221 121.165 13.9992 121.319 13.9544C121.474 13.9116 121.622 13.8494 121.761 13.7692V16.3816C121.506 16.5013 121.238 16.5925 120.963 16.6535C120.567 16.7389 120.163 16.7787 119.758 16.7721C119.346 16.794 118.933 16.7314 118.546 16.588C118.158 16.4447 117.805 16.2235 117.506 15.9383C117.218 15.6204 116.996 15.2479 116.854 14.8428C116.713 14.4378 116.654 14.0084 116.682 13.5802V10.5601H115.203L115.201 10.1391Z" fill="white"/>
<path d="M90.294 16.4844C90.7267 16.2941 91.1078 16.0034 91.4057 15.6363V18.7226H94.4998V8.06909H91.4066V8.98575C91.1202 8.60784 90.7391 8.31224 90.3019 8.12884C89.8383 7.93875 89.341 7.84422 88.84 7.85092C88.3046 7.84674 87.7755 7.96577 87.2934 8.19878C86.8216 8.42756 86.3998 8.74762 86.0525 9.14045C85.6899 9.55563 85.4102 10.0365 85.2285 10.5569C84.8316 11.6968 84.8316 12.9373 85.2285 14.0772C85.4128 14.5966 85.6922 15.0771 86.0525 15.4941C86.3968 15.89 86.8193 16.2105 87.2934 16.4353C87.763 16.6501 88.2719 16.7654 88.7881 16.7742C89.3044 16.783 89.8169 16.6849 90.2935 16.4863L90.294 16.4844ZM88.1772 12.9743C88.0876 12.7652 88.0414 12.5401 88.0414 12.3126C88.0414 12.0852 88.0876 11.8601 88.1772 11.651C88.2657 11.4501 88.3927 11.2686 88.551 11.1164C88.7097 10.9641 88.8939 10.8407 89.0952 10.7519C89.304 10.6606 89.5298 10.6145 89.7576 10.6167C89.9884 10.615 90.2171 10.661 90.4292 10.7519C90.6337 10.8392 90.8207 10.9627 90.9814 11.1164C91.1396 11.2686 91.2668 11.4502 91.3556 11.651C91.4452 11.8601 91.4914 12.0852 91.4914 12.3126C91.4914 12.5401 91.4452 12.7652 91.3556 12.9743C91.2667 13.175 91.1396 13.3564 90.9814 13.5084C90.821 13.6625 90.6339 13.786 90.4292 13.8729C90.2172 13.9642 89.9885 14.0104 89.7576 14.0086C89.5297 14.0108 89.3039 13.9646 89.0952 13.8729C88.8937 13.7846 88.7094 13.6611 88.551 13.5084C88.3928 13.3564 88.2658 13.175 88.1772 12.9743Z" fill="white"/>
<path d="M73.3949 8.14134V16.5877H70.354V15.6757C70.0358 16.0463 69.6383 16.3405 69.1908 16.5364C68.7433 16.7323 68.2575 16.8249 67.7694 16.8072C67.2435 16.8107 66.7237 16.6953 66.2487 16.4696C65.7791 16.2468 65.3619 15.9273 65.0245 15.5321C64.6707 15.1151 64.3959 14.6371 64.2134 14.1216C63.8192 12.9866 63.8192 11.7517 64.2134 10.6166C64.3933 10.1 64.6684 9.62158 65.0245 9.20621C65.3651 8.8143 65.7815 8.4954 66.2487 8.26871C66.7222 8.0379 67.2426 7.91935 67.7694 7.92225C68.2703 7.91456 68.7676 8.00911 69.2307 8.20015C69.6685 8.3898 70.0539 8.68253 70.354 9.05336V8.14087L73.3949 8.14134ZM66.9926 12.3647C66.9904 12.5914 67.0365 12.8159 67.1278 13.0234C67.2156 13.2231 67.3415 13.4037 67.4984 13.5551C67.6579 13.7084 67.8439 13.8316 68.0473 13.9188C68.2585 14.0078 68.4853 14.0537 68.7145 14.0537C68.9437 14.0537 69.1706 14.0078 69.3817 13.9188C69.5852 13.8315 69.7713 13.7084 69.9311 13.5551C70.0879 13.4036 70.2138 13.223 70.3016 13.0234C70.391 12.8152 70.437 12.591 70.437 12.3645C70.437 12.138 70.391 11.9138 70.3016 11.7056C70.2139 11.5058 70.088 11.325 69.9311 11.1734C69.7713 11.0203 69.5852 10.8973 69.3817 10.8103C69.1706 10.7212 68.9437 10.6753 68.7145 10.6753C68.4853 10.6753 68.2584 10.7212 68.0473 10.8103C67.8439 10.8972 67.658 11.0203 67.4984 11.1734C67.3413 11.3249 67.2155 11.5057 67.1278 11.7056C67.0365 11.9131 66.9904 12.1376 66.9926 12.3643" fill="white"/>
<path d="M28.3194 21.674V24.9942H29.6627V25.4407H27.8409V21.674H28.3194Z" fill="white"/>
<path d="M32.1987 21.6736L33.7481 25.4407H33.2423L32.8008 24.3485H31.2024L30.7614 25.4407H30.2662L31.8212 21.6736H32.1987ZM31.3756 23.9122H32.6295L31.9995 22.3466L31.3756 23.9122Z" fill="white"/>
<path d="M36.0734 24.5421C36.2359 24.6854 36.4179 24.805 36.6139 24.8974C36.8127 24.9934 37.0306 25.0432 37.2513 25.0428C37.3491 25.0428 37.4466 25.0312 37.5417 25.0081C37.6358 24.9861 37.7253 24.9478 37.8062 24.895C37.8833 24.8442 37.9485 24.7772 37.997 24.6987C38.0477 24.6105 38.0729 24.5099 38.0698 24.4082C38.0732 24.3148 38.0495 24.2223 38.0017 24.1419C37.9541 24.0694 37.8907 24.0087 37.8164 23.964C37.7337 23.9133 37.6452 23.8727 37.5528 23.8431C37.4542 23.8112 37.3513 23.7806 37.2434 23.7505C37.1038 23.7147 36.9638 23.6744 36.8233 23.6296C36.6883 23.5872 36.5604 23.5247 36.4439 23.4443C36.3307 23.3652 36.2369 23.2612 36.1697 23.1405C36.0949 22.9952 36.0587 22.8332 36.0646 22.6699C36.0613 22.5122 36.0965 22.3561 36.167 22.215C36.2335 22.0862 36.3272 21.9734 36.4416 21.8843C36.5591 21.7932 36.692 21.724 36.834 21.68C36.9819 21.633 37.1363 21.6093 37.2916 21.6096C37.4953 21.6073 37.6979 21.6386 37.8914 21.7022C38.0788 21.7666 38.2556 21.8582 38.4162 21.9741V22.53C38.2633 22.3942 38.0917 22.2809 37.9067 22.1937C37.7147 22.1044 37.5052 22.0593 37.2934 22.0617C37.2052 22.062 37.1174 22.0747 37.0327 22.0992C36.9473 22.123 36.8663 22.1602 36.7927 22.2094C36.7224 22.2565 36.6627 22.3179 36.6176 22.3896C36.5716 22.4658 36.5483 22.5536 36.5505 22.6425C36.5463 22.7421 36.5725 22.8407 36.6255 22.9251C36.6788 23.0015 36.7478 23.0657 36.8279 23.1131C36.9176 23.168 37.0142 23.2105 37.1151 23.2396C37.2226 23.272 37.3365 23.3044 37.4542 23.3364C37.5873 23.3725 37.7191 23.4147 37.8497 23.4629C37.976 23.5087 38.0948 23.573 38.2022 23.6537C38.3063 23.7326 38.3927 23.8325 38.4556 23.9469C38.5241 24.0807 38.5574 24.2297 38.5524 24.38C38.5558 24.5479 38.518 24.7141 38.4422 24.864C38.3717 25.0004 38.2725 25.1199 38.1513 25.2142C38.0272 25.3094 37.8869 25.3812 37.7372 25.4263C37.5812 25.4749 37.4188 25.4994 37.2555 25.4991C37.0428 25.4996 36.8314 25.4669 36.6288 25.4022C36.428 25.3386 36.2399 25.2403 36.0729 25.1118L36.0734 24.5421Z" fill="white"/>
<path d="M40.0434 21.674H39.5649V25.4407H40.0434V21.674Z" fill="white"/>
<path d="M41.8036 22.4323V25.4407H41.3353V21.6736H41.8249L43.2145 23.7186L44.592 21.6736H45.0705V25.4407H44.6027V22.4272L43.2951 24.343H43.1098L41.8036 22.4323Z" fill="white"/>
<path d="M47.5287 21.674C47.6956 21.6722 47.8617 21.6968 48.021 21.7468C48.1621 21.791 48.2928 21.8631 48.4055 21.9589C48.5137 22.0527 48.5994 22.1697 48.6561 22.3012C48.7741 22.5965 48.7741 22.9258 48.6561 23.2211C48.5997 23.3519 48.514 23.4679 48.4055 23.5602C48.2923 23.6546 48.1617 23.7259 48.021 23.77C47.8617 23.8198 47.6956 23.8442 47.5287 23.8423H46.8417V25.4407H46.3628V21.674H47.5287ZM46.8417 23.4027H47.5305C47.7205 23.4109 47.9073 23.3519 48.0581 23.2359C48.1226 23.1745 48.174 23.1007 48.2091 23.0188C48.2442 22.937 48.2623 22.8488 48.2623 22.7598C48.2623 22.6707 48.2442 22.5826 48.2091 22.5007C48.174 22.4189 48.1226 22.345 48.0581 22.2836C47.9073 22.1677 47.7205 22.1086 47.5305 22.1169H46.8417V23.4027Z" fill="white"/>
<path d="M50.1708 21.674V24.9942H51.514V25.4407H49.6904V21.674H50.1708Z" fill="white"/>
<path d="M52.9096 21.674H52.4312V25.4407H52.9096V21.674Z" fill="white"/>
<path d="M53.9962 23.5578C53.9941 23.2959 54.0445 23.0362 54.1444 22.794C54.289 22.4418 54.5356 22.1409 54.8526 21.9299C55.1695 21.719 55.5423 21.6076 55.923 21.6101C56.3163 21.6098 56.7006 21.728 57.0259 21.9491V22.4823C56.7101 22.2264 56.3183 22.0826 55.9119 22.0733C55.7194 22.0715 55.5288 22.111 55.3528 22.1891C55.1838 22.2637 55.031 22.3707 54.9031 22.504C54.7735 22.6402 54.6713 22.8 54.602 22.9747C54.4554 23.3483 54.4554 23.7636 54.602 24.1373C54.6714 24.3119 54.7736 24.4717 54.9031 24.6079C55.0311 24.7411 55.1839 24.848 55.3528 24.9228C55.5288 25.0008 55.7194 25.0403 55.9119 25.0386C56.3197 25.0291 56.7137 24.8896 57.0366 24.6403V25.173C56.7025 25.3869 56.3142 25.5008 55.9175 25.5014C55.6587 25.5035 55.4024 25.4522 55.1643 25.3508C54.9363 25.2538 54.7289 25.114 54.5534 24.9391C54.3778 24.7625 54.2388 24.553 54.1444 24.3225C54.0445 24.0804 53.9941 23.8207 53.9962 23.5587" fill="white"/>
<path d="M58.5592 21.674H58.0807V25.4407H58.5592V21.674Z" fill="white"/>
<path d="M59.4735 21.674H62.1531V22.1154H61.0558V25.4407H60.5717V22.115H59.4735V21.674Z" fill="white"/>
<path d="M63.0688 21.674H65.162V22.1154H63.5473V23.2669H65.0486V23.7033H63.5473V25.0002H65.1722V25.4416H63.0688V21.674ZM63.8058 21.3729L64.3065 20.6249H64.8554L64.2579 21.3729H63.8058Z" fill="white"/>
<path d="M69.4289 21.6736L70.9788 25.4407H70.473L70.0311 24.3485H68.433L67.9916 25.4407H67.4965L69.0514 21.6736H69.4289ZM68.6058 23.9122H69.8597L69.2297 22.3466L68.6058 23.9122Z" fill="white"/>
<path d="M76.5533 23.5574C76.5557 23.8138 76.5062 24.0681 76.4079 24.3049C76.3155 24.5283 76.1801 24.7313 76.0095 24.9025C75.8393 25.0723 75.6372 25.2068 75.4148 25.298C75.182 25.394 74.9324 25.4425 74.6806 25.4407H73.4916V21.674H74.6806C74.9324 21.6722 75.182 21.7207 75.4148 21.8167C75.6372 21.908 75.8393 22.0424 76.0095 22.2122C76.1801 22.3834 76.3155 22.5864 76.4079 22.8098C76.5062 23.0466 76.5557 23.3009 76.5533 23.5574ZM76.0586 23.5574C76.0601 23.3641 76.0244 23.1725 75.9535 22.9927C75.8875 22.8227 75.7888 22.6672 75.663 22.5351C75.5386 22.4055 75.3894 22.3022 75.2244 22.2312C75.0488 22.1562 74.8595 22.1187 74.6685 22.121H73.9687V24.9928H74.6685C74.8595 24.9951 75.0488 24.9575 75.2244 24.8825C75.3894 24.8115 75.5386 24.7082 75.663 24.5787C75.7889 24.4466 75.8876 24.2911 75.9535 24.1211C76.0244 23.9413 76.0601 23.7496 76.0586 23.5564" fill="white"/>
<path d="M79.0287 25.4995C78.8166 25.5037 78.6059 25.4652 78.4089 25.3865C78.2364 25.3161 78.082 25.2077 77.9573 25.0692C77.8313 24.9263 77.7367 24.7586 77.6794 24.5769C77.6149 24.3707 77.5836 24.1555 77.5868 23.9395V21.674H78.0657V23.9339C78.0642 24.0868 78.0851 24.2392 78.1278 24.386C78.1656 24.5146 78.2286 24.6344 78.3131 24.7385C78.394 24.8374 78.4972 24.9158 78.6141 24.9673C78.7459 25.0232 78.8879 25.0507 79.031 25.0479C79.1723 25.0504 79.3124 25.0229 79.4423 24.9673C79.5594 24.9159 79.6625 24.8375 79.7434 24.7385C79.8277 24.6343 79.8907 24.5146 79.9287 24.386C79.9713 24.2392 79.9922 24.0868 79.9907 23.9339V21.674H80.4697V23.9395C80.4729 24.1555 80.4416 24.3707 80.3771 24.5769C80.3204 24.7581 80.2269 24.9258 80.1024 25.0692C79.979 25.2079 79.8255 25.3165 79.6535 25.3865C79.457 25.4651 79.2468 25.5035 79.0352 25.4995" fill="white"/>
<path d="M83.3438 21.674H84.5171C84.6783 21.6724 84.8388 21.6951 84.9932 21.7412C85.1287 21.7811 85.2547 21.8479 85.3638 21.9376C85.4661 22.0234 85.5479 22.131 85.6033 22.2526C85.6624 22.3835 85.692 22.5258 85.6899 22.6694C85.6941 22.8319 85.6551 22.9925 85.5769 23.1349C85.498 23.2689 85.3796 23.375 85.2378 23.4388C85.4393 23.4947 85.616 23.6171 85.7392 23.7861C85.8623 23.9551 85.9246 24.1609 85.9159 24.3698C85.9183 24.5255 85.8867 24.6797 85.8233 24.8219C85.7642 24.9523 85.6759 25.0673 85.5653 25.1582C85.445 25.2542 85.307 25.3255 85.1591 25.368C84.987 25.4182 84.8084 25.4427 84.6292 25.4407H83.3429L83.3438 21.674ZM84.5115 23.2827C84.6943 23.2913 84.8744 23.2361 85.021 23.1266C85.0821 23.0713 85.131 23.0039 85.1644 22.9285C85.1978 22.8532 85.2151 22.7717 85.2151 22.6893C85.2151 22.6069 85.1978 22.5255 85.1644 22.4502C85.131 22.3748 85.0821 22.3074 85.021 22.2521C84.8716 22.1432 84.6893 22.0889 84.5046 22.0983H83.8209V23.2822L84.5115 23.2827ZM84.6246 25.0155C84.8348 25.0267 85.0426 24.9659 85.2137 24.8432C85.2862 24.7847 85.3438 24.7098 85.3817 24.6247C85.4195 24.5395 85.4366 24.4466 85.4314 24.3536C85.4353 24.2614 85.4171 24.1696 85.3783 24.0859C85.3394 24.0021 85.2811 23.9289 85.2082 23.8723C85.0355 23.7482 84.8258 23.6865 84.6134 23.6973H83.8223V25.0155H84.6246Z" fill="white"/>
<path d="M90.6191 23.5578C90.6209 23.8177 90.5686 24.0751 90.4658 24.3138C90.3672 24.5431 90.2266 24.7521 90.0512 24.9298C89.8752 25.1067 89.6669 25.2482 89.4375 25.3467C89.2002 25.4478 88.9449 25.4999 88.6869 25.4999C88.4289 25.4999 88.1736 25.4478 87.9363 25.3467C87.7069 25.2484 87.4985 25.1069 87.3226 24.9298C87.1472 24.7521 87.0066 24.5431 86.908 24.3138C86.805 24.0752 86.7528 23.8177 86.7547 23.5578C86.753 23.2971 86.8051 23.0387 86.908 22.7991C87.0063 22.5687 87.1469 22.3588 87.3226 22.1803C87.4984 22.0031 87.7068 21.8616 87.9363 21.7634C88.1736 21.6621 88.4289 21.6098 88.6869 21.6098C88.9449 21.6098 89.2003 21.6621 89.4375 21.7634C89.6669 21.8617 89.8753 22.0032 90.0512 22.1803C90.2269 22.3588 90.3675 22.5687 90.4658 22.7991C90.5684 23.0388 90.6206 23.2971 90.6191 23.5578ZM90.1295 23.5578C90.1307 23.3594 90.0923 23.1627 90.0165 22.9793C89.945 22.8038 89.8412 22.6434 89.7103 22.5064C89.5801 22.3711 89.4248 22.2624 89.2532 22.1863C89.075 22.1083 88.8826 22.0681 88.6881 22.0681C88.4936 22.0681 88.3012 22.1083 88.123 22.1863C87.9513 22.2623 87.796 22.371 87.6658 22.5064C87.5348 22.6434 87.4308 22.8038 87.3592 22.9793C87.2834 23.1627 87.245 23.3594 87.2461 23.5578C87.2448 23.7554 87.2832 23.9512 87.3592 24.1336C87.4313 24.3081 87.5353 24.4677 87.6658 24.6042C87.796 24.7396 87.9512 24.8483 88.123 24.9243C88.3011 25.0025 88.4935 25.0429 88.6881 25.0429C88.8826 25.0429 89.075 25.0025 89.2532 24.9243C89.4248 24.8482 89.5801 24.7395 89.7103 24.6042C89.8407 24.4677 89.9445 24.3081 90.0165 24.1336C90.0925 23.9512 90.1309 23.7554 90.1295 23.5578Z" fill="white"/>
<path d="M94.9069 21.674V25.4407H94.4548L92.168 22.4003V25.4407H91.7048V21.674H92.1944L94.4437 24.6764V21.674H94.9069Z" fill="white"/>
</g>
<defs>
<clipPath id="clip0">
<rect width="120.787" height="25" fill="white" transform="translate(0.974365 0.5)"/>
</clipPath>
</defs>
</svg>
