<svg width="122" height="26" viewBox="0 0 122 26" fill="none" xmlns="http://www.w3.org/2000/svg">
<g opacity="0.3" clip-path="url(#clip0)">
<path d="M20.9884 16.6386H17.9351V8.31039H20.9884V9.29329C21.2149 8.93414 21.524 8.63431 21.8898 8.41878C22.3059 8.18142 22.7793 8.06331 23.2581 8.07741C23.7511 8.06408 24.2384 8.18495 24.6681 8.42711C25.0634 8.66083 25.3845 9.00158 25.5944 9.41001C25.8517 8.94969 26.2533 8.58675 26.7371 8.3771C27.1985 8.17953 27.6952 8.07758 28.1971 8.07741C28.5992 8.05065 29.0021 8.11459 29.3761 8.26452C29.7502 8.41445 30.0857 8.64652 30.3579 8.94358C30.8805 9.60473 31.144 10.4338 31.0991 11.2753V16.6386H28.0457V12.1081C28.067 11.7789 27.9757 11.4522 27.7867 11.1817C27.6999 11.0742 27.5889 10.9888 27.4628 10.9325C27.3366 10.8761 27.1989 10.8504 27.0609 10.8575C26.9201 10.8521 26.7799 10.8793 26.6513 10.9371C26.5227 10.9949 26.4093 11.0816 26.3198 11.1905C26.12 11.4652 26.0227 11.8012 26.0447 12.1401V16.6372H22.9908V12.1067C23.0123 11.7775 22.9211 11.4509 22.7324 11.1803C22.6455 11.0728 22.5344 10.9874 22.4081 10.9311C22.2819 10.8747 22.1441 10.849 22.0061 10.8561C21.8652 10.8507 21.725 10.8779 21.5965 10.9357C21.4679 10.9935 21.3544 11.0802 21.265 11.1891C21.0649 11.4637 20.9673 11.7997 20.9894 12.1387L20.9884 16.6386Z" fill="white"/>
<path d="M37.0409 8.0774C37.6683 8.07201 38.291 8.185 38.8765 8.41043C39.4222 8.61948 39.9212 8.9343 40.3449 9.33682C40.7668 9.74366 41.1025 10.2314 41.3317 10.7708C41.5609 11.3103 41.6791 11.8904 41.6791 12.4766C41.6791 13.0627 41.5609 13.6429 41.3317 14.1823C41.1025 14.7218 40.7668 15.2095 40.3449 15.6163C39.9213 16.019 39.4223 16.3338 38.8765 16.5427C37.6931 16.9867 36.3888 16.9867 35.2053 16.5427C34.6594 16.3339 34.1604 16.0191 33.7369 15.6163C33.3151 15.2094 32.9797 14.7217 32.7505 14.1822C32.5214 13.6428 32.4033 13.0627 32.4033 12.4766C32.4033 11.8905 32.5214 11.3104 32.7505 10.771C32.9797 10.2315 33.3151 9.74376 33.7369 9.33682C34.1605 8.93423 34.6595 8.61939 35.2053 8.41043C35.7907 8.18496 36.4135 8.07198 37.0409 8.0774ZM37.0409 10.8422C36.826 10.8407 36.6131 10.8831 36.4151 10.9668C36.2218 11.0493 36.0462 11.1682 35.8977 11.317C35.7474 11.466 35.6251 11.641 35.5369 11.8334C35.4489 12.0358 35.4035 12.2541 35.4035 12.4747C35.4035 12.6954 35.4489 12.9137 35.5369 13.116C35.6246 13.3083 35.7462 13.4833 35.8959 13.6325C36.0443 13.7812 36.22 13.9001 36.4133 13.9827C36.6112 14.0663 36.8242 14.1087 37.039 14.1072C37.4676 14.1051 37.8782 13.9346 38.1822 13.6325C38.3318 13.4832 38.4534 13.3083 38.5412 13.116C38.6292 12.9137 38.6746 12.6954 38.6746 12.4747C38.6746 12.2541 38.6292 12.0358 38.5412 11.8334C38.4534 11.6412 38.3318 11.4663 38.1822 11.317C37.8782 11.0149 37.4676 10.8444 37.039 10.8422" fill="white"/>
<path d="M46.101 16.6386H43.0476V8.31038H46.101V9.32663C46.3203 8.92965 46.6508 8.6054 47.0519 8.39375C47.4751 8.17753 47.945 8.06889 48.4202 8.07739C48.8173 8.05738 49.214 8.1254 49.5818 8.27658C49.9496 8.42776 50.2794 8.65837 50.5476 8.95191C51.0954 9.62388 51.3722 10.4764 51.3235 11.342V16.6386H48.2697V12.1748C48.2919 11.8273 48.1914 11.483 47.9857 11.2021C47.8901 11.0887 47.7696 10.9989 47.6335 10.9397C47.4975 10.8805 47.3497 10.8535 47.2015 10.8607C47.0504 10.8548 46.8998 10.8832 46.7612 10.9437C46.6226 11.0043 46.4995 11.0955 46.4011 11.2104C46.1837 11.4965 46.0769 11.8515 46.1005 12.21L46.101 16.6386Z" fill="white"/>
<path d="M13.7947 10.6768C13.5654 10.1485 13.2331 9.67106 12.8174 9.27242C12.3895 8.86689 11.8858 8.54972 11.3351 8.33908C10.7442 8.11159 10.1156 7.99752 9.48236 8.0028C9.38972 8.0028 9.30172 8.00511 9.21232 8.00974L13.5501 0.501831H10.0762C10.009 0.604959 9.93142 0.700877 9.84458 0.788076C9.69263 0.939674 9.51224 1.05978 9.31376 1.14149C9.11656 1.22455 8.90475 1.26739 8.69076 1.26748C8.47361 1.26914 8.25843 1.22626 8.0585 1.14149C7.86333 1.05821 7.68596 0.938236 7.53602 0.788076C7.44918 0.700881 7.37157 0.604963 7.30442 0.501831H4.14914C4.20625 0.805561 4.29746 1.10187 4.42104 1.38513C4.64994 1.91387 4.98223 2.39153 5.39838 2.79001C5.82608 3.19581 6.32982 3.513 6.8806 3.72334C7.27442 3.87604 7.6864 3.97694 8.10622 4.0235C5.36549 8.7944 0.801636 16.7271 0.801636 16.7271H4.17508L5.38216 14.6381C5.58711 14.9993 5.84347 15.3288 6.14319 15.6163C6.57082 16.0222 7.07458 16.3394 7.62541 16.5497C8.81992 16.998 10.1365 16.998 11.331 16.5497C11.8818 16.3395 12.3856 16.0223 12.8132 15.6163C13.451 14.9854 13.885 14.1777 14.0592 13.2977C14.2334 12.4176 14.1398 11.5055 13.7905 10.6791L13.7947 10.6768ZM10.9933 13.0933C10.9049 13.2874 10.7822 13.4639 10.6311 13.6144C10.4792 13.7661 10.2988 13.8862 10.1003 13.9678C9.90289 14.0509 9.69094 14.0937 9.47681 14.0938C9.25966 14.0954 9.04448 14.0526 8.84454 13.9678C8.6493 13.8847 8.47191 13.7647 8.32206 13.6144C8.17085 13.464 8.04813 13.2875 7.95984 13.0933C7.87087 12.8887 7.82496 12.668 7.82496 12.4448C7.82496 12.2217 7.87087 12.001 7.95984 11.7964C8.04831 11.6022 8.171 11.4255 8.32206 11.2748C8.472 11.1246 8.64937 11.0047 8.84454 10.9214C9.04449 10.8367 9.25966 10.7938 9.47681 10.7954C9.69094 10.7955 9.90289 10.8384 10.1003 10.9214C10.2987 11.0032 10.4791 11.1233 10.6311 11.2748C10.782 11.4256 10.9047 11.6023 10.9933 11.7964C11.0826 12.0009 11.1286 12.2217 11.1286 12.4448C11.1286 12.668 11.0826 12.8888 10.9933 13.0933Z" fill="white"/>
<path d="M53.1199 16.552V4.67657H56.2112V9.03662C56.5081 8.66056 56.8888 8.35917 57.3229 8.15656C57.7788 7.94897 58.275 7.84473 58.7759 7.85131C59.3104 7.84681 59.8391 7.96284 60.3226 8.19082C60.7966 8.41591 61.2191 8.73651 61.5634 9.1325C61.9237 9.54949 62.2032 10.0298 62.3879 10.5489C62.7843 11.6918 62.7843 12.9347 62.3879 14.0776C62.2046 14.5949 61.9248 15.0727 61.5634 15.4857C61.2163 15.8786 60.7945 16.1985 60.3226 16.4269C59.8406 16.6601 59.3114 16.7791 58.7759 16.7747C58.2751 16.7815 57.778 16.6869 57.3146 16.4968C56.8771 16.3121 56.4964 16.0146 56.2112 15.6348V16.551L53.1199 16.552ZM59.5782 12.3105C59.5801 12.0828 59.5337 11.8574 59.442 11.649C59.3533 11.4483 59.2263 11.2667 59.0682 11.1145C58.9096 10.9622 58.7255 10.8389 58.5244 10.75C58.3155 10.6587 58.0896 10.6125 57.8616 10.6147C57.6308 10.6131 57.4021 10.6591 57.19 10.75C56.9855 10.8373 56.7985 10.9608 56.6378 11.1145C56.4795 11.2665 56.3525 11.4481 56.264 11.649C56.1742 11.8581 56.1279 12.0832 56.1279 12.3107C56.1279 12.5382 56.1742 12.7634 56.264 12.9724C56.3525 13.1732 56.4795 13.3546 56.6378 13.5064C56.7982 13.6605 56.9853 13.7841 57.19 13.871C57.402 13.9622 57.6307 14.0084 57.8616 14.0067C58.0897 14.0089 58.3156 13.9626 58.5244 13.871C58.7258 13.7825 58.9099 13.6591 59.0682 13.5064C59.2263 13.3544 59.3533 13.173 59.442 12.9724C59.5336 12.764 59.58 12.5386 59.5782 12.3109" fill="white"/>
<path d="M78.0972 16.552H74.9873V8.0672H78.0972V9.10245C78.3209 8.69824 78.6576 8.36808 79.0662 8.15244C79.4969 7.93151 79.9755 7.82014 80.4595 7.8282C80.864 7.80779 81.2681 7.87706 81.6428 8.03104C82.0175 8.18503 82.3535 8.41992 82.6268 8.71892C83.1846 9.40346 83.4665 10.2718 83.417 11.1535V16.5483H80.3071V12.0044C80.3301 11.65 80.2278 11.2988 80.0181 11.0122C79.9206 10.8967 79.7978 10.8052 79.6592 10.7449C79.5206 10.6845 79.37 10.657 79.2191 10.6643C79.065 10.6584 78.9116 10.6874 78.7703 10.7492C78.6291 10.8109 78.5036 10.9039 78.4034 11.021C78.1818 11.3126 78.073 11.6746 78.0972 12.04V16.552Z" fill="white"/>
<path d="M104.542 16.5501H101.432V15.5172C101.21 15.9198 100.877 16.2496 100.472 16.4672C100.044 16.6887 99.5682 16.8001 99.0868 16.7914C98.6834 16.8124 98.2805 16.7433 97.9072 16.5893C97.5338 16.4352 97.1995 16.2 96.9283 15.9007C96.3753 15.214 96.0967 14.3465 96.1464 13.4662V8.06903H99.2568V12.6157C99.2331 12.9685 99.3312 13.3188 99.5347 13.6079C99.6299 13.7237 99.7511 13.8156 99.8883 13.876C100.026 13.9364 100.175 13.9638 100.325 13.9558C100.476 13.9606 100.627 13.931 100.765 13.8693C100.904 13.8076 101.026 13.7154 101.124 13.5996C101.346 13.3079 101.454 12.946 101.43 12.5805V8.06903H104.54L104.542 16.5501Z" fill="white"/>
<path d="M114.06 16.0939C113.62 16.3251 113.151 16.4964 112.666 16.6034C112.052 16.736 111.425 16.7981 110.797 16.7887C110.103 16.7993 109.413 16.6872 108.759 16.4575C108.193 16.258 107.675 15.9424 107.238 15.5311C106.821 15.1306 106.496 14.6443 106.286 14.1059C106.059 13.522 105.947 12.9001 105.954 12.2739C105.948 11.6649 106.058 11.0602 106.279 10.4925C106.481 9.9659 106.79 9.48684 107.186 9.08535C107.583 8.68386 108.058 8.3686 108.582 8.15936C109.146 7.93393 109.75 7.82157 110.358 7.82864C110.934 7.79158 111.512 7.87758 112.052 8.0809C112.593 8.28423 113.084 8.60023 113.493 9.00793C114.267 9.91393 114.659 11.0842 114.589 12.2735C114.589 12.397 114.584 12.5412 114.572 12.7061C114.561 12.871 114.55 12.9982 114.538 13.0878H109.012C109.25 13.8338 109.987 14.207 111.222 14.2073C111.694 14.2091 112.164 14.1549 112.624 14.0456C113.122 13.9189 113.604 13.7339 114.059 13.4944L114.06 16.0939ZM111.663 11.3267C111.654 11.1691 111.614 11.015 111.544 10.8736C111.473 10.7322 111.375 10.6065 111.255 10.5041C111 10.3004 110.681 10.1951 110.355 10.2071C110.02 10.198 109.692 10.3059 109.428 10.5124C109.174 10.7163 109.002 11.0057 108.945 11.3267H111.663Z" fill="white"/>
<path d="M115.029 10.139L119.516 5.47375H119.6V8.06763H121.589V10.5615H119.6V12.852C119.584 13.0138 119.599 13.1773 119.646 13.3331C119.692 13.4889 119.769 13.6339 119.872 13.7598C120.094 13.9493 120.381 14.0437 120.671 14.0225C120.832 14.022 120.992 13.9991 121.147 13.9544C121.301 13.9116 121.45 13.8493 121.589 13.7691V16.3815C121.333 16.5012 121.066 16.5924 120.79 16.6534C120.395 16.7388 119.991 16.7786 119.586 16.772C119.173 16.794 118.761 16.7314 118.373 16.588C117.986 16.4446 117.632 16.2235 117.333 15.9382C117.045 15.6204 116.824 15.2479 116.682 14.8428C116.541 14.4377 116.482 14.0083 116.509 13.5801V10.5601H115.03L115.029 10.139Z" fill="white"/>
<path d="M90.1216 16.4843C90.5543 16.294 90.9354 16.0033 91.2333 15.6362V18.7225H94.3274V8.06903H91.2342V8.98569C90.9478 8.60778 90.5668 8.31218 90.1295 8.12878C89.6659 7.93869 89.1687 7.84416 88.6677 7.85086C88.1323 7.84668 87.6031 7.9657 87.121 8.19872C86.6492 8.4275 86.2275 8.74756 85.8801 9.14039C85.5175 9.55556 85.2378 10.0364 85.0561 10.5568C84.6592 11.6967 84.6592 12.9373 85.0561 14.0771C85.2404 14.5965 85.5199 15.077 85.8801 15.494C86.2245 15.89 86.6469 16.2104 87.121 16.4353C87.5906 16.65 88.0995 16.7654 88.6158 16.7742C89.132 16.7829 89.6446 16.6849 90.1212 16.4862L90.1216 16.4843ZM88.0048 12.9743C87.9153 12.7652 87.8691 12.5401 87.8691 12.3126C87.8691 12.0851 87.9153 11.86 88.0048 11.6509C88.0934 11.4501 88.2204 11.2685 88.3786 11.1164C88.5373 10.964 88.7215 10.8406 88.9229 10.7518C89.1316 10.6605 89.3574 10.6144 89.5852 10.6166C89.8161 10.6149 90.0447 10.661 90.2569 10.7518C90.4613 10.8392 90.6484 10.9627 90.809 11.1164C90.9673 11.2686 91.0944 11.4501 91.1833 11.6509C91.2728 11.86 91.319 12.0851 91.319 12.3126C91.319 12.5401 91.2728 12.7652 91.1833 12.9743C91.0944 13.1749 90.9673 13.3563 90.809 13.5083C90.6487 13.6624 90.4616 13.786 90.2569 13.8729C90.0448 13.9641 89.8161 14.0103 89.5852 14.0086C89.3573 14.0108 89.1315 13.9645 88.9229 13.8729C88.7213 13.7845 88.537 13.6611 88.3786 13.5083C88.2204 13.3564 88.0934 13.1749 88.0048 12.9743Z" fill="white"/>
<path d="M73.2225 8.14127V16.5876H70.1816V15.6756C69.8635 16.0462 69.4659 16.3404 69.0184 16.5363C68.571 16.7322 68.0851 16.8248 67.597 16.8072C67.0711 16.8106 66.5513 16.6952 66.0763 16.4695C65.6068 16.2468 65.1896 15.9273 64.8521 15.532C64.4983 15.115 64.2235 14.6371 64.0411 14.1216C63.6468 12.9865 63.6468 11.7517 64.0411 10.6166C64.221 10.0999 64.4961 9.62152 64.8521 9.20615C65.1927 8.81424 65.6092 8.49534 66.0763 8.26865C66.5499 8.03784 67.0702 7.91929 67.597 7.92219C68.098 7.9145 68.5952 8.00905 69.0584 8.20009C69.4961 8.38974 69.8815 8.68247 70.1816 9.0533V8.14081L73.2225 8.14127ZM66.8202 12.3647C66.8181 12.5913 66.8642 12.8159 66.9555 13.0233C67.0432 13.223 67.1691 13.4036 67.326 13.5551C67.4856 13.7084 67.6715 13.8316 67.8749 13.9187C68.0861 14.0078 68.313 14.0536 68.5421 14.0536C68.7713 14.0536 68.9982 14.0078 69.2094 13.9187C69.4129 13.8315 69.5989 13.7083 69.7587 13.5551C69.9155 13.4035 70.0414 13.2229 70.1293 13.0233C70.2186 12.8152 70.2647 12.591 70.2647 12.3644C70.2647 12.1379 70.2186 11.9137 70.1293 11.7056C70.0415 11.5058 69.9156 11.325 69.7587 11.1733C69.5989 11.0203 69.4128 10.8973 69.2094 10.8102C68.9982 10.7211 68.7713 10.6752 68.5421 10.6752C68.313 10.6752 68.0861 10.7211 67.8749 10.8102C67.6716 10.8972 67.4856 11.0202 67.326 11.1733C67.169 11.3249 67.0431 11.5057 66.9555 11.7056C66.8642 11.913 66.8181 12.1376 66.8202 12.3642" fill="white"/>
<path d="M28.1471 21.674V24.9942H29.4903V25.4407H27.6686V21.674H28.1471Z" fill="white"/>
<path d="M32.0263 21.6735L33.5757 25.4407H33.0699L32.6285 24.3485H31.03L30.589 25.4407H30.0939L31.6488 21.6735H32.0263ZM31.2032 23.9121H32.4571L31.8271 22.3465L31.2032 23.9121Z" fill="white"/>
<path d="M35.901 24.5421C36.0635 24.6854 36.2455 24.805 36.4416 24.8974C36.6403 24.9934 36.8582 25.0432 37.0789 25.0428C37.1768 25.0428 37.2743 25.0312 37.3694 25.0081C37.4634 24.9861 37.5529 24.9478 37.6338 24.895C37.711 24.8442 37.7761 24.7772 37.8247 24.6987C37.8754 24.6105 37.9005 24.5099 37.8974 24.4082C37.9008 24.3148 37.8772 24.2223 37.8293 24.1419C37.7817 24.0694 37.7184 24.0087 37.644 23.964C37.5614 23.9133 37.4729 23.8727 37.3805 23.8431C37.2818 23.8112 37.179 23.7806 37.0711 23.7505C36.9315 23.7147 36.7914 23.6744 36.6509 23.6296C36.5159 23.5872 36.388 23.5247 36.2716 23.4443C36.1583 23.3652 36.0646 23.2612 35.9974 23.1405C35.9225 22.9952 35.8863 22.8332 35.8922 22.6699C35.889 22.5122 35.9241 22.3561 35.9946 22.215C36.0612 22.0862 36.1549 21.9734 36.2693 21.8843C36.3867 21.7932 36.5196 21.724 36.6616 21.68C36.8096 21.633 36.964 21.6093 37.1192 21.6096C37.3229 21.6073 37.5256 21.6386 37.7191 21.7022C37.9064 21.7666 38.0833 21.8582 38.2439 21.9741V22.53C38.0909 22.3942 37.9193 22.2809 37.7343 22.1937C37.5424 22.1044 37.3328 22.0593 37.1211 22.0617C37.0328 22.062 36.9451 22.0747 36.8603 22.0992C36.775 22.123 36.694 22.1602 36.6204 22.2094C36.55 22.2565 36.4903 22.3179 36.4453 22.3896C36.3993 22.4658 36.376 22.5536 36.3781 22.6425C36.374 22.7421 36.4001 22.8407 36.4532 22.9251C36.5064 23.0015 36.5754 23.0657 36.6556 23.1131C36.7452 23.168 36.8418 23.2105 36.9428 23.2396C37.0502 23.272 37.1642 23.3044 37.2818 23.3364C37.4149 23.3725 37.5468 23.4147 37.6774 23.4629C37.8036 23.5087 37.9224 23.573 38.0299 23.6537C38.134 23.7326 38.2203 23.8325 38.2832 23.9469C38.3517 24.0807 38.385 24.2297 38.38 24.38C38.3835 24.5479 38.3456 24.7141 38.2698 24.864C38.1994 25.0004 38.1001 25.1199 37.9789 25.2142C37.8548 25.3094 37.7145 25.3812 37.5648 25.4263C37.4089 25.4749 37.2464 25.4994 37.0831 25.4991C36.8704 25.4996 36.659 25.4669 36.4564 25.4022C36.2556 25.3386 36.0675 25.2403 35.9006 25.1118L35.901 24.5421Z" fill="white"/>
<path d="M39.8711 21.674H39.3926V25.4407H39.8711V21.674Z" fill="white"/>
<path d="M41.6313 22.4322V25.4407H41.163V21.6735H41.6526L43.0421 23.7185L44.4197 21.6735H44.8982V25.4407H44.4303V22.4271L43.1227 24.3429H42.9375L41.6313 22.4322Z" fill="white"/>
<path d="M47.3562 21.674C47.5231 21.6722 47.6893 21.6967 47.8485 21.7467C47.9896 21.791 48.1204 21.8631 48.233 21.9588C48.3412 22.0526 48.4269 22.1696 48.4836 22.3012C48.6016 22.5964 48.6016 22.9258 48.4836 23.2211C48.4272 23.3518 48.3415 23.4679 48.233 23.5601C48.1198 23.6546 47.9892 23.7259 47.8485 23.7699C47.6892 23.8198 47.5231 23.8442 47.3562 23.8422H46.6692V25.4407H46.1903V21.674H47.3562ZM46.6692 23.4026H47.358C47.548 23.4108 47.7348 23.3518 47.8856 23.2359C47.9501 23.1745 48.0015 23.1006 48.0366 23.0188C48.0717 22.9369 48.0898 22.8488 48.0898 22.7597C48.0898 22.6706 48.0717 22.5825 48.0366 22.5007C48.0015 22.4188 47.9501 22.3449 47.8856 22.2836C47.7349 22.1676 47.548 22.1085 47.358 22.1168H46.6692V23.4026Z" fill="white"/>
<path d="M49.9984 21.674V24.9942H51.3417V25.4407H49.5181V21.674H49.9984Z" fill="white"/>
<path d="M52.7373 21.674H52.2588V25.4407H52.7373V21.674Z" fill="white"/>
<path d="M53.8238 23.5578C53.8217 23.2959 53.8721 23.0362 53.972 22.794C54.1166 22.4418 54.3633 22.1409 54.6802 21.9299C54.9972 21.719 55.3699 21.6076 55.7507 21.6101C56.144 21.6098 56.5283 21.728 56.8535 21.9491V22.4823C56.5377 22.2264 56.1459 22.0826 55.7396 22.0733C55.5471 22.0715 55.3564 22.111 55.1805 22.1891C55.0115 22.2637 54.8587 22.3707 54.7307 22.504C54.6012 22.6402 54.499 22.8 54.4296 22.9747C54.283 23.3483 54.283 23.7636 54.4296 24.1373C54.4991 24.3119 54.6012 24.4717 54.7307 24.6079C54.8588 24.7411 55.0115 24.848 55.1805 24.9228C55.3565 25.0008 55.5471 25.0403 55.7396 25.0386C56.1473 25.0291 56.5414 24.8896 56.8642 24.6403V25.173C56.5301 25.3869 56.1418 25.5008 55.7451 25.5014C55.4864 25.5035 55.23 25.4522 54.992 25.3508C54.7639 25.2538 54.5565 25.114 54.381 24.9391C54.2054 24.7625 54.0664 24.553 53.972 24.3225C53.8721 24.0804 53.8217 23.8207 53.8238 23.5587" fill="white"/>
<path d="M58.3868 21.674H57.9083V25.4407H58.3868V21.674Z" fill="white"/>
<path d="M59.3011 21.674H61.9807V22.1154H60.8834V25.4407H60.3994V22.115H59.3011V21.674Z" fill="white"/>
<path d="M62.8965 21.674H64.9897V22.1154H63.375V23.2669H64.8762V23.7033H63.375V25.0002H64.9999V25.4416H62.8965V21.674ZM63.6334 21.3729L64.1341 20.6249H64.683L64.0855 21.3729H63.6334Z" fill="white"/>
<path d="M69.2565 21.6735L70.8064 25.4407H70.3006L69.8587 24.3485H68.2607L67.8193 25.4407H67.3241L68.8791 21.6735H69.2565ZM68.4335 23.9121H69.6873L69.0574 22.3465L68.4335 23.9121Z" fill="white"/>
<path d="M76.381 23.5574C76.3834 23.8138 76.334 24.0681 76.2356 24.3049C76.1432 24.5283 76.0079 24.7313 75.8373 24.9025C75.6671 25.0723 75.4649 25.2068 75.2425 25.298C75.0097 25.394 74.7601 25.4425 74.5083 25.4407H73.3193V21.674H74.5083C74.7601 21.6722 75.0097 21.7207 75.2425 21.8167C75.4649 21.908 75.6671 22.0424 75.8373 22.2122C76.0079 22.3834 76.1432 22.5864 76.2356 22.8098C76.334 23.0466 76.3834 23.3009 76.381 23.5574ZM75.8864 23.5574C75.8878 23.3641 75.8521 23.1725 75.7812 22.9927C75.7152 22.8227 75.6166 22.6672 75.4908 22.5351C75.3663 22.4055 75.2172 22.3022 75.0521 22.2312C74.8765 22.1562 74.6872 22.1187 74.4963 22.121H73.7964V24.9928H74.4963C74.6872 24.9951 74.8765 24.9575 75.0521 24.8825C75.2172 24.8115 75.3663 24.7082 75.4908 24.5787C75.6166 24.4466 75.7153 24.2911 75.7812 24.1211C75.8522 23.9413 75.8879 23.7496 75.8864 23.5564" fill="white"/>
<path d="M78.8563 25.4995C78.6443 25.5037 78.4335 25.4652 78.2366 25.3865C78.0641 25.3161 77.9097 25.2077 77.785 25.0692C77.659 24.9263 77.5643 24.7586 77.507 24.5769C77.4425 24.3707 77.4112 24.1555 77.4144 23.9395V21.674H77.8933V23.9339C77.8919 24.0868 77.9128 24.2392 77.9554 24.386C77.9932 24.5146 78.0562 24.6344 78.1407 24.7385C78.2217 24.8374 78.3248 24.9158 78.4418 24.9673C78.5735 25.0232 78.7156 25.0507 78.8587 25.0479C78.9999 25.0504 79.1401 25.0229 79.27 24.9673C79.387 24.9159 79.4902 24.8375 79.571 24.7385C79.6554 24.6343 79.7183 24.5146 79.7563 24.386C79.7989 24.2392 79.8199 24.0868 79.8184 23.9339V21.674H80.2973V23.9395C80.3005 24.1555 80.2692 24.3707 80.2047 24.5769C80.148 24.7581 80.0545 24.9258 79.93 25.0692C79.8066 25.2079 79.6531 25.3165 79.4812 25.3865C79.2847 25.4651 79.0744 25.5035 78.8628 25.4995" fill="white"/>
<path d="M83.1715 21.674H84.3447C84.5059 21.6724 84.6664 21.6951 84.8209 21.7412C84.9563 21.7811 85.0824 21.8479 85.1914 21.9376C85.2937 22.0234 85.3755 22.131 85.4309 22.2526C85.49 22.3835 85.5196 22.5258 85.5175 22.6694C85.5218 22.8319 85.4828 22.9925 85.4045 23.1349C85.3257 23.2689 85.2072 23.375 85.0654 23.4388C85.267 23.4947 85.4437 23.6171 85.5668 23.7861C85.6899 23.9551 85.7522 24.1609 85.7436 24.3698C85.746 24.5255 85.7144 24.6797 85.6509 24.8219C85.5918 24.9523 85.5035 25.0673 85.3929 25.1582C85.2726 25.2542 85.1346 25.3255 84.9867 25.368C84.8146 25.4182 84.6361 25.4427 84.4568 25.4407H83.1705L83.1715 21.674ZM84.3392 23.2827C84.522 23.2913 84.7021 23.2361 84.8487 23.1266C84.9098 23.0713 84.9586 23.0039 84.992 22.9285C85.0255 22.8532 85.0427 22.7717 85.0427 22.6893C85.0427 22.6069 85.0255 22.5255 84.992 22.4502C84.9586 22.3748 84.9098 22.3074 84.8487 22.2521C84.6992 22.1432 84.5169 22.0889 84.3322 22.0983H83.6485V23.2822L84.3392 23.2827ZM84.4522 25.0155C84.6625 25.0267 84.8703 24.9659 85.0414 24.8432C85.1139 24.7847 85.1714 24.7098 85.2093 24.6247C85.2472 24.5395 85.2642 24.4466 85.2591 24.3536C85.263 24.2614 85.2448 24.1696 85.2059 24.0859C85.1671 24.0021 85.1087 23.9289 85.0358 23.8723C84.8632 23.7482 84.6534 23.6865 84.4411 23.6973H83.6499V25.0155H84.4522Z" fill="white"/>
<path d="M90.4469 23.5578C90.4486 23.8177 90.3964 24.0751 90.2936 24.3138C90.195 24.5431 90.0544 24.7521 89.879 24.9298C89.703 25.1067 89.4946 25.2482 89.2653 25.3467C89.028 25.4478 88.7726 25.4999 88.5147 25.4999C88.2567 25.4999 88.0014 25.4478 87.7641 25.3467C87.5346 25.2484 87.3263 25.1069 87.1503 24.9298C86.975 24.7521 86.8344 24.5431 86.7358 24.3138C86.6327 24.0752 86.5805 23.8177 86.5824 23.5578C86.5807 23.2971 86.6329 23.0387 86.7358 22.7991C86.834 22.5687 86.9746 22.3588 87.1503 22.1803C87.3262 22.0031 87.5346 21.8616 87.7641 21.7634C88.0013 21.6621 88.2567 21.6098 88.5147 21.6098C88.7727 21.6098 89.028 21.6621 89.2653 21.7634C89.4947 21.8617 89.7031 22.0032 89.879 22.1803C90.0547 22.3588 90.1953 22.5687 90.2936 22.7991C90.3962 23.0388 90.4484 23.2971 90.4469 23.5578ZM89.9573 23.5578C89.9584 23.3594 89.92 23.1627 89.8443 22.9793C89.7728 22.8038 89.6689 22.6434 89.5381 22.5064C89.4078 22.3711 89.2526 22.2624 89.0809 22.1863C88.9027 22.1083 88.7103 22.0681 88.5158 22.0681C88.3213 22.0681 88.1289 22.1083 87.9507 22.1863C87.779 22.2623 87.6237 22.371 87.4936 22.5064C87.3626 22.6434 87.2585 22.8038 87.1869 22.9793C87.1112 23.1627 87.0727 23.3594 87.0739 23.5578C87.0725 23.7554 87.111 23.9512 87.1869 24.1336C87.259 24.3081 87.363 24.4677 87.4936 24.6042C87.6237 24.7396 87.779 24.8483 87.9507 24.9243C88.1289 25.0025 88.3213 25.0429 88.5158 25.0429C88.7104 25.0429 88.9028 25.0025 89.0809 24.9243C89.2526 24.8482 89.4079 24.7395 89.5381 24.6042C89.6685 24.4677 89.7723 24.3081 89.8443 24.1336C89.9202 23.9512 89.9587 23.7554 89.9573 23.5578Z" fill="white"/>
<path d="M94.7345 21.674V25.4407H94.2825L91.9957 22.4003V25.4407H91.5325V21.674H92.0221L94.2713 24.6764V21.674H94.7345Z" fill="white"/>
</g>
<defs>
<clipPath id="clip0">
<rect width="120.787" height="25" fill="white" transform="translate(0.802002 0.5)"/>
</clipPath>
</defs>
</svg>
