<svg width="508" height="4" viewBox="0 0 508 4" fill="none" xmlns="http://www.w3.org/2000/svg">
<g opacity="0.2">
<path d="M4 2C4 3.10457 3.10457 4 2 4C0.895431 4 0 3.10457 0 2C0 0.895431 0.895431 0 2 0C3.10457 0 4 0.895431 4 2Z" fill="white"/>
<path d="M12 2C12 3.10457 11.1046 4 10 4C8.89543 4 8 3.10457 8 2C8 0.895431 8.89543 0 10 0C11.1046 0 12 0.895431 12 2Z" fill="white"/>
<path d="M20 2C20 3.10457 19.1046 4 18 4C16.8954 4 16 3.10457 16 2C16 0.895431 16.8954 0 18 0C19.1046 0 20 0.895431 20 2Z" fill="white"/>
<path d="M28 2C28 3.10457 27.1046 4 26 4C24.8954 4 24 3.10457 24 2C24 0.895431 24.8954 0 26 0C27.1046 0 28 0.895431 28 2Z" fill="white"/>
<path d="M36 2C36 3.10457 35.1046 4 34 4C32.8954 4 32 3.10457 32 2C32 0.895431 32.8954 0 34 0C35.1046 0 36 0.895431 36 2Z" fill="white"/>
<path d="M44 2C44 3.10457 43.1046 4 42 4C40.8954 4 40 3.10457 40 2C40 0.895431 40.8954 0 42 0C43.1046 0 44 0.895431 44 2Z" fill="white"/>
<path d="M52 2C52 3.10457 51.1046 4 50 4C48.8954 4 48 3.10457 48 2C48 0.895431 48.8954 0 50 0C51.1046 0 52 0.895431 52 2Z" fill="white"/>
<path d="M60 2C60 3.10457 59.1046 4 58 4C56.8954 4 56 3.10457 56 2C56 0.895431 56.8954 0 58 0C59.1046 0 60 0.895431 60 2Z" fill="white"/>
<path d="M68 2C68 3.10457 67.1046 4 66 4C64.8954 4 64 3.10457 64 2C64 0.895431 64.8954 0 66 0C67.1046 0 68 0.895431 68 2Z" fill="white"/>
<path d="M76 2C76 3.10457 75.1046 4 74 4C72.8954 4 72 3.10457 72 2C72 0.895431 72.8954 0 74 0C75.1046 0 76 0.895431 76 2Z" fill="white"/>
<path d="M84 2C84 3.10457 83.1046 4 82 4C80.8954 4 80 3.10457 80 2C80 0.895431 80.8954 0 82 0C83.1046 0 84 0.895431 84 2Z" fill="white"/>
<path d="M92 2C92 3.10457 91.1046 4 90 4C88.8954 4 88 3.10457 88 2C88 0.895431 88.8954 0 90 0C91.1046 0 92 0.895431 92 2Z" fill="white"/>
<path d="M100 2C100 3.10457 99.1046 4 98 4C96.8954 4 96 3.10457 96 2C96 0.895431 96.8954 0 98 0C99.1046 0 100 0.895431 100 2Z" fill="white"/>
<path d="M108 2C108 3.10457 107.105 4 106 4C104.895 4 104 3.10457 104 2C104 0.895431 104.895 0 106 0C107.105 0 108 0.895431 108 2Z" fill="white"/>
<path d="M116 2C116 3.10457 115.105 4 114 4C112.895 4 112 3.10457 112 2C112 0.895431 112.895 0 114 0C115.105 0 116 0.895431 116 2Z" fill="white"/>
<path d="M124 2C124 3.10457 123.105 4 122 4C120.895 4 120 3.10457 120 2C120 0.895431 120.895 0 122 0C123.105 0 124 0.895431 124 2Z" fill="white"/>
<path d="M132 2C132 3.10457 131.105 4 130 4C128.895 4 128 3.10457 128 2C128 0.895431 128.895 0 130 0C131.105 0 132 0.895431 132 2Z" fill="white"/>
<path d="M140 2C140 3.10457 139.105 4 138 4C136.895 4 136 3.10457 136 2C136 0.895431 136.895 0 138 0C139.105 0 140 0.895431 140 2Z" fill="white"/>
<path d="M148 2C148 3.10457 147.105 4 146 4C144.895 4 144 3.10457 144 2C144 0.895431 144.895 0 146 0C147.105 0 148 0.895431 148 2Z" fill="white"/>
<path d="M156 2C156 3.10457 155.105 4 154 4C152.895 4 152 3.10457 152 2C152 0.895431 152.895 0 154 0C155.105 0 156 0.895431 156 2Z" fill="white"/>
<path d="M164 2C164 3.10457 163.105 4 162 4C160.895 4 160 3.10457 160 2C160 0.895431 160.895 0 162 0C163.105 0 164 0.895431 164 2Z" fill="white"/>
<path d="M172 2C172 3.10457 171.105 4 170 4C168.895 4 168 3.10457 168 2C168 0.895431 168.895 0 170 0C171.105 0 172 0.895431 172 2Z" fill="white"/>
<path d="M180 2C180 3.10457 179.105 4 178 4C176.895 4 176 3.10457 176 2C176 0.895431 176.895 0 178 0C179.105 0 180 0.895431 180 2Z" fill="white"/>
<path d="M188 2C188 3.10457 187.105 4 186 4C184.895 4 184 3.10457 184 2C184 0.895431 184.895 0 186 0C187.105 0 188 0.895431 188 2Z" fill="white"/>
<path d="M196 2C196 3.10457 195.105 4 194 4C192.895 4 192 3.10457 192 2C192 0.895431 192.895 0 194 0C195.105 0 196 0.895431 196 2Z" fill="white"/>
<path d="M204 2C204 3.10457 203.105 4 202 4C200.895 4 200 3.10457 200 2C200 0.895431 200.895 0 202 0C203.105 0 204 0.895431 204 2Z" fill="white"/>
<path d="M212 2C212 3.10457 211.105 4 210 4C208.895 4 208 3.10457 208 2C208 0.895431 208.895 0 210 0C211.105 0 212 0.895431 212 2Z" fill="white"/>
<path d="M220 2C220 3.10457 219.105 4 218 4C216.895 4 216 3.10457 216 2C216 0.895431 216.895 0 218 0C219.105 0 220 0.895431 220 2Z" fill="white"/>
<path d="M228 2C228 3.10457 227.105 4 226 4C224.895 4 224 3.10457 224 2C224 0.895431 224.895 0 226 0C227.105 0 228 0.895431 228 2Z" fill="white"/>
<path d="M236 2C236 3.10457 235.105 4 234 4C232.895 4 232 3.10457 232 2C232 0.895431 232.895 0 234 0C235.105 0 236 0.895431 236 2Z" fill="white"/>
<path d="M244 2C244 3.10457 243.105 4 242 4C240.895 4 240 3.10457 240 2C240 0.895431 240.895 0 242 0C243.105 0 244 0.895431 244 2Z" fill="white"/>
<path d="M252 2C252 3.10457 251.105 4 250 4C248.895 4 248 3.10457 248 2C248 0.895431 248.895 0 250 0C251.105 0 252 0.895431 252 2Z" fill="white"/>
<path d="M260 2C260 3.10457 259.105 4 258 4C256.895 4 256 3.10457 256 2C256 0.895431 256.895 0 258 0C259.105 0 260 0.895431 260 2Z" fill="white"/>
<path d="M268 2C268 3.10457 267.105 4 266 4C264.895 4 264 3.10457 264 2C264 0.895431 264.895 0 266 0C267.105 0 268 0.895431 268 2Z" fill="white"/>
<path d="M276 2C276 3.10457 275.105 4 274 4C272.895 4 272 3.10457 272 2C272 0.895431 272.895 0 274 0C275.105 0 276 0.895431 276 2Z" fill="white"/>
<path d="M284 2C284 3.10457 283.105 4 282 4C280.895 4 280 3.10457 280 2C280 0.895431 280.895 0 282 0C283.105 0 284 0.895431 284 2Z" fill="white"/>
<path d="M292 2C292 3.10457 291.105 4 290 4C288.895 4 288 3.10457 288 2C288 0.895431 288.895 0 290 0C291.105 0 292 0.895431 292 2Z" fill="white"/>
<path d="M300 2C300 3.10457 299.105 4 298 4C296.895 4 296 3.10457 296 2C296 0.895431 296.895 0 298 0C299.105 0 300 0.895431 300 2Z" fill="white"/>
<path d="M308 2C308 3.10457 307.105 4 306 4C304.895 4 304 3.10457 304 2C304 0.895431 304.895 0 306 0C307.105 0 308 0.895431 308 2Z" fill="white"/>
<path d="M316 2C316 3.10457 315.105 4 314 4C312.895 4 312 3.10457 312 2C312 0.895431 312.895 0 314 0C315.105 0 316 0.895431 316 2Z" fill="white"/>
<path d="M324 2C324 3.10457 323.105 4 322 4C320.895 4 320 3.10457 320 2C320 0.895431 320.895 0 322 0C323.105 0 324 0.895431 324 2Z" fill="white"/>
<path d="M332 2C332 3.10457 331.105 4 330 4C328.895 4 328 3.10457 328 2C328 0.895431 328.895 0 330 0C331.105 0 332 0.895431 332 2Z" fill="white"/>
<path d="M340 2C340 3.10457 339.105 4 338 4C336.895 4 336 3.10457 336 2C336 0.895431 336.895 0 338 0C339.105 0 340 0.895431 340 2Z" fill="white"/>
<path d="M348 2C348 3.10457 347.105 4 346 4C344.895 4 344 3.10457 344 2C344 0.895431 344.895 0 346 0C347.105 0 348 0.895431 348 2Z" fill="white"/>
<path d="M356 2C356 3.10457 355.105 4 354 4C352.895 4 352 3.10457 352 2C352 0.895431 352.895 0 354 0C355.105 0 356 0.895431 356 2Z" fill="white"/>
<path d="M364 2C364 3.10457 363.105 4 362 4C360.895 4 360 3.10457 360 2C360 0.895431 360.895 0 362 0C363.105 0 364 0.895431 364 2Z" fill="white"/>
<path d="M372 2C372 3.10457 371.105 4 370 4C368.895 4 368 3.10457 368 2C368 0.895431 368.895 0 370 0C371.105 0 372 0.895431 372 2Z" fill="white"/>
<path d="M380 2C380 3.10457 379.105 4 378 4C376.895 4 376 3.10457 376 2C376 0.895431 376.895 0 378 0C379.105 0 380 0.895431 380 2Z" fill="white"/>
<path d="M388 2C388 3.10457 387.105 4 386 4C384.895 4 384 3.10457 384 2C384 0.895431 384.895 0 386 0C387.105 0 388 0.895431 388 2Z" fill="white"/>
<path d="M396 2C396 3.10457 395.105 4 394 4C392.895 4 392 3.10457 392 2C392 0.895431 392.895 0 394 0C395.105 0 396 0.895431 396 2Z" fill="white"/>
<path d="M404 2C404 3.10457 403.105 4 402 4C400.895 4 400 3.10457 400 2C400 0.895431 400.895 0 402 0C403.105 0 404 0.895431 404 2Z" fill="white"/>
<path d="M412 2C412 3.10457 411.105 4 410 4C408.895 4 408 3.10457 408 2C408 0.895431 408.895 0 410 0C411.105 0 412 0.895431 412 2Z" fill="white"/>
<path d="M420 2C420 3.10457 419.105 4 418 4C416.895 4 416 3.10457 416 2C416 0.895431 416.895 0 418 0C419.105 0 420 0.895431 420 2Z" fill="white"/>
<path d="M428 2C428 3.10457 427.105 4 426 4C424.895 4 424 3.10457 424 2C424 0.895431 424.895 0 426 0C427.105 0 428 0.895431 428 2Z" fill="white"/>
<path d="M436 2C436 3.10457 435.105 4 434 4C432.895 4 432 3.10457 432 2C432 0.895431 432.895 0 434 0C435.105 0 436 0.895431 436 2Z" fill="white"/>
<path d="M444 2C444 3.10457 443.105 4 442 4C440.895 4 440 3.10457 440 2C440 0.895431 440.895 0 442 0C443.105 0 444 0.895431 444 2Z" fill="white"/>
<path d="M452 2C452 3.10457 451.105 4 450 4C448.895 4 448 3.10457 448 2C448 0.895431 448.895 0 450 0C451.105 0 452 0.895431 452 2Z" fill="white"/>
<path d="M460 2C460 3.10457 459.105 4 458 4C456.895 4 456 3.10457 456 2C456 0.895431 456.895 0 458 0C459.105 0 460 0.895431 460 2Z" fill="white"/>
<path d="M468 2C468 3.10457 467.105 4 466 4C464.895 4 464 3.10457 464 2C464 0.895431 464.895 0 466 0C467.105 0 468 0.895431 468 2Z" fill="white"/>
<path d="M476 2C476 3.10457 475.105 4 474 4C472.895 4 472 3.10457 472 2C472 0.895431 472.895 0 474 0C475.105 0 476 0.895431 476 2Z" fill="white"/>
<path d="M484 2C484 3.10457 483.105 4 482 4C480.895 4 480 3.10457 480 2C480 0.895431 480.895 0 482 0C483.105 0 484 0.895431 484 2Z" fill="white"/>
<path d="M492 2C492 3.10457 491.105 4 490 4C488.895 4 488 3.10457 488 2C488 0.895431 488.895 0 490 0C491.105 0 492 0.895431 492 2Z" fill="white"/>
<path d="M500 2C500 3.10457 499.105 4 498 4C496.895 4 496 3.10457 496 2C496 0.895431 496.895 0 498 0C499.105 0 500 0.895431 500 2Z" fill="white"/>
<path d="M508 2C508 3.10457 507.105 4 506 4C504.895 4 504 3.10457 504 2C504 0.895431 504.895 0 506 0C507.105 0 508 0.895431 508 2Z" fill="white"/>
</g>
</svg>
