<svg width="69" height="31" viewBox="0 0 69 31" fill="none" xmlns="http://www.w3.org/2000/svg">
<g opacity="0.3" clip-path="url(#clip0)">
<path d="M64.931 17.8208C63.5725 17.3679 62.1574 17.1415 62.1574 16.0094C62.1574 14.934 62.8932 14.4245 64.4215 14.4245C65.214 14.4245 65.9498 14.5377 66.6857 14.7642C67.071 14.3282 67.2737 13.7607 67.2517 13.1793C66.2971 12.7352 65.2455 12.5404 64.1951 12.6132C61.3649 12.6132 60.063 13.9717 60.063 16.0661C60.063 18.1604 61.7045 18.8962 63.1762 19.4057C64.4781 19.7453 65.6668 20.0283 65.6668 21.2736C65.6668 22.4623 64.931 22.8585 63.5725 22.8585C62.5485 22.8326 61.5355 22.6415 60.5725 22.2925C60.3704 22.5239 60.2163 22.7933 60.1192 23.0848C60.022 23.3763 59.9837 23.6842 60.0064 23.9906C61.1499 24.5507 62.413 24.8227 63.6857 24.783C66.5159 24.783 67.8744 23.4245 67.8744 21.217C67.8744 18.9528 66.3461 18.3302 64.931 17.8208ZM22.7045 12.6132C22.0988 12.554 21.4882 12.6533 20.9324 12.9014C20.3767 13.1495 19.895 13.5378 19.5347 14.0283V7.91511C19.1675 7.80815 18.7838 7.76978 18.4027 7.8019C18.0178 7.78387 17.6332 7.84156 17.2706 7.97171V24.3868C17.6332 24.517 18.0178 24.5746 18.4027 24.5566C18.7873 24.5705 19.1711 24.5129 19.5347 24.3868V23.3113C19.8885 23.8122 20.3673 24.2116 20.9234 24.4698C21.4796 24.728 22.0937 24.836 22.7045 24.783C25.2517 24.783 26.8366 23.1415 26.8366 18.6132C26.8366 14.0849 25.2517 12.5 22.7045 12.5V12.6132ZM21.9687 22.8585C20.3838 22.8585 19.5347 21.5566 19.5347 20.0283V17.1981C19.5347 15.6698 20.3838 14.3679 21.9687 14.3679C23.6668 14.3679 24.5725 15.2736 24.5725 18.6132C24.5725 21.9528 23.7234 22.8585 21.9687 22.8585ZM53.6102 12.5566C50.6668 12.5566 48.7423 14.3113 48.7423 18.5566C48.7423 22.5755 50.3272 24.7264 53.7234 24.7264C55 24.7746 56.2617 24.4395 57.3461 23.7642C57.3166 23.1602 57.0526 22.5915 56.6102 22.1793C55.8095 22.6053 54.9132 22.8197 54.0064 22.8019C52.1951 22.8019 51.1762 21.9528 50.9498 19.2925H57.7423C57.8555 18.5566 57.9687 17.8208 57.9687 17.0283C57.9687 14.0849 56.2706 12.5 53.6102 12.5V12.5566ZM55.7046 17.7642H51.0064C51.1762 15.2736 52.1385 14.3679 53.5536 14.3679C55.2517 14.3679 55.7612 15.5 55.7612 16.7453C55.7612 17.0849 55.7612 17.4245 55.6479 17.7642H55.7046ZM46.0253 22.8585C44.4404 22.8585 43.8178 22.2925 43.8178 20.3113V14.4811H46.6479C46.7526 14.2099 46.81 13.9227 46.8178 13.6321C46.8373 13.3443 46.7988 13.0556 46.7045 12.783H43.8744V10.3491C43.0906 10.2531 42.2968 10.4119 41.6102 10.8019V12.8396H39.9121C39.8014 13.1091 39.7437 13.3974 39.7423 13.6887C39.7423 13.9717 39.7989 14.2547 39.9121 14.4811H41.6102V20.4811C41.6102 23.3113 42.7423 24.8396 45.4027 24.8396C45.9382 24.8285 46.4704 24.7525 46.9876 24.6132C47.1008 24.3868 47.1008 24.0472 47.1008 23.8208C47.0881 23.5307 47.0308 23.2443 46.931 22.9717L46.0253 23.0283V22.8585ZM36.6857 12.9528L34.4781 19.7453L33.7989 22.4057H33.6291C33.42 21.5034 33.1553 20.6149 32.8366 19.7453L30.3461 12.9528C29.9777 12.8517 29.595 12.8134 29.214 12.8396C28.833 12.8165 28.4508 12.8548 28.0819 12.9528L32.214 24.3868C32.4404 24.5 32.7234 24.5566 32.9498 24.5566L32.497 25.9151C31.8178 28.0094 31.3649 28.2925 30.3461 28.2925C30.0039 28.2823 29.6632 28.2444 29.3272 28.1793C29.2002 28.4636 29.142 28.7739 29.1574 29.0849C29.1574 29.3679 29.1574 29.651 29.3272 29.934C29.7056 30.0837 30.1089 30.1606 30.5159 30.1604C32.8932 30.1604 33.6857 28.7453 34.4781 26.3113L38.7234 12.9528C38.3959 12.8388 38.0513 12.7814 37.7045 12.783C37.3196 12.7635 36.9347 12.8212 36.5725 12.9528H36.6857ZM8.27058 24.7264C6.42704 24.6944 4.6533 24.0159 3.25901 22.8094C1.86472 21.6029 0.938446 19.945 0.641883 18.1252C0.345319 16.3054 0.697306 14.4392 1.6364 12.8524C2.57549 11.2657 4.04203 10.0591 5.78002 9.44341C5.84271 9.41694 5.91008 9.40331 5.97813 9.40331C6.04618 9.40331 6.11355 9.41694 6.17624 9.44341C6.28386 9.5068 6.36443 9.60752 6.40266 9.72643C6.44031 9.8616 6.42642 10.0059 6.36366 10.1315C6.30091 10.257 6.19377 10.3547 6.06304 10.4057C4.51557 10.913 3.20187 11.9594 2.36133 13.3542C1.52078 14.749 1.20933 16.3994 1.48372 18.0046C1.75812 19.6098 2.6001 21.0631 3.85624 22.0995C5.11238 23.1359 6.69907 23.6865 8.32719 23.651C9.98394 23.7212 11.6092 23.183 12.8965 22.1378C14.1838 21.0926 15.0444 19.6125 15.3159 17.9767C15.5873 16.3408 15.251 14.6621 14.3703 13.2571C13.4896 11.8521 12.1254 10.8177 10.5347 10.3491C10.1951 10.3491 4.0819 8.02831 4.0819 4.63209C4.0819 4.46228 4.19511 4.34907 4.30832 4.23586C4.36492 4.17926 6.06304 2.82077 9.40266 5.48114C9.9687 3.89624 11.6102 0.386804 14.7234 0.783031C14.829 0.806661 14.9243 0.863284 14.9955 0.944698C15.0668 1.02611 15.1102 1.12809 15.1196 1.23586C15.2484 2.5482 15.0221 3.87102 14.4644 5.06595C13.9068 6.26087 13.0383 7.284 11.9498 8.02831C11.8342 8.10161 11.696 8.13053 11.5607 8.10971C11.4254 8.0889 11.3022 8.01976 11.214 7.91511C11.1555 7.80519 11.1349 7.67908 11.1554 7.55629C11.1759 7.4335 11.2363 7.32088 11.3272 7.23586C13.0819 5.99058 14.1574 3.95284 14.1574 1.8019C11.4404 1.8019 10.1951 6.44341 10.1385 6.44341C10.1178 6.53186 10.0762 6.61403 10.0171 6.683C9.95797 6.75196 9.88313 6.80568 9.79889 6.83963C9.71112 6.86302 9.61901 6.86495 9.53034 6.84524C9.44168 6.82554 9.35905 6.78479 9.28945 6.72643C7.0253 4.68869 5.66681 4.8019 5.15738 4.91511C5.497 7.00945 9.28945 8.87737 10.8178 9.44341C12.5598 10.0611 14.0287 11.2724 14.967 12.8649C15.9053 14.4573 16.253 16.3293 15.9491 18.1524C15.6453 19.9756 14.7093 21.6336 13.3052 22.8356C11.9012 24.0377 10.1188 24.7071 8.27058 24.7264Z" fill="white"/>
<path d="M14.5536 16.9151C14.5686 17.7422 14.4187 18.5641 14.1125 19.3326C13.8064 20.1012 13.3501 20.801 12.7704 21.3912C12.1907 21.9814 11.4993 22.4502 10.7364 22.7702C9.97347 23.0901 9.15445 23.2549 8.32718 23.2547C4.93095 23.2547 2.10076 20.4245 2.10076 16.9717C2.08572 16.1446 2.23566 15.3227 2.54183 14.5542C2.84799 13.7856 3.30424 13.0858 3.88392 12.4956C4.4636 11.9054 5.15509 11.4366 5.91799 11.1166C6.68089 10.7967 7.4999 10.6319 8.32718 10.6321C11.7234 10.6321 14.5536 13.4623 14.5536 16.9717" fill="white"/>
<path d="M14.3272 16.9151C14.3272 20.3113 11.6102 22.9717 8.32719 22.9717C5.04417 22.9717 2.38379 20.3113 2.38379 16.9717C2.38379 13.6321 5.04417 10.9151 8.32719 10.9151C9.11583 10.9113 9.89735 11.0645 10.6262 11.3657C11.3551 11.667 12.0167 12.1103 12.5725 12.6698C13.6853 13.8227 14.2959 15.3696 14.2706 16.9717" fill="black"/>
<path d="M8.27048 16.4623H8.49689L10.195 11.934C10.2317 11.885 10.2516 11.8254 10.2516 11.7642C10.2516 11.7029 10.2317 11.6433 10.195 11.5943C9.00354 11.1803 7.70722 11.1803 6.51576 11.5943C6.51576 11.5943 6.28935 11.7076 6.40255 11.934L8.10067 16.4623C8.11788 16.4722 8.1374 16.4774 8.15727 16.4774C8.17714 16.4774 8.19666 16.4722 8.21387 16.4623H8.27048ZM8.6667 16.5189L8.77991 16.6887H8.89312L13.3082 14.7642C13.3633 14.7293 13.4047 14.6764 13.4253 14.6145C13.446 14.5526 13.4446 14.4855 13.4214 14.4245C12.8824 13.2997 11.987 12.3843 10.8743 11.8208C10.8743 11.8208 10.5912 11.7642 10.5346 11.9906L8.6101 16.4623V16.5189H8.6667ZM8.89312 16.9151V17.1415L13.3648 18.8962C13.478 18.9528 13.5912 18.8962 13.6478 18.8396C14.0491 17.646 14.0491 16.354 13.6478 15.1604C13.6478 15.1604 13.5346 14.8774 13.3082 14.9906L8.83652 16.6887C8.82658 16.7059 8.82135 16.7254 8.82135 16.7453C8.82135 16.7652 8.82658 16.7847 8.83652 16.8019L8.89312 16.9151ZM8.83652 17.3113L8.6101 17.4811L10.5912 22.0094C10.6147 22.0638 10.6547 22.1094 10.7054 22.1399C10.7562 22.1703 10.8152 22.1841 10.8743 22.1793C11.9935 21.5977 12.8891 20.6624 13.4214 19.5189C13.4214 19.5189 13.5346 19.2359 13.3082 19.1793L8.89312 17.2547C8.87591 17.2448 8.85639 17.2396 8.83652 17.2396C8.81664 17.2396 8.79712 17.2448 8.77991 17.2547L8.83652 17.3113ZM8.38369 17.4811H8.15727L6.45916 22.066C6.45916 22.066 6.34595 22.2359 6.51576 22.3491C7.68928 22.7545 8.96488 22.7545 10.1384 22.3491C10.1384 22.3491 10.3648 22.2359 10.3082 22.0094L8.6101 17.4811C8.59289 17.4712 8.57337 17.466 8.5535 17.466C8.53362 17.466 8.5141 17.4712 8.49689 17.4811H8.38369ZM7.98746 17.4245L7.87425 17.2547H7.81765L3.40255 19.2359C3.3482 19.2593 3.30258 19.2993 3.27212 19.3501C3.24166 19.4008 3.22789 19.4599 3.23274 19.5189C3.77172 20.6437 4.66716 21.5591 5.77991 22.1227C5.77991 22.1227 6.06293 22.2359 6.17614 22.0094L8.10067 17.5377C8.1106 17.5205 8.11583 17.501 8.11583 17.4811C8.11583 17.4613 8.1106 17.4417 8.10067 17.4245H7.98746ZM7.81765 17.0849V16.8585H7.76104L3.23274 15.0472C3.17968 15.0371 3.12484 15.0424 3.07469 15.0624C3.02454 15.0825 2.98118 15.1165 2.94972 15.1604C2.5485 16.354 2.5485 17.646 2.94972 18.8396C2.94972 18.8396 3.11953 19.066 3.28935 18.9528L7.81765 17.2547C7.82758 17.2375 7.83281 17.218 7.83281 17.1981C7.83281 17.1783 7.82758 17.1587 7.81765 17.1415V17.0849ZM7.87425 16.6887L8.04406 16.5189L6.11953 11.9906C6.09605 11.9362 6.05611 11.8906 6.00534 11.8601C5.95457 11.8297 5.89552 11.8159 5.83652 11.8208C4.70265 12.3742 3.78621 13.2907 3.23274 14.4245C3.23274 14.4245 3.17614 14.7076 3.34595 14.7642L7.81765 16.6887C7.83621 16.6935 7.85569 16.6935 7.87425 16.6887ZM6.06293 10.4623L5.5535 9.55661C6.45388 9.21427 7.38175 8.94917 8.32708 8.76416L10.9875 10.6887C9.42156 10.0192 7.65794 9.97864 6.06293 10.5755" fill="white"/>
</g>
<defs>
<clipPath id="clip0">
<rect width="67.9245" height="30" fill="white" transform="translate(0.23291 0.5)"/>
</clipPath>
</defs>
</svg>
