<svg width="69" height="31" viewBox="0 0 69 31" fill="none" xmlns="http://www.w3.org/2000/svg">
<g clip-path="url(#clip0)">
<path d="M65.1036 17.8208C63.7451 17.3679 62.33 17.1415 62.33 16.0094C62.33 14.934 63.0658 14.4245 64.5941 14.4245C65.3866 14.4245 66.1224 14.5377 66.8583 14.7642C67.2436 14.3282 67.4463 13.7607 67.4243 13.1793C66.4697 12.7352 65.4181 12.5404 64.3677 12.6132C61.5375 12.6132 60.2356 13.9717 60.2356 16.066C60.2356 18.1604 61.8772 18.8962 63.3489 19.4057C64.6507 19.7453 65.8394 20.0283 65.8394 21.2736C65.8394 22.4623 65.1036 22.8585 63.7451 22.8585C62.7211 22.8326 61.7081 22.6415 60.7451 22.2925C60.543 22.5239 60.3889 22.7933 60.2918 23.0848C60.1946 23.3763 60.1563 23.6842 60.179 23.9906C61.3225 24.5506 62.5856 24.8227 63.8583 24.783C66.6885 24.783 68.047 23.4245 68.047 21.217C68.047 18.9528 66.5187 18.3302 65.1036 17.8208ZM22.8772 12.6132C22.2715 12.554 21.6608 12.6533 21.105 12.9014C20.5493 13.1495 20.0676 13.5378 19.7073 14.0283V7.91511C19.3401 7.80815 18.9564 7.76977 18.5753 7.8019C18.1904 7.78387 17.8058 7.84156 17.4432 7.97171V24.3868C17.8058 24.517 18.1904 24.5746 18.5753 24.5566C18.9599 24.5705 19.3437 24.5129 19.7073 24.3868V23.3113C20.0611 23.8122 20.5399 24.2116 21.096 24.4698C21.6522 24.728 22.2663 24.836 22.8772 24.783C25.4243 24.783 27.0092 23.1415 27.0092 18.6132C27.0092 14.0849 25.4243 12.5 22.8772 12.5V12.6132ZM22.1413 22.8585C20.5564 22.8585 19.7073 21.5566 19.7073 20.0283V17.1981C19.7073 15.6698 20.5564 14.3679 22.1413 14.3679C23.8394 14.3679 24.7451 15.2736 24.7451 18.6132C24.7451 21.9528 23.896 22.8585 22.1413 22.8585ZM53.7828 12.5566C50.8394 12.5566 48.9149 14.3113 48.9149 18.5566C48.9149 22.5755 50.4998 24.7264 53.896 24.7264C55.1726 24.7746 56.4343 24.4395 57.5187 23.7642C57.4892 23.1602 57.2252 22.5915 56.7828 22.1793C55.9821 22.6053 55.0858 22.8197 54.179 22.8019C52.3677 22.8019 51.3489 21.9528 51.1224 19.2925H57.9149C58.0281 18.5566 58.1413 17.8208 58.1413 17.0283C58.1413 14.0849 56.4432 12.5 53.7828 12.5V12.5566ZM55.8772 17.7642H51.179C51.3489 15.2736 52.3111 14.3679 53.7262 14.3679C55.4243 14.3679 55.9338 15.5 55.9338 16.7453C55.9338 17.0849 55.9338 17.4245 55.8206 17.7642H55.8772ZM46.1979 22.8585C44.613 22.8585 43.9904 22.2925 43.9904 20.3113V14.4811H46.8206C46.9252 14.2099 46.9826 13.9227 46.9904 13.6321C47.0099 13.3443 46.9714 13.0556 46.8772 12.783H44.047V10.3491C43.2632 10.2531 42.4694 10.4119 41.7828 10.8019V12.8396H40.0847C39.974 13.1091 39.9164 13.3974 39.9149 13.6887C39.9149 13.9717 39.9715 14.2547 40.0847 14.4811H41.7828V20.4811C41.7828 23.3113 42.9149 24.8396 45.5753 24.8396C46.1108 24.8285 46.643 24.7525 47.1602 24.6132C47.2734 24.3868 47.2734 24.0472 47.2734 23.8208C47.2607 23.5307 47.2034 23.2443 47.1036 22.9717L46.1979 23.0283V22.8585ZM36.8583 12.9528L34.6507 19.7453L33.9715 22.4057H33.8017C33.5926 21.5034 33.328 20.6149 33.0092 19.7453L30.5187 12.9528C30.1504 12.8517 29.7676 12.8134 29.3866 12.8396C29.0056 12.8165 28.6234 12.8548 28.2545 12.9528L32.3866 24.3868C32.613 24.5 32.896 24.5566 33.1224 24.5566L32.6696 25.9151C31.9904 28.0094 31.5375 28.2925 30.5187 28.2925C30.1765 28.2823 29.8358 28.2444 29.4998 28.1793C29.3728 28.4636 29.3146 28.7739 29.33 29.0849C29.33 29.3679 29.33 29.651 29.4998 29.934C29.8782 30.0837 30.2815 30.1606 30.6885 30.1604C33.0658 30.1604 33.8583 28.7453 34.6507 26.3113L38.896 12.9528C38.5685 12.8388 38.2239 12.7814 37.8772 12.783C37.4922 12.7635 37.1073 12.8212 36.7451 12.9528H36.8583ZM8.44319 24.7264C6.59964 24.6944 4.82591 24.0159 3.43162 22.8094C2.03733 21.6029 1.11105 19.945 0.81449 18.1252C0.517927 16.3054 0.869913 14.4392 1.80901 12.8524C2.7481 11.2657 4.21464 10.0591 5.95263 9.44341C6.01532 9.41694 6.08269 9.40331 6.15074 9.40331C6.21879 9.40331 6.28616 9.41694 6.34885 9.44341C6.45647 9.5068 6.53704 9.60752 6.57527 9.72643C6.61292 9.8616 6.59902 10.0059 6.53627 10.1315C6.47351 10.257 6.36638 10.3547 6.23564 10.4057C4.68818 10.913 3.37448 11.9594 2.53393 13.3542C1.69338 14.749 1.38193 16.3994 1.65633 18.0046C1.93073 19.6098 2.77271 21.063 4.02885 22.0995C5.28499 23.1359 6.87168 23.6865 8.4998 23.651C10.1565 23.7212 11.7818 23.183 13.0691 22.1378C14.3565 21.0926 15.217 19.6125 15.4885 17.9767C15.7599 16.3408 15.4236 14.6621 14.5429 13.2571C13.6622 11.8521 12.298 10.8177 10.7073 10.3491C10.3677 10.3491 4.25451 8.02831 4.25451 4.63209C4.25451 4.46228 4.36772 4.34907 4.48093 4.23586C4.53753 4.17926 6.23564 2.82077 9.57527 5.48114C10.1413 3.89624 11.7828 0.386804 14.896 0.783031C15.0016 0.806661 15.0969 0.863284 15.1681 0.944698C15.2394 1.02611 15.2828 1.12809 15.2922 1.23586C15.421 2.5482 15.1947 3.87102 14.637 5.06595C14.0794 6.26087 13.2109 7.284 12.1224 8.02831C12.0068 8.10161 11.8686 8.13053 11.7333 8.10971C11.598 8.0889 11.4748 8.01976 11.3866 7.91511C11.3281 7.80519 11.3076 7.67908 11.328 7.55629C11.3485 7.4335 11.4089 7.32087 11.4998 7.23586C13.2545 5.99058 14.33 3.95284 14.33 1.8019C11.613 1.8019 10.3677 6.44341 10.3111 6.44341C10.2905 6.53186 10.2488 6.61403 10.1897 6.68299C10.1306 6.75196 10.0557 6.80568 9.97149 6.83963C9.88373 6.86302 9.79162 6.86495 9.70295 6.84524C9.61429 6.82554 9.53166 6.78479 9.46206 6.72643C7.19791 4.68869 5.83942 4.8019 5.32998 4.91511C5.66961 7.00945 9.46206 8.87737 10.9904 9.44341C12.7324 10.0611 14.2014 11.2724 15.1396 12.8649C16.0779 14.4573 16.4256 16.3292 16.1217 18.1524C15.8179 19.9756 14.8819 21.6336 13.4778 22.8356C12.0738 24.0377 10.2914 24.7071 8.44319 24.7264Z" fill="white"/>
<path d="M14.7262 16.9151C14.7412 17.7422 14.5913 18.5641 14.2851 19.3326C13.979 20.1012 13.5227 20.801 12.943 21.3912C12.3634 21.9814 11.6719 22.4502 10.909 22.7702C10.1461 23.0901 9.32706 23.2549 8.49978 23.2547C5.10356 23.2547 2.27337 20.4245 2.27337 16.9717C2.25833 16.1446 2.40827 15.3227 2.71443 14.5542C3.0206 13.7856 3.47685 13.0858 4.05653 12.4956C4.63621 11.9054 5.3277 11.4366 6.0906 11.1166C6.85349 10.7967 7.67251 10.6319 8.49978 10.6321C11.896 10.6321 14.7262 13.4623 14.7262 16.9717" fill="white"/>
<path d="M14.4998 16.9151C14.4998 20.3113 11.7828 22.9717 8.49979 22.9717C5.21677 22.9717 2.5564 20.3113 2.5564 16.9717C2.5564 13.6321 5.21677 10.9151 8.49979 10.9151C9.28844 10.9113 10.07 11.0645 10.7988 11.3657C11.5277 11.667 12.1893 12.1103 12.7451 12.6698C13.8579 13.8227 14.4685 15.3696 14.4432 16.9717" fill="#FF9900"/>
<path d="M8.44321 16.4623H8.66962L10.3677 11.934C10.4045 11.885 10.4243 11.8254 10.4243 11.7642C10.4243 11.7029 10.4045 11.6433 10.3677 11.5943C9.17627 11.1803 7.87995 11.1803 6.68849 11.5943C6.68849 11.5943 6.46208 11.7076 6.57528 11.934L8.2734 16.4623C8.29061 16.4722 8.31013 16.4774 8.33 16.4774C8.34987 16.4774 8.36939 16.4722 8.3866 16.4623H8.44321ZM8.83943 16.5189L8.95264 16.6887H9.06585L13.4809 14.7642C13.5361 14.7293 13.5774 14.6764 13.5981 14.6145C13.6187 14.5526 13.6173 14.4855 13.5942 14.4245C13.0552 13.2997 12.1597 12.3843 11.047 11.8208C11.047 11.8208 10.764 11.7642 10.7074 11.9906L8.78283 16.4623V16.5189H8.83943ZM9.06585 16.9151V17.1415L13.5375 18.8962C13.6508 18.9528 13.764 18.8962 13.8206 18.8396C14.2218 17.646 14.2218 16.354 13.8206 15.1604C13.8206 15.1604 13.7074 14.8774 13.4809 14.9906L9.00925 16.6887C8.99931 16.7059 8.99408 16.7254 8.99408 16.7453C8.99408 16.7652 8.99931 16.7847 9.00925 16.8019L9.06585 16.9151ZM9.00925 17.3113L8.78283 17.4811L10.764 22.0094C10.7874 22.0638 10.8274 22.1094 10.8782 22.1399C10.9289 22.1703 10.988 22.1841 11.047 22.1793C12.1663 21.5977 13.0618 20.6624 13.5942 19.5189C13.5942 19.5189 13.7074 19.2359 13.4809 19.1793L9.06585 17.2547C9.04864 17.2448 9.02912 17.2396 9.00925 17.2396C8.98937 17.2396 8.96985 17.2448 8.95264 17.2547L9.00925 17.3113ZM8.55642 17.4811H8.33L6.63189 22.066C6.63189 22.066 6.51868 22.2359 6.68849 22.3491C7.86201 22.7545 9.13761 22.7545 10.3111 22.3491C10.3111 22.3491 10.5375 22.2359 10.4809 22.0094L8.78283 17.4811C8.76562 17.4712 8.7461 17.466 8.72623 17.466C8.70635 17.466 8.68683 17.4712 8.66962 17.4811H8.55642ZM8.16019 17.4245L8.04698 17.2547H7.99038L3.57528 19.2359C3.52093 19.2593 3.47531 19.2993 3.44485 19.3501C3.41439 19.4008 3.40061 19.4599 3.40547 19.5189C3.94445 20.6437 4.83989 21.5591 5.95264 22.1227C5.95264 22.1227 6.23566 22.2359 6.34887 22.0094L8.2734 17.5377C8.28333 17.5205 8.28856 17.501 8.28856 17.4811C8.28856 17.4613 8.28333 17.4417 8.2734 17.4245H8.16019ZM7.99038 17.0849V16.8585H7.93377L3.40547 15.0472C3.35241 15.0371 3.29757 15.0424 3.24742 15.0624C3.19727 15.0825 3.15391 15.1165 3.12245 15.1604C2.72123 16.354 2.72123 17.646 3.12245 18.8396C3.12245 18.8396 3.29226 19.066 3.46207 18.9528L7.99038 17.2547C8.00031 17.2375 8.00554 17.218 8.00554 17.1981C8.00554 17.1783 8.00031 17.1587 7.99038 17.1415V17.0849ZM8.04698 16.6887L8.21679 16.5189L6.29226 11.9906C6.26878 11.9362 6.22884 11.8906 6.17807 11.8601C6.1273 11.8297 6.06825 11.8159 6.00924 11.8208C4.87538 12.3742 3.95894 13.2907 3.40547 14.4245C3.40547 14.4245 3.34887 14.7076 3.51868 14.7642L7.99038 16.6887C8.00894 16.6935 8.02842 16.6935 8.04698 16.6887ZM6.23566 10.4623L5.72623 9.55661C6.62661 9.21427 7.55448 8.94917 8.49981 8.76416L11.1602 10.6887C9.59429 10.0192 7.83067 9.97864 6.23566 10.5755" fill="white"/>
</g>
<defs>
<clipPath id="clip0">
<rect width="67.9245" height="30" fill="white" transform="translate(0.405518 0.5)"/>
</clipPath>
</defs>
</svg>
