<svg width="26" height="24" viewBox="0 0 26 24" fill="none" xmlns="http://www.w3.org/2000/svg">
<path fill-rule="evenodd" clip-rule="evenodd" d="M23.8987 0.0887878C24.1596 -0.0479074 24.4747 -0.0249509 24.7147 0.145135C24.9547 0.316265 25.0779 0.606351 25.0351 0.898524L22.1655 20.2028C22.1311 20.4313 21.9965 20.6348 21.7982 20.7558C21.674 20.831 21.5332 20.8696 21.3913 20.8696C21.3057 20.8696 21.2201 20.855 21.1387 20.8278L10.2 17.0891L20.9561 4.13016L7.05602 16.0153L0.529088 13.7844C0.233785 13.6832 0.0261333 13.416 0.00213336 13.103C-0.0208231 12.791 0.143002 12.4947 0.420567 12.3496L23.8987 0.0887878ZM9.13037 23.2174V18.3777L13.3742 19.8282L10.5432 23.6807C10.393 23.8852 10.1572 24 9.91298 24C9.83159 24 9.74915 23.9875 9.6688 23.9614C9.34741 23.8549 9.13037 23.5555 9.13037 23.2174Z" fill="white"/>
</svg>
