<svg width="20" height="16" viewBox="0 0 20 16" fill="none" xmlns="http://www.w3.org/2000/svg">
<path d="M0.611816 8L0.611815 4.08164C0.611815 1.82741 2.43923 -1.59758e-07 4.69346 -3.56828e-07L4.7751 -3.63966e-07C6.98424 -5.57095e-07 8.77509 1.79086 8.77509 4L8.7751 5.27891C8.7751 6.78173 7.55682 8 6.05401 8C4.5512 8 3.2783 9.29592 4.02469 10.6003C4.74875 11.8656 5.98397 12.8139 7.45423 13.1745C8.16942 13.3499 8.7751 13.9303 8.7751 14.6667C8.7751 15.403 8.17398 16.0112 7.44696 15.8942C3.57495 15.2708 0.611816 11.9684 0.611816 8Z" fill="white" fill-opacity="0.2"/>
<path d="M18.3386 13.1745C19.0538 13.3499 19.6594 13.9303 19.6594 14.6667C19.6594 15.403 19.0583 16.0112 18.3313 15.8942C14.4593 15.2708 11.4962 11.9684 11.4962 8L11.4962 4.08164C11.4962 1.82741 13.3236 -1.1113e-06 15.5778 -1.30837e-06L15.6594 -1.31551e-06C17.8686 -1.50863e-06 19.6594 1.79086 19.6594 4L19.6594 5.27891C19.6594 6.78173 18.4412 8 16.9384 8C15.4355 8 14.1626 9.29592 14.909 10.6003C15.6331 11.8656 16.8683 12.8139 18.3386 13.1745Z" fill="white" fill-opacity="0.2"/>
</svg>
