<svg width="128" height="21" viewBox="0 0 128 21" fill="none" xmlns="http://www.w3.org/2000/svg">
<g opacity="0.3" clip-path="url(#clip0)">
<path d="M30.4453 10.4688V0.4375L36.0078 0.5625C41.9766 0.65625 42.6641 0.8125 44.6016 2.65625C46.0078 3.9375 46.5078 5.125 46.5078 7.375C46.5078 8.875 46.3516 9.75 45.8203 10.7188C45.1641 12 43.3828 13.625 42.6953 13.625C42.4766 13.625 42.3203 13.6875 42.3203 13.7813C42.3203 13.8438 43.3203 15.3125 44.5078 17.0313C45.7266 18.7188 46.6953 20.2188 46.6953 20.3125C46.6953 20.4063 46.0078 20.5 45.1953 20.5H43.6641L41.5703 17.5313L39.4766 14.5625H36.3828H33.2578V17.5313V20.5H31.8516H30.4453V10.4688ZM41.2266 11.3125C42.8203 10.625 43.6328 9.15625 43.4766 7.125C43.2578 4.0625 41.3516 3 36.1016 3H33.2578V7.375V11.75H36.6953C39.0078 11.75 40.5078 11.5938 41.2266 11.3125Z" fill="white"/>
<path d="M52.5703 19.9062C52.6953 19.5938 54.6953 15.0938 57.0078 9.9375L61.2266 0.5H62.7891H64.3516L68.7266 10.25C71.1328 15.5938 73.1641 20.0938 73.2266 20.25C73.2578 20.4062 72.5703 20.5 71.6641 20.4375L70.0391 20.3438L69.0391 18L68.0391 15.6562L62.8203 15.5625L57.6016 15.5L56.4766 18L55.3516 20.5H53.8516C52.5078 20.5 52.3516 20.4375 52.5703 19.9062ZM66.5703 12.4375C66.4766 12.125 65.5703 10.0312 64.5703 7.75L62.7578 3.625L60.6953 8.3125L58.6328 13H62.6953C66.4453 13 66.7266 12.9688 66.5703 12.4375Z" fill="white"/>
<path d="M80.4453 10.5V0.5H81.6641H82.8828L86.8516 7.21875C89.0391 10.9062 90.9141 14 91.0391 14.0625C91.1328 14.125 93.0078 11.1562 95.1641 7.4375L99.1016 0.65625L100.383 0.5625L101.695 0.46875V10.4688V20.5H100.289H98.8828L98.8203 13.4062L98.7266 6.3125L95.1641 12.3125C92.1953 17.4062 91.5078 18.3438 90.9453 18.25C90.4766 18.1875 89.3828 16.5938 86.7891 12.2188L83.2578 6.28125V13.4062V20.5H81.8516H80.4453V10.5Z" fill="white"/>
<path d="M111.695 10.5V0.5H116.82C120.602 0.5 122.289 0.625 123.289 0.96875C126.383 2.0625 127.914 4.21875 127.945 7.46875C127.945 9.65625 127.414 10.9375 126.039 12.2812C124.289 13.9375 122.914 14.3438 118.664 14.5L114.82 14.625V17.5625V20.5H113.258H111.695V10.5ZM122.914 11.1562C124.289 10.4375 124.977 9.09375 124.945 7.15625C124.883 4.25 123.289 3.25 118.352 3.0625L114.82 2.90625V7.34375V11.75H118.258C121.07 11.75 121.945 11.625 122.914 11.1562Z" fill="white"/>
<path d="M10.2891 10.5C15.7891 5 20.3203 0.5 20.3516 0.5C20.4141 0.5 20.4453 5 20.4453 10.5V20.5H10.3828H0.289062L10.2891 10.5Z" fill="white"/>
</g>
<defs>
<clipPath id="clip0">
<rect width="127.5" height="20" fill="white" transform="translate(0.445312 0.5)"/>
</clipPath>
</defs>
</svg>
