<svg width="129" height="21" viewBox="0 0 129 21" fill="none" xmlns="http://www.w3.org/2000/svg">
<g clip-path="url(#clip0)">
<path d="M30.6177 10.4688V0.4375L36.1802 0.5625C42.1489 0.65625 42.8364 0.8125 44.7739 2.65625C46.1802 3.9375 46.6802 5.125 46.6802 7.375C46.6802 8.875 46.5239 9.75 45.9927 10.7188C45.3364 12 43.5552 13.625 42.8677 13.625C42.6489 13.625 42.4927 13.6875 42.4927 13.7813C42.4927 13.8438 43.4927 15.3125 44.6802 17.0313C45.8989 18.7188 46.8677 20.2188 46.8677 20.3125C46.8677 20.4063 46.1802 20.5 45.3677 20.5H43.8364L41.7427 17.5313L39.6489 14.5625H36.5552H33.4302V17.5313V20.5H32.0239H30.6177V10.4688ZM41.3989 11.3125C42.9927 10.625 43.8052 9.15625 43.6489 7.125C43.4302 4.0625 41.5239 3 36.2739 3H33.4302V7.375V11.75H36.8677C39.1802 11.75 40.6802 11.5938 41.3989 11.3125Z" fill="white"/>
<path d="M52.7427 19.9062C52.8677 19.5938 54.8677 15.0938 57.1802 9.9375L61.3989 0.5H62.9614H64.5239L68.8989 10.25C71.3052 15.5938 73.3364 20.0938 73.3989 20.25C73.4302 20.4062 72.7427 20.5 71.8364 20.4375L70.2114 20.3438L69.2114 18L68.2114 15.6562L62.9927 15.5625L57.7739 15.5L56.6489 18L55.5239 20.5H54.0239C52.6802 20.5 52.5239 20.4375 52.7427 19.9062ZM66.7427 12.4375C66.6489 12.125 65.7427 10.0312 64.7427 7.75L62.9302 3.625L60.8677 8.3125L58.8052 13H62.8677C66.6177 13 66.8989 12.9688 66.7427 12.4375Z" fill="white"/>
<path d="M80.6177 10.5V0.5H81.8364H83.0552L87.0239 7.21875C89.2114 10.9062 91.0864 14 91.2114 14.0625C91.3052 14.125 93.1802 11.1562 95.3364 7.4375L99.2739 0.65625L100.555 0.5625L101.868 0.46875V10.4688V20.5H100.461H99.0552L98.9927 13.4062L98.8989 6.3125L95.3364 12.3125C92.3677 17.4062 91.6802 18.3438 91.1177 18.25C90.6489 18.1875 89.5552 16.5938 86.9614 12.2188L83.4302 6.28125V13.4062V20.5H82.0239H80.6177V10.5Z" fill="white"/>
<path d="M111.868 10.5V0.5H116.993C120.774 0.5 122.461 0.625 123.461 0.96875C126.555 2.0625 128.086 4.21875 128.118 7.46875C128.118 9.65625 127.586 10.9375 126.211 12.2812C124.461 13.9375 123.086 14.3438 118.836 14.5L114.993 14.625V17.5625V20.5H113.43H111.868V10.5ZM123.086 11.1562C124.461 10.4375 125.149 9.09375 125.118 7.15625C125.055 4.25 123.461 3.25 118.524 3.0625L114.993 2.90625V7.34375V11.75H118.43C121.243 11.75 122.118 11.625 123.086 11.1562Z" fill="white"/>
<path d="M10.4614 10.5C15.9614 5 20.4927 0.5 20.5239 0.5C20.5864 0.5 20.6177 5 20.6177 10.5V20.5H10.5552H0.461426L10.4614 10.5Z" fill="#6BE0BF"/>
</g>
<defs>
<clipPath id="clip0">
<rect width="127.5" height="20" fill="white" transform="translate(0.617676 0.5)"/>
</clipPath>
</defs>
</svg>
