<svg width="375" height="339" viewBox="0 0 375 339" fill="none" xmlns="http://www.w3.org/2000/svg">
<g opacity="0.2">
<path fill-rule="evenodd" clip-rule="evenodd" d="M282.598 102.845C286.437 103.576 290.257 104.404 294.054 105.327C332.589 114.738 358.568 132.62 360.465 153.39C362.443 175.052 338.575 198.588 300.111 215.31C298.079 216.194 295.992 217.056 293.861 217.9C294.928 220.961 295.905 223.973 296.778 226.93C308.209 265.644 305.139 298.602 287.561 311.006C270.542 323.016 240.574 315.483 208.868 292.944C205.421 290.487 202.043 287.935 198.739 285.291C196.54 287.836 194.334 290.274 192.126 292.584C164.188 321.81 134.019 335.632 114.47 326.651C95.5439 317.952 87.1376 288.301 90.9032 249.647C91.3167 245.446 91.8479 241.257 92.4961 237.086C89.2725 236.478 86.0645 235.791 82.8752 235.024C43.5377 225.51 16.4705 206.363 14.5181 184.987C12.6279 164.292 34.1967 142.202 69.6594 126.126C73.6234 124.33 77.7805 122.602 82.0968 120.942C80.8018 117.243 79.6013 113.512 78.4965 109.752C67.3758 71.781 69.8939 40.3938 86.973 28.3415C104.785 15.7728 137.163 24.5655 170.93 49.3679C173.031 50.9144 175.102 52.4996 177.144 54.1227C179.702 51.1677 182.334 48.2776 185.038 45.4551C212.485 16.8703 241.012 3.35523 260.006 12.0836C279.817 21.1838 288.331 53.5474 283.627 95.1156C283.332 97.6982 282.989 100.275 282.598 102.845ZM288.541 204.092C290.466 203.326 292.352 202.546 294.186 201.749L294.187 201.749C327.396 187.309 346.905 168.073 345.687 154.74C344.544 142.223 323.533 127.761 290.516 119.699C287.102 118.864 283.568 118.102 279.936 117.403C276.934 131.522 272.579 146.546 267.032 161.998C275.648 176.518 282.9 190.673 288.541 204.092ZM288.362 276.485C289.53 263.953 287.596 248.235 282.542 231.116C281.752 228.444 280.871 225.719 279.907 222.944C265.88 227.554 250.3 231.417 233.71 234.423C225.456 249.014 216.843 262.262 208.065 273.782C211.233 276.31 214.378 278.685 217.487 280.895C244.6 300.17 268.663 306.219 278.991 298.931C283.844 295.506 287.312 287.746 288.362 276.485ZM120.689 313.211C126.085 315.69 134.559 314.808 144.868 310.085L144.869 310.085C156.341 304.828 169.034 295.302 181.388 282.377C183.455 280.209 185.468 277.991 187.426 275.724C176.337 265.838 165.186 254.411 154.389 241.857C137.501 242.033 121.61 241.217 107.155 239.387C106.553 243.267 106.059 247.162 105.674 251.069C102.455 284.124 109.202 307.934 120.689 313.211ZM44.0809 202.961C54.3744 210.24 68.9876 216.438 86.3816 220.646C89.2935 221.346 92.2222 221.974 95.1651 222.531C98.2375 207.928 102.635 192.491 108.201 176.792C99.9925 162.575 92.9733 148.416 87.3614 134.773C83.4598 136.267 79.6029 137.876 75.7956 139.595C45.4666 153.344 28.1486 171.079 29.2955 183.637C29.8347 189.54 34.8318 196.418 44.0809 202.961ZM95.5416 40.417C85.2486 47.68 83.2134 73.0634 92.7415 105.598L92.7413 105.596C93.7695 109.093 94.886 112.565 96.0896 116.006C110.112 111.464 125.467 107.626 141.6 104.637C149.869 90.42 158.682 77.2633 167.749 65.5857C165.863 64.091 163.985 62.651 162.122 61.282C132.967 39.8678 106.506 32.6802 95.5416 40.417ZM233.227 112.417C237.376 117.759 241.408 123.189 245.322 128.705C249.299 134.307 253.164 139.987 256.913 145.743C260.356 135.132 263.162 124.831 265.273 115.032C255.136 113.679 244.393 112.798 233.227 112.417ZM201.667 97.8115C194.137 89.5059 186.559 81.9081 179.071 75.1687C172.828 83.2484 166.692 92.0864 160.778 101.537C174.342 99.657 187.987 98.4138 201.667 97.8115ZM115.097 158.685C117.662 152.38 120.375 146.136 123.233 139.957C126.095 133.773 129.102 127.656 132.251 121.612C121.409 123.979 111.048 126.74 101.378 129.845C105.268 139.232 109.864 148.902 115.097 158.685ZM109.847 224.81C119.91 226.05 130.751 226.782 142.196 227.008C137.903 221.535 133.742 215.96 129.717 210.288C125.771 204.728 121.958 199.076 118.279 193.337C114.833 204.133 112.003 214.698 109.847 224.81ZM173.664 241.248C181.306 249.59 189.054 257.286 196.746 264.182C202.838 256.132 208.878 247.164 214.781 237.421C207.948 238.352 200.992 239.146 193.94 239.79C187.076 240.417 180.311 240.903 173.664 241.248ZM274.558 209.123C270.58 199.739 265.753 189.929 260.17 179.843C257.525 186.301 254.736 192.699 251.806 199.034C248.923 205.266 245.917 211.441 242.788 217.555C254.074 215.148 264.735 212.321 274.558 209.123ZM224.173 221.056C229.198 211.807 233.92 202.397 238.331 192.843L238.333 192.843C242.785 183.233 246.892 173.468 250.647 163.567C245.121 154.61 239.305 145.834 233.206 137.255C227.139 128.696 220.771 120.354 214.114 112.243C203.757 112.401 193.157 112.957 182.446 113.935C171.783 114.909 161.271 116.278 151.053 117.994C145.917 127.195 141.132 136.587 136.711 146.149L136.711 146.146C132.287 155.707 128.226 165.431 124.535 175.296C129.963 184.325 135.733 193.145 141.833 201.738C147.961 210.376 154.416 218.78 161.182 226.932C171.326 226.663 181.829 226.04 192.594 225.057C203.403 224.07 213.976 222.724 224.173 221.056ZM268.881 93.4641C272.942 57.574 265.983 31.1251 253.791 25.5218C242.343 20.2614 219.272 31.191 195.755 55.6844C193.259 58.291 190.828 60.959 188.464 63.6859C199.322 73.4037 210.292 84.7751 221.03 97.402C237.488 97.438 253.298 98.472 267.952 100.463C268.304 98.1357 268.613 95.8024 268.881 93.4641Z" fill="#53C1DE"/>
<path d="M184.678 138.39C201.74 136.832 216.83 149.358 218.383 166.367C219.937 183.378 207.366 198.431 190.304 199.989C173.244 201.547 158.153 189.021 156.6 172.01C155.046 155.001 167.618 139.948 184.678 138.39Z" fill="#53C1DE"/>
</g>
</svg>
