<svg width="31" height="30" viewBox="0 0 31 30" fill="none" xmlns="http://www.w3.org/2000/svg">
<path d="M29.3862 0.00261841C23.5297 -0.102386 16.8507 2.95898 12.623 7.70791C8.58289 7.78417 4.64899 9.44048 1.75263 12.3368C1.58387 12.5031 1.52387 12.7519 1.59762 12.9769C1.67262 13.2031 1.86763 13.3669 2.10264 13.4006L6.92032 14.0907L6.3253 14.7569C6.10404 15.0044 6.11529 15.3807 6.3503 15.6157L14.3844 23.6498C14.5056 23.771 14.6656 23.8323 14.8269 23.8323C14.9756 23.8323 15.1244 23.7798 15.2431 23.6735L15.9094 23.0785L16.5994 27.8962C16.6332 28.1312 16.8182 28.3037 17.042 28.3787C17.0995 28.3975 17.1595 28.4062 17.2207 28.4062C17.3982 28.4062 17.5795 28.3287 17.7045 28.2049C20.5608 25.3486 22.2172 21.4147 22.2934 17.3745C27.0473 13.1381 30.1337 6.46162 29.9975 0.612642C29.9887 0.280129 29.7199 0.0113687 29.3862 0.00261841ZM23.626 10.793C23.0172 11.4018 22.2172 11.7068 21.4159 11.7068C20.6146 11.7068 19.8146 11.4018 19.2058 10.793C17.9882 9.57424 17.9882 7.59166 19.2058 6.37286C20.4246 5.15407 22.4072 5.15407 23.626 6.37286C24.8448 7.59166 24.8448 9.57549 23.626 10.793Z" fill="#FF5353"/>
<path d="M3.4052 21.1309C2.06765 22.4685 0.231331 28.5112 0.0263228 29.195C-0.0399298 29.415 0.0213226 29.6537 0.182579 29.8162C0.302583 29.9363 0.461339 30 0.625096 30C0.685098 30 0.7451 29.9913 0.805103 29.9738C1.48888 29.7687 7.53161 27.9324 8.86916 26.5949C10.3755 25.0886 10.3755 22.6372 8.86916 21.1309C7.3616 19.6246 4.91151 19.6259 3.4052 21.1309Z" fill="#FF5353"/>
</svg>
