<svg width="30" height="30" viewBox="0 0 30 30" fill="none" xmlns="http://www.w3.org/2000/svg">
<path d="M29.0625 14.0625H26.2031C25.7494 8.60628 21.3937 4.25066 15.9375 3.79691V0.937531C15.9375 0.420031 15.5175 3.05176e-05 15 3.05176e-05C14.4825 3.05176e-05 14.0625 0.420031 14.0625 0.937531V3.79691C8.60625 4.25066 4.25063 8.60628 3.79688 14.0625H0.9375C0.42 14.0625 0 14.4825 0 15C0 15.5175 0.42 15.9375 0.9375 15.9375H3.795C4.24875 21.3919 8.60625 25.7494 14.0625 26.2032V29.0625C14.0625 29.58 14.4825 30 15 30C15.5175 30 15.9375 29.58 15.9375 29.0625V26.2032C21.3937 25.7494 25.7512 21.3938 26.205 15.9375H29.0625C29.58 15.9375 30 15.5175 30 15C30 14.4825 29.58 14.0625 29.0625 14.0625ZM15 18.75C12.9281 18.75 11.25 17.0719 11.25 15C11.25 12.9282 12.9281 11.25 15 11.25C17.0719 11.25 18.75 12.9282 18.75 15C18.75 17.07 17.0719 18.75 15 18.75Z" fill="#FFD600"/>
</svg>
