<svg width="27" height="19" viewBox="0 0 27 19" fill="none" xmlns="http://www.w3.org/2000/svg">
<path opacity="0.3" d="M26.4437 2.97305C26.1326 1.81049 25.2206 0.894067 24.0641 0.581028C21.9512 0 13.4997 0 13.4997 0C13.4997 0 5.0485 0 2.93566 0.558999C1.80138 0.871707 0.867153 1.81066 0.556019 2.97305C0 5.09641 0 9.5 0 9.5C0 9.5 0 13.9258 0.556019 16.027C0.867482 17.1893 1.77913 18.1058 2.93583 18.4188C5.07075 19 13.5 19 13.5 19C13.5 19 21.9512 19 24.0641 18.441C25.2208 18.1281 26.1326 17.2117 26.444 16.0493C26.9999 13.9258 26.9999 9.52236 26.9999 9.52236C26.9999 9.52236 27.0221 5.09641 26.4437 2.97305ZM10.8089 13.5682V5.43181L17.8368 9.5L10.8089 13.5682Z" fill="white"/>
</svg>
